<svg width="290" height="216" viewBox="0 0 290 216" fill="none" xmlns="http://www.w3.org/2000/svg">
<g filter="url(#filter0_dd_1217_6173)">
<rect x="41" y="21.0002" width="208" height="134" rx="24" fill="white"/>
<rect x="40.5" y="20.5002" width="209" height="135" rx="24.5" stroke="#D6DCE5"/>
<path d="M108.276 70.448C109.664 68.7123 110.605 66.3818 110.357 64.0002C108.326 64.1013 105.847 65.3404 104.412 67.0775C103.123 68.565 101.982 70.9931 102.28 73.2748C104.56 73.4726 106.838 72.135 108.276 70.448Z" fill="#000008"/>
<path d="M110.331 73.7204C107.02 73.5231 104.204 75.5999 102.623 75.5999C101.04 75.5999 98.6185 73.8198 95.9992 73.8677C92.5901 73.9178 89.4267 75.8454 87.6967 78.9112C84.1384 85.0442 86.7577 94.1416 90.218 99.1366C91.8984 101.608 93.9235 104.329 96.592 104.231C99.1133 104.132 100.101 102.598 103.166 102.598C106.229 102.598 107.119 104.231 109.788 104.182C112.555 104.132 114.286 101.709 115.966 99.2355C117.894 96.4185 118.683 93.6984 118.733 93.5491C118.683 93.4997 113.396 91.4713 113.347 85.3893C113.297 80.2967 117.498 77.8744 117.695 77.7241C115.323 74.2154 111.616 73.8198 110.331 73.7204Z" fill="#000008"/>
<path d="M139.166 66.8284C146.364 66.8284 151.376 71.7898 151.376 79.0133C151.376 86.2626 146.261 91.2498 138.986 91.2498H131.016V103.923H125.259V66.8284L139.166 66.8284ZM131.016 86.4168H137.623C142.636 86.4168 145.489 83.7179 145.489 79.0391C145.489 74.3608 142.636 71.6872 137.649 71.6872H131.016V86.4168Z" fill="#000008"/>
<path d="M152.88 96.237C152.88 91.5066 156.505 88.6019 162.932 88.2419L170.335 87.8051V85.723C170.335 82.7152 168.304 80.9158 164.911 80.9158C161.697 80.9158 159.692 82.4579 159.204 84.8746H153.96C154.268 79.99 158.432 76.3912 165.116 76.3912C171.672 76.3912 175.861 79.8616 175.861 85.2857V103.923H170.54V99.4758H170.412C168.844 102.484 165.425 104.386 161.878 104.386C156.582 104.386 152.88 101.095 152.88 96.237ZM170.335 93.7949V91.6613L163.677 92.0724C160.36 92.3039 158.484 93.7691 158.484 96.0828C158.484 98.4475 160.438 99.99 163.42 99.99C167.301 99.99 170.335 97.3164 170.335 93.7949Z" fill="#000008"/>
<path d="M180.885 113.872V109.373C181.296 109.476 182.221 109.476 182.684 109.476C185.255 109.476 186.643 108.396 187.491 105.62C187.491 105.568 187.98 103.975 187.98 103.949L178.212 76.8796H184.226L191.065 98.8848H191.167L198.006 76.8796H203.867L193.738 105.337C191.425 111.892 188.751 114 183.147 114C182.684 114 181.296 113.949 180.885 113.872Z" fill="#000008"/>
</g>
<defs>
<filter id="filter0_dd_1217_6173" x="0" y="0.000244141" width="290" height="216" filterUnits="userSpaceOnUse" color-interpolation-filters="sRGB">
<feFlood flood-opacity="0" result="BackgroundImageFix"/>
<feColorMatrix in="SourceAlpha" type="matrix" values="0 0 0 0 0 0 0 0 0 0 0 0 0 0 0 0 0 0 127 0" result="hardAlpha"/>
<feOffset dy="2"/>
<feGaussianBlur stdDeviation="10"/>
<feColorMatrix type="matrix" values="0 0 0 0 0.717647 0 0 0 0 0.717647 0 0 0 0 0.717647 0 0 0 0.08 0"/>
<feBlend mode="normal" in2="BackgroundImageFix" result="effect1_dropShadow_1217_6173"/>
<feColorMatrix in="SourceAlpha" type="matrix" values="0 0 0 0 0 0 0 0 0 0 0 0 0 0 0 0 0 0 127 0" result="hardAlpha"/>
<feOffset dy="20"/>
<feGaussianBlur stdDeviation="20"/>
<feColorMatrix type="matrix" values="0 0 0 0 0.717647 0 0 0 0 0.717647 0 0 0 0 0.717647 0 0 0 0.08 0"/>
<feBlend mode="normal" in2="effect1_dropShadow_1217_6173" result="effect2_dropShadow_1217_6173"/>
<feBlend mode="normal" in="SourceGraphic" in2="effect2_dropShadow_1217_6173" result="shape"/>
</filter>
</defs>
</svg>
