<svg width="306" height="121" viewBox="0 0 306 121" fill="none" xmlns="http://www.w3.org/2000/svg">
<path d="M199.279 60.4997C199.279 56.04 198.869 51.7563 198.165 47.5899C189.538 47.3552 180.854 47.2378 172.169 47.1205C172.404 51.4629 172.521 55.9226 172.521 60.4997C172.521 65.0181 172.404 69.4778 172.169 73.8789C180.795 73.8202 189.538 73.6442 198.165 73.4094C198.869 69.3018 199.279 64.9594 199.279 60.4997Z" fill="#FFD304"/>
<path d="M205.559 60.4992C205.559 64.8416 205.207 69.1253 204.561 73.2329C213.128 72.9982 221.872 72.7048 230.674 72.3527C231.73 68.4798 232.258 64.4895 232.258 60.4992C232.258 56.4502 231.73 52.5186 230.674 48.6457C221.931 48.2936 213.187 48.0002 204.561 47.7655C205.207 51.8732 205.559 56.1568 205.559 60.4992Z" fill="#FFD304"/>
<path d="M191.768 8.39138C188.189 6.807 184.492 5.45734 180.678 4.34241C182.145 5.51602 183.612 6.807 184.961 8.15665C187.25 8.21533 189.48 8.3327 191.768 8.39138Z" fill="#FFD304"/>
<path d="M182.262 106.74C188.893 99.64 193.94 90.3684 196.756 79.7472C188.424 79.9232 180.032 80.0993 171.7 80.158C170.878 89.5469 169.528 98.2316 167.592 105.508C167.475 106.036 167.299 106.564 167.181 107.034C172.169 107.034 177.216 106.858 182.262 106.74Z" fill="#FFD304"/>
<path d="M203.27 41.4278C211.544 41.6625 219.935 41.8972 228.385 42.2493C224.63 33.5646 218.234 25.5253 209.432 18.7183C207.847 17.486 206.263 16.3711 204.561 15.2562C199.984 14.9628 195.348 14.7867 190.712 14.552C196.522 22.1805 200.864 31.276 203.27 41.4278Z" fill="#FFD304"/>
<path d="M171.759 40.8998C180.091 40.9585 188.483 41.1345 196.815 41.3106C193.999 30.6893 188.952 21.4178 182.321 14.3174C177.216 14.1414 172.169 14.024 167.24 13.9653C167.358 14.4935 167.534 14.9629 167.651 15.491C169.529 22.8261 170.937 31.4522 171.759 40.8998Z" fill="#FFD304"/>
<path d="M174.927 7.8631C171.113 5.10511 166.947 2.9926 162.487 1.64294C163.426 3.34469 164.365 5.39851 165.186 7.68706C168.414 7.68706 171.641 7.74574 174.927 7.8631Z" fill="#FFD304"/>
<path d="M106.623 60.4997C106.623 64.9594 107.033 69.2431 107.737 73.4094C116.364 73.6442 125.048 73.7615 133.733 73.8789C133.498 69.5365 133.381 65.0768 133.381 60.4997C133.381 55.9813 133.498 51.5215 133.733 47.1205C125.107 47.1792 116.364 47.3552 107.737 47.5899C106.975 51.7563 106.623 56.0986 106.623 60.4997Z" fill="#FFD304"/>
<path d="M139.954 47.1209C139.719 51.3459 139.543 55.8643 139.543 60.5588C139.543 65.2533 139.66 69.713 139.954 73.9967C148.58 74.0554 157.265 74.0554 165.891 73.9967C166.125 69.7717 166.301 65.2533 166.301 60.5588C166.301 55.8643 166.184 51.4046 165.891 47.1209C157.265 47.0622 148.58 47.0622 139.954 47.1209Z" fill="#FFD304"/>
<path d="M143.357 1.64294C138.956 2.9926 134.789 5.10511 130.917 7.8631C134.203 7.80442 137.43 7.74574 140.599 7.68706C141.538 5.39851 142.418 3.34469 143.357 1.64294Z" fill="#FFD304"/>
<path d="M138.193 15.491C138.31 14.9629 138.486 14.4348 138.603 13.9653C133.674 14.024 128.628 14.1414 123.522 14.3174C116.892 21.4178 111.845 30.6893 109.028 41.3106C117.361 41.1345 125.752 40.9585 134.085 40.8998C134.965 31.4522 136.315 22.8261 138.193 15.491Z" fill="#FFD304"/>
<path d="M152.922 0C151.161 0.645488 149.225 3.22744 147.406 7.56981C151.103 7.56981 154.8 7.56981 158.496 7.56981C156.619 3.22744 154.682 0.645488 152.922 0Z" fill="#FFD304"/>
<path d="M165.42 40.8417C164.423 29.8685 162.721 20.7143 160.667 13.9073C155.503 13.8486 150.339 13.8486 145.175 13.9073C143.122 20.7143 141.42 29.8685 140.422 40.8417C148.755 40.7831 157.146 40.7831 165.42 40.8417Z" fill="#FFD304"/>
<path d="M51.7558 24.4109C51.8732 24.0001 51.9905 23.5894 52.1079 23.1786C48.1763 23.2373 44.1273 23.3546 40.0197 23.472C34.6797 29.164 30.6307 36.6165 28.4009 45.0665C35.0905 44.8905 41.7801 44.7731 48.4697 44.7144C49.1152 37.262 50.2301 30.279 51.7558 24.4109Z" fill="#FFD304"/>
<path d="M138.662 107.092C138.545 106.564 138.369 106.094 138.252 105.566C136.374 98.231 134.966 89.605 134.144 80.2161C125.811 80.1574 117.42 79.9813 109.087 79.8053C111.904 90.4265 116.951 99.6981 123.582 106.798C128.687 106.857 133.733 107.033 138.662 107.092Z" fill="#FFD304"/>
<path d="M52.1079 97.8211C51.9905 97.4103 51.8732 96.9996 51.7558 96.5888C50.2301 90.7207 49.1152 83.7964 48.4697 76.2266C41.7801 76.1679 35.0905 76.0506 28.4009 75.8745C30.6307 84.3832 34.6797 91.8357 40.0197 97.469C44.1273 97.7037 48.1763 97.7624 52.1079 97.8211Z" fill="#FFD304"/>
<path d="M26.4062 60.5004C26.4062 64.0799 26.6997 67.5421 27.2865 70.8282C34.2108 71.0042 41.1938 71.1216 48.1181 71.1803C47.9421 67.7181 47.8247 64.0799 47.8247 60.4417C47.8247 56.8035 47.9421 53.224 48.1181 49.7031C41.1938 49.7618 34.2108 49.8792 27.2865 50.0552C26.7583 53.5174 26.4062 56.9795 26.4062 60.5004Z" fill="#FFD304"/>
<path d="M41.3697 15.4915C38.2596 16.4303 35.3256 17.4866 32.4502 18.7776C34.2693 18.7189 36.0884 18.6015 37.9075 18.5429C39.0224 17.4279 40.1374 16.4303 41.3697 15.4915Z" fill="#FFD304"/>
<path d="M81.1554 18.3079C78.104 16.1367 74.7592 14.435 71.1797 13.3201C71.9425 14.7284 72.6467 16.3128 73.3509 18.1319C75.9328 18.1906 78.5735 18.2492 81.1554 18.3079Z" fill="#FFD304"/>
<path d="M63.551 12.0295C62.1427 12.5577 60.617 14.6115 59.0913 18.1323C62.0253 18.1323 65.0181 18.1323 67.9521 18.1323C66.5438 14.6115 64.9594 12.499 63.551 12.0295Z" fill="#FFD304"/>
<path d="M55.9225 13.3201C52.4017 14.435 49.0569 16.0781 45.9468 18.3079C48.5874 18.2492 51.1694 18.1906 53.7513 18.1319C54.3968 16.3128 55.101 14.7284 55.9225 13.3201Z" fill="#FFD304"/>
<path d="M32.4502 102.28C35.3256 103.512 38.2596 104.627 41.3697 105.566C40.1961 104.627 39.0224 103.629 37.9075 102.514C36.0884 102.456 34.2693 102.338 32.4502 102.28Z" fill="#FFD304"/>
<path d="M45.9468 102.749C48.9982 104.92 52.343 106.622 55.9225 107.737C55.1597 106.329 54.4555 104.744 53.7513 102.925C51.1694 102.867 48.5874 102.808 45.9468 102.749Z" fill="#FFD304"/>
<path d="M59.1499 102.926C60.6169 106.388 62.2013 108.501 63.6096 109.029C65.018 108.501 66.5437 106.447 68.0694 102.926C66.6024 102.926 65.1353 102.926 63.6096 102.926C62.0839 102.985 60.6169 102.926 59.1499 102.926Z" fill="#FFD304"/>
<path d="M71.2388 107.737C74.7596 106.622 78.1044 104.979 81.2145 102.749C78.5739 102.808 75.9919 102.867 73.41 102.925C72.7058 104.744 72.0016 106.329 71.2388 107.737Z" fill="#FFD304"/>
<path d="M21.4185 60.5C21.4185 56.9792 21.7119 53.5757 22.24 50.2896C15.3157 50.4656 8.27398 50.7003 1.29098 50.9937C0.469446 54.1038 0 57.2726 0 60.5C0 63.7274 0.410765 66.8962 1.29098 70.0063C8.33266 70.2997 15.3157 70.5344 22.1813 70.7104C21.6532 67.4243 21.4185 64.0208 21.4185 60.5Z" fill="#FFD304"/>
<path d="M23.1788 75.8153C16.5478 75.6392 9.79955 75.4045 3.05127 75.1698C6.04399 82.1528 11.2079 88.6077 18.2496 94.0063C19.4819 94.9452 20.8315 95.8841 22.1225 96.7643C25.8194 96.999 29.575 97.1751 33.2132 97.3511C28.6361 91.2483 25.1739 83.9132 23.1788 75.8153Z" fill="#FFD304"/>
<path d="M33.2722 23.7655C29.5754 23.9415 25.8198 24.1176 22.1816 24.2936C20.8319 25.1738 19.541 26.1127 18.3087 27.0516C11.267 32.5089 6.10307 38.9051 3.11035 45.8881C9.85863 45.5947 16.6069 45.4187 23.2378 45.2426C25.1743 37.086 28.6365 29.7509 33.2722 23.7655Z" fill="#FFD304"/>
<path d="M162.487 119.416C166.888 118.066 171.054 115.953 174.927 113.195C171.641 113.254 168.414 113.313 165.245 113.371C164.365 115.66 163.484 117.655 162.487 119.416Z" fill="#FFD304"/>
<path d="M273.452 18.7776C270.576 17.5453 267.642 16.4303 264.532 15.4915C265.706 16.4303 266.879 17.4279 267.994 18.5429C269.814 18.6015 271.633 18.6602 273.452 18.7776Z" fill="#FFD304"/>
<path d="M265.824 97.5282C271.164 91.8362 275.212 84.3837 277.442 75.9337C270.753 76.1098 264.063 76.2271 257.374 76.2858C256.728 83.7969 255.613 90.7799 254.087 96.648C253.97 97.0588 253.853 97.4695 253.735 97.8803C257.726 97.763 261.775 97.7043 265.824 97.5282Z" fill="#FFD304"/>
<path d="M279.437 60.4997C279.437 56.9202 279.144 53.458 278.557 50.1719C271.633 49.9959 264.65 49.8785 257.726 49.8198C257.902 53.282 258.019 56.9202 258.019 60.5584C258.019 64.1966 257.902 67.7761 257.726 71.297C264.65 71.2383 271.633 71.1209 278.557 70.9449C279.144 67.5414 279.437 64.0792 279.437 60.4997Z" fill="#FFD304"/>
<path d="M257.374 44.7731C264.063 44.8318 270.753 44.9491 277.442 45.1252C275.212 36.6165 271.164 29.164 265.824 23.472C261.716 23.3546 257.726 23.2373 253.735 23.1786C253.853 23.5894 253.97 24.0001 254.087 24.4109C255.613 30.279 256.728 37.262 257.374 44.7731Z" fill="#FFD304"/>
<path d="M237.892 102.926C239.359 106.388 240.943 108.501 242.352 109.029C243.76 108.501 245.286 106.447 246.812 102.926C245.345 102.926 243.878 102.926 242.352 102.926C240.826 102.985 239.359 102.926 237.892 102.926Z" fill="#FFD304"/>
<path d="M282.665 45.2426C289.296 45.4187 296.044 45.6534 302.792 45.8881C299.8 38.9051 294.636 32.4502 287.594 27.0516C286.362 26.1127 285.012 25.1738 283.721 24.2936C280.083 24.0589 276.327 23.8829 272.63 23.7655C277.207 29.7509 280.728 37.086 282.665 45.2426Z" fill="#FFD304"/>
<path d="M304.612 50.9937C297.629 50.7003 290.587 50.4656 283.721 50.2896C284.249 53.5757 284.543 57.0378 284.543 60.5C284.543 64.0208 284.249 67.4243 283.721 70.7104C290.587 70.5344 297.629 70.2997 304.612 70.0063C305.433 66.8962 305.902 63.7274 305.902 60.5C305.902 57.2726 305.433 54.1038 304.612 50.9937Z" fill="#FFD304"/>
<path d="M224.688 102.749C227.74 104.92 231.085 106.622 234.664 107.737C233.901 106.329 233.197 104.744 232.493 102.925C229.911 102.867 227.329 102.808 224.688 102.749Z" fill="#FFD304"/>
<path d="M252.738 71.2975C252.914 67.894 253.032 64.3144 253.032 60.5589C253.032 56.8033 252.914 53.2238 252.738 49.8203C247.633 49.7616 242.528 49.7616 237.422 49.8203C237.07 48.1186 236.66 46.4755 236.131 44.7738C241.53 44.7738 246.987 44.7738 252.386 44.7738C251.623 35.9717 250.215 28.6366 248.572 23.1793C244.405 23.1206 240.298 23.1206 236.131 23.1793C235.017 26.9935 233.96 31.7467 233.197 37.2626C232.083 34.8567 230.733 32.5095 229.266 30.2796C229.677 28.2845 230.087 26.348 230.557 24.4702C230.674 24.0595 230.792 23.6487 230.909 23.2379C228.679 23.2966 226.39 23.2966 224.161 23.414C222.342 21.2428 220.288 19.189 218.175 17.2525C218.821 16.6657 219.466 16.1376 220.17 15.5508C219.231 15.8442 218.293 16.1963 217.354 16.4897C215.945 15.2574 213.95 14.2011 212.366 13.0862C228.62 25.2331 238.537 42.0158 238.537 60.6176C238.537 79.1607 228.62 95.9434 212.424 108.032C214.009 106.858 215.887 105.978 217.295 104.687C218.234 104.98 219.173 105.332 220.112 105.626C219.407 105.098 218.762 104.511 218.117 103.924C220.229 101.929 222.283 99.9337 224.102 97.7625C226.39 97.8212 228.62 97.8798 230.85 97.9385C230.733 97.5277 230.615 97.117 230.498 96.7062C230.029 94.8871 229.618 92.9506 229.207 90.8968C230.674 88.6083 232.024 86.3197 233.139 83.9138C233.902 89.4298 234.958 94.1829 236.073 97.9972C240.239 98.0559 244.347 98.0559 248.513 97.9972C250.156 92.5399 251.506 85.2048 252.327 76.4027C248.983 76.4027 245.638 76.4614 242.293 76.4614C240.239 76.4614 238.127 76.4614 236.073 76.4614C236.601 74.8183 237.012 73.1166 237.364 71.4148C242.528 71.2975 247.633 71.2975 252.738 71.2975ZM67.3657 60.5002C67.3657 42.0158 77.2828 25.2331 93.3613 13.1449C91.8356 14.2598 89.9578 15.1987 88.5495 16.431C87.6106 16.1376 86.6717 15.7855 85.7328 15.4921C86.437 16.0202 87.0824 16.607 87.7279 17.1938C85.6154 19.1303 83.5616 21.1841 81.7425 23.3553C79.454 23.2966 77.2241 23.2379 74.9942 23.1793C75.1116 23.59 75.2289 24.0008 75.3463 24.4116C75.8157 26.2307 76.2265 28.1671 76.6373 30.221C75.1703 32.5095 73.8206 34.7981 72.7057 37.204C71.9428 31.688 70.8866 26.9348 69.7716 23.1206C65.6053 23.0619 61.4976 23.0619 57.3313 23.1206C55.6883 28.5779 54.3386 35.913 53.5171 44.7151C58.9157 44.6564 64.373 44.6564 69.7716 44.7151C69.2435 46.3582 68.8327 48.0599 68.4807 49.7616C63.3754 49.7616 58.2702 49.7616 53.165 49.7616C52.9889 53.1651 52.8716 56.7446 52.8716 60.5002C52.8716 64.2558 52.9889 67.8353 53.165 71.2388C58.2702 71.2975 63.3754 71.2975 68.4807 71.2388C68.8327 72.9405 69.2435 74.5836 69.7716 76.2853C67.7178 76.2853 65.6053 76.2853 63.5515 76.2853C60.2067 76.2853 56.8619 76.2853 53.5171 76.2266C54.2799 85.0287 55.6883 92.3638 57.3313 97.8211C61.4976 97.8798 65.6053 97.8798 69.7716 97.8211C70.8866 94.0069 71.9428 89.2538 72.7057 83.7378C73.8206 86.1437 75.1703 88.4909 76.6373 90.7208C76.2265 92.7159 75.8157 94.6524 75.3463 96.5302C75.2289 96.9409 75.1116 97.3517 74.9942 97.7625C77.2241 97.7038 79.5126 97.7038 81.7425 97.5864C83.5616 99.7576 85.6154 101.811 87.7279 103.748C87.0824 104.335 86.437 104.863 85.7328 105.45C86.6717 105.156 87.6106 104.804 88.5495 104.511C89.9578 105.743 91.8943 106.741 93.42 107.856C77.2828 95.826 67.3657 79.0433 67.3657 60.5002ZM252.738 71.2975C252.914 67.894 253.032 64.3144 253.032 60.5589C253.032 56.8033 252.914 53.2238 252.738 49.8203C247.633 49.7616 242.528 49.7616 237.422 49.8203C237.07 48.1186 236.66 46.4755 236.131 44.7738C241.53 44.7738 246.987 44.7738 252.386 44.7738C251.623 35.9717 250.215 28.6366 248.572 23.1793C244.405 23.1206 240.298 23.1206 236.131 23.1793C235.017 26.9935 233.96 31.7467 233.197 37.2626C232.083 34.8567 230.733 32.5095 229.266 30.2796C229.677 28.2845 230.087 26.348 230.557 24.4702C230.674 24.0595 230.792 23.6487 230.909 23.2379C228.679 23.2966 226.39 23.2966 224.161 23.414C222.342 21.2428 220.288 19.189 218.175 17.2525C218.821 16.6657 219.466 16.1376 220.17 15.5508C219.231 15.8442 218.293 16.1963 217.354 16.4897C215.945 15.2574 213.95 14.2011 212.366 13.0862C228.62 25.2331 238.537 42.0158 238.537 60.6176C238.537 79.1607 228.62 95.9434 212.424 108.032C214.009 106.858 215.887 105.978 217.295 104.687C218.234 104.98 219.173 105.332 220.112 105.626C219.407 105.098 218.762 104.511 218.117 103.924C220.229 101.929 222.283 99.9337 224.102 97.7625C226.39 97.8212 228.62 97.8798 230.85 97.9385C230.733 97.5277 230.615 97.117 230.498 96.7062C230.029 94.8871 229.618 92.9506 229.207 90.8968C230.674 88.6083 232.024 86.3197 233.139 83.9138C233.902 89.4298 234.958 94.1829 236.073 97.9972C240.239 98.0559 244.347 98.0559 248.513 97.9972C250.156 92.5399 251.506 85.2048 252.327 76.4027C248.983 76.4027 245.638 76.4614 242.293 76.4614C240.239 76.4614 238.127 76.4614 236.073 76.4614C236.601 74.8183 237.012 73.1166 237.364 71.4148C242.528 71.2975 247.633 71.2975 252.738 71.2975ZM67.3657 60.5002C67.3657 42.0158 77.2828 25.2331 93.3613 13.1449C91.8356 14.2598 89.9578 15.1987 88.5495 16.431C87.6106 16.1376 86.6717 15.7855 85.7328 15.4921C86.437 16.0202 87.0824 16.607 87.7279 17.1938C85.6154 19.1303 83.5616 21.1841 81.7425 23.3553C79.454 23.2966 77.2241 23.2379 74.9942 23.1793C75.1116 23.59 75.2289 24.0008 75.3463 24.4116C75.8157 26.2307 76.2265 28.1671 76.6373 30.221C75.1703 32.5095 73.8206 34.7981 72.7057 37.204C71.9428 31.688 70.8866 26.9348 69.7716 23.1206C65.6053 23.0619 61.4976 23.0619 57.3313 23.1206C55.6883 28.5779 54.3386 35.913 53.5171 44.7151C58.9157 44.6564 64.373 44.6564 69.7716 44.7151C69.2435 46.3582 68.8327 48.0599 68.4807 49.7616C63.3754 49.7616 58.2702 49.7616 53.165 49.7616C52.9889 53.1651 52.8716 56.7446 52.8716 60.5002C52.8716 64.2558 52.9889 67.8353 53.165 71.2388C58.2702 71.2975 63.3754 71.2975 68.4807 71.2388C68.8327 72.9405 69.2435 74.5836 69.7716 76.2853C67.7178 76.2853 65.6053 76.2853 63.5515 76.2853C60.2067 76.2853 56.8619 76.2853 53.5171 76.2266C54.2799 85.0287 55.6883 92.3638 57.3313 97.8211C61.4976 97.8798 65.6053 97.8798 69.7716 97.8211C70.8866 94.0069 71.9428 89.2538 72.7057 83.7378C73.8206 86.1437 75.1703 88.4909 76.6373 90.7208C76.2265 92.7159 75.8157 94.6524 75.3463 96.5302C75.2289 96.9409 75.1116 97.3517 74.9942 97.7625C77.2241 97.7038 79.5126 97.7038 81.7425 97.5864C83.5616 99.7576 85.6154 101.811 87.7279 103.748C87.0824 104.335 86.437 104.863 85.7328 105.45C86.6717 105.156 87.6106 104.804 88.5495 104.511C89.9578 105.743 91.8943 106.741 93.42 107.856C77.2828 95.826 67.3657 79.0433 67.3657 60.5002Z" fill="#FFD304"/>
<path d="M272.631 97.2922C276.328 97.1161 280.025 96.9401 283.722 96.7053C285.071 95.8251 286.362 94.9449 287.594 93.9474C294.636 88.49 299.8 82.0938 302.793 75.1108C296.044 75.4042 289.296 75.5803 282.665 75.7563C280.729 83.913 277.208 91.248 272.631 97.2922Z" fill="#FFD304"/>
<path d="M264.533 105.566C267.584 104.627 270.577 103.571 273.452 102.28C271.633 102.338 269.814 102.456 267.995 102.514C266.88 103.571 265.706 104.627 264.533 105.566Z" fill="#FFD304"/>
<path d="M249.98 13.3201C250.743 14.7284 251.447 16.3128 252.151 18.1319C254.733 18.1906 257.315 18.1906 259.956 18.3079C256.846 16.0781 253.501 14.3763 249.98 13.3201Z" fill="#FFD304"/>
<path d="M249.98 107.737C253.501 106.622 256.846 104.979 259.956 102.749C257.315 102.808 254.733 102.867 252.151 102.925C251.506 104.744 250.743 106.329 249.98 107.737Z" fill="#FFD304"/>
<path d="M152.922 80.2752C148.756 80.2752 144.589 80.2752 140.423 80.2166C141.42 91.1898 143.122 100.344 145.176 107.151C150.34 107.21 155.504 107.21 160.668 107.151C162.722 100.344 164.423 91.1898 165.421 80.2166C161.313 80.2166 157.088 80.2752 152.922 80.2752Z" fill="#FFD304"/>
<path d="M130.976 113.195C134.79 115.953 138.956 118.066 143.416 119.416C142.477 117.714 141.538 115.66 140.717 113.371C137.489 113.313 134.262 113.254 130.976 113.195Z" fill="#FFD304"/>
<path d="M102.574 79.5709C94.2999 79.3362 85.9085 79.1015 77.4585 78.7494C81.2141 87.4341 87.6103 95.4734 96.4124 102.28C97.9968 103.454 99.5811 104.628 101.283 105.684C105.919 105.977 110.554 106.212 115.132 106.388C109.381 98.8769 105.038 89.7227 102.574 79.5709Z" fill="#FFD304"/>
<path d="M147.406 113.43C149.225 117.773 151.161 120.413 152.922 121C154.682 120.354 156.619 117.773 158.438 113.43C156.619 113.43 154.741 113.489 152.922 113.489C151.103 113.489 149.225 113.43 147.406 113.43Z" fill="#FFD304"/>
<path d="M125.224 4.34241C121.41 5.51602 117.713 6.86568 114.134 8.39138C116.422 8.27402 118.652 8.21534 120.941 8.09797C122.29 6.807 123.757 5.51602 125.224 4.34241Z" fill="#FFD304"/>
<path d="M115.132 14.6704C110.496 14.8465 105.86 15.0812 101.283 15.3746C99.6398 16.4895 97.9968 17.6044 96.4124 18.8367C87.6103 25.6437 81.2141 33.683 77.4585 42.3677C85.8498 42.0156 94.2999 41.7222 102.574 41.5462C105.038 31.2771 109.381 22.1815 115.132 14.6704Z" fill="#FFD304"/>
<path d="M100.344 60.4992C100.344 56.1568 100.696 51.8732 101.342 47.7655C92.7158 48.0002 83.9723 48.2936 75.2289 48.6457C74.1727 52.5186 73.6445 56.5089 73.6445 60.4992C73.6445 64.5482 74.1727 68.4798 75.2289 72.3527C83.9723 72.7048 92.7158 72.9982 101.342 73.2329C100.696 69.1253 100.344 64.9003 100.344 60.4992Z" fill="#FFD304"/>
<path d="M114.134 112.609C117.713 114.193 121.41 115.543 125.224 116.658C123.757 115.484 122.29 114.193 120.941 112.843C118.652 112.843 116.422 112.726 114.134 112.609Z" fill="#FFD304"/>
<path d="M180.678 116.716C184.492 115.542 188.189 114.193 191.768 112.667C189.48 112.784 187.25 112.843 184.961 112.961C183.553 114.251 182.145 115.542 180.678 116.716Z" fill="#FFD304"/>
<path d="M242.293 12.0295C240.884 12.5577 239.359 14.6115 237.833 18.1323C240.767 18.1323 243.76 18.1323 246.694 18.1323C245.285 14.6115 243.701 12.499 242.293 12.0295Z" fill="#FFD304"/>
<path d="M232.493 18.1319C233.197 16.3128 233.901 14.6697 234.664 13.3201C231.143 14.435 227.799 16.0781 224.688 18.3079C227.329 18.2492 229.911 18.1906 232.493 18.1319Z" fill="#FFD304"/>
<path d="M203.27 79.5709C200.805 89.7227 196.463 98.8769 190.712 106.388C195.289 106.212 199.925 105.977 204.561 105.684C206.204 104.569 207.847 103.454 209.432 102.28C218.234 95.4734 224.63 87.4341 228.385 78.7494C219.935 79.1015 211.544 79.3949 203.27 79.5709Z" fill="#FFD304"/>
</svg>
