<svg width="163" height="367" viewBox="0 0 163 367" fill="none" xmlns="http://www.w3.org/2000/svg">
<path d="M67.1708 1.23914C66.5621 2.00012 66.1055 2.96402 66.1055 3.42061C66.1055 3.87719 67.0186 7.98647 68.1347 12.6031C69.2508 17.2197 70.164 21.3797 70.164 21.887C70.164 23.5104 71.686 25.7934 72.9543 26.0977C74.5777 26.5036 76.7592 25.1338 76.7592 23.6626C76.7592 23.1046 76.2518 21.8363 75.6431 20.8216C74.9328 19.6548 74.5777 18.285 74.6284 16.7124C74.6792 13.8714 73.005 5.39915 71.8889 2.91329C71.4323 1.89865 70.5191 0.782551 69.8596 0.478161C68.2362 -0.232086 68.3884 -0.282818 67.1708 1.23914Z" fill="#FF7A00"/>
<path d="M128.658 5.75431C128.05 6.16017 127.441 7.27627 127.238 8.18944C126.629 11.0304 124.752 13.6685 116.889 22.4958C109.228 31.171 108.366 32.5915 110.04 33.9612C111.409 35.1281 113.591 33.3017 124.448 22.09C133.427 12.7553 134.594 11.3855 134.594 9.86359C134.594 8.18944 133.427 6.71822 131.195 5.55139C129.825 4.84114 129.977 4.84114 128.658 5.75431Z" fill="#FF7A00"/>
<path d="M8.62661 14.4802C8.42368 14.6324 8.27148 15.647 8.27148 16.7124C8.27148 18.5388 8.62661 18.9446 14.2578 24.0685C21.2081 30.3593 29.5789 36.8022 31.4052 37.2588C33.333 37.7661 35.1594 36.7515 35.1594 35.1788C35.1594 34.1642 33.7389 32.7944 27.7018 27.9749C23.5418 24.728 18.3164 20.2636 16.0842 18.0822C12.8374 14.9875 11.6198 14.1251 10.453 14.1251C9.64124 14.1251 8.7788 14.2773 8.62661 14.4802Z" fill="#FF7A00"/>
<path d="M79.4985 54.6091C72.8019 58.972 67.5765 66.4804 65.8009 74.2931C64.6848 79.417 64.9892 87.4326 66.4604 90.7302C69.0985 96.7165 75.7951 98.3907 86.9054 95.8034C92.0293 94.6365 93.8556 93.6219 92.4859 92.7595C90.9639 91.7955 87.6156 91.6434 82.3902 92.2521C79.397 92.6073 76.0995 92.7595 75.0341 92.5565C70.8234 91.7448 68.7941 87.737 69.3014 81.0911C70.0624 71.2999 75.1863 62.9291 83.3034 58.2618C86.4488 56.4355 86.9054 55.6237 85.8907 53.6452C85.0283 52.1232 82.8468 52.4784 79.4985 54.6091Z" fill="#FF7A00"/>
<path d="M72.1425 110.769C70.2655 111.784 70.164 112.393 70.7728 117.466C71.2294 121.119 71.1279 124.467 70.2147 136.084L69.0986 150.239L70.3669 151.558L71.686 152.826L72.7513 151.811C73.8167 150.695 73.9182 150.086 75.2372 133.852C75.8967 125.481 76.7591 119.191 77.3679 117.973C77.6216 117.517 78.1289 117.111 78.484 117.111C79.6509 117.111 82.1875 121.677 83.8109 126.547C85.6879 132.28 85.8909 133.649 84.8762 133.396C83.1514 132.888 79.9045 133.142 79.1435 133.801C78.0274 134.715 78.0782 136.541 79.245 137.606C79.7523 138.063 82.1367 138.824 84.5718 139.281L88.9855 140.143L91.2685 138.925C94.0587 137.403 94.4138 136.896 93.2977 136.287C90.1524 134.512 89.0363 132.838 87.1084 126.851C84.7748 119.495 82.4411 114.777 79.9045 112.088C78.1796 110.262 77.6723 110.008 75.6938 110.008C74.4762 110.059 72.8528 110.363 72.1425 110.769Z" fill="#FF7A00"/>
<path d="M1.27019 162.567C-0.708348 163.48 -0.302494 168.046 1.98044 169.821C3.24874 170.785 3.24874 170.785 6.74923 169.568C8.67704 168.908 11.3151 168.35 12.5327 168.35H14.7649L16.2868 172.003C17.1493 174.032 19.2293 178.547 20.9034 182.048C22.6283 185.548 23.9981 189.049 23.9981 189.81C23.9981 191.737 21.6644 194.071 19.2293 194.477C17.758 194.781 16.7941 194.528 14.5112 193.462C11.7717 192.093 11.6195 192.093 10.96 192.955C10.6049 193.513 10.3005 194.629 10.3005 195.542C10.3005 196.861 10.7063 197.521 12.1775 198.637C13.7502 199.854 14.5112 200.057 17.0985 200.007C22.7298 199.956 29.0712 195.694 29.0712 191.991C29.0712 190.063 27.6508 185.7 24.0488 176.924C22.6283 173.423 21.4615 170.329 21.4615 170.024C21.4615 169.72 22.3239 169.669 23.8966 169.923C25.2156 170.126 27.4986 170.329 28.9191 170.329C31.2527 170.379 31.7093 170.227 32.4196 169.06C33.2313 167.843 33.2313 167.741 32.3181 166.828C31.202 165.763 22.2732 164.139 12.8371 163.277C9.64095 163.023 5.88679 162.668 4.4663 162.516C3.09654 162.414 1.62532 162.414 1.27019 162.567Z" fill="#FF7A00"/>
<path d="M122.419 164.393C121.15 166.473 121.15 167.183 122.469 170.785C125.107 177.989 126.477 185.649 126.477 193.259C126.477 196.405 126.68 197.368 127.543 198.485C128.862 200.159 130.231 200.159 131.855 198.535L133.123 197.267L132.058 195.491L130.942 193.716H132.261C132.92 193.716 136.421 194.325 140.023 195.035C152.452 197.571 162.497 199.195 162.801 198.687C163.156 198.079 163.917 198.535 155.902 194.781C151.386 192.65 147.024 191.078 142.965 190.012C139.617 189.201 136.522 188.186 136.116 187.831C134.797 186.563 137.029 184.685 144.994 180.221C153.01 175.757 154.38 174.641 154.38 172.51C154.38 171.242 152.147 168.35 151.184 168.35C150.879 168.35 149.611 169.466 148.343 170.886C145.907 173.524 131.094 182.859 130.536 182.149C130.333 181.946 129.47 178.344 128.557 174.184C126.731 165.813 126.274 164.494 124.6 163.429C123.535 162.719 123.433 162.769 122.419 164.393Z" fill="#FF7A00"/>
<path d="M49.3633 167.792C48.6023 169.263 48.7545 172.51 49.6677 174.742C50.9867 177.887 50.8345 181.134 49.2111 183.214C46.9789 186.157 46.6745 187.425 47.3848 191.179C48.1458 195.339 49.414 198.789 50.2765 198.789C50.5809 198.789 51.7477 197.876 52.8638 196.76C53.9292 195.644 55.0453 194.73 55.2482 194.73C55.5019 194.73 56.2628 195.187 56.9731 195.745C59.7126 197.876 61.539 196.506 61.539 192.397C61.539 190.012 62.1477 188.947 64.3292 187.679C66.7136 186.258 66.5614 185.244 63.8219 184.077C61.4375 183.062 60.017 180.931 60.017 178.445C60.017 177.076 58.0892 173.677 55.096 169.72C53.2697 167.386 52.5594 166.828 51.3926 166.828C50.4287 166.828 49.7184 167.183 49.3633 167.792Z" fill="#FF7A00"/>
<path d="M74.9834 169.466C73.7151 170.937 71.9395 173.626 71.0263 175.452C69.5551 178.395 69.4029 179.257 69.2507 184.127C69.0985 188.795 69.2 189.86 70.1639 192.143C71.7366 195.694 74.4254 198.028 77.9766 198.84C80.5639 199.398 81.2234 199.347 85.7386 198.129C88.4781 197.419 91.6742 196.709 92.841 196.506C93.9571 196.303 95.2762 195.897 95.7328 195.593C96.4937 195.035 96.4937 194.883 95.7835 193.817C94.7689 192.397 93.1962 192.397 86.2459 193.716C82.0859 194.527 80.6147 194.629 79.4986 194.172C74.8312 192.447 71.9903 185.396 73.7659 179.967C74.5776 177.482 75.8966 176.467 78.0273 176.822C78.9912 176.974 80.361 176.923 81.122 176.771C82.3903 176.416 82.441 176.264 82.1874 174.285C81.5786 170.075 80.8176 168.4 79.2956 167.589C78.4839 167.183 77.723 166.828 77.5708 166.828C77.4693 166.828 76.3025 168.045 74.9834 169.466Z" fill="#FF7A00"/>
<path d="M75.7955 210.153C75.1868 211.066 74.7302 212.182 74.7302 212.588C74.7302 213.045 75.4912 215.784 76.4551 218.676C77.419 221.618 78.4843 225.423 78.8395 227.148C79.499 230.141 79.4482 230.395 78.5351 231.054C77.977 231.46 76.3536 231.765 74.6287 231.765C72.1429 231.765 71.4326 231.968 70.418 233.033C68.7946 234.606 68.8453 235.011 70.5702 236.331C71.7877 237.345 72.3458 237.447 75.4404 237.193C80.5643 236.736 80.6658 236.838 81.0717 243.281C81.4268 248.405 82.4414 252.565 83.3546 252.565C83.5575 252.565 84.1663 251.956 84.6229 251.195C85.3839 250.028 85.4853 249.064 85.2317 244.346C84.978 239.171 85.0287 238.766 86.0434 237.65C86.6522 236.99 88.1234 236.229 89.2902 235.874C91.979 235.113 93.9576 233.591 93.1966 232.779C92.8922 232.475 91.0151 232.069 88.9858 231.917C87.0073 231.765 85.0287 231.359 84.6229 231.054C84.1156 230.699 83.6083 228.467 83.0502 224.409C82.0863 216.697 81.0209 211.573 80.26 210.609C79.9048 210.204 78.9917 209.544 78.2307 209.138C76.8609 208.479 76.8102 208.479 75.7955 210.153Z" fill="#FF7A00"/>
<path d="M88.5801 271.437C88.3265 271.792 87.8191 274.379 87.5147 277.17C86.6523 284.069 84.9782 292.136 84.065 293.505C83.6591 294.165 82.746 295.027 82.0357 295.535C80.8181 296.296 80.5645 296.296 79.3977 295.636C78.6367 295.23 77.5206 294.114 76.9118 293.201C75.9479 291.73 75.7957 291.07 76.0494 288.99C76.5059 285.591 75.4913 282.04 73.8172 281.431C72.0923 280.772 71.382 281.127 70.3674 283.105C69.7079 284.424 69.5557 285.591 69.8093 289.142C69.9615 291.527 70.4181 294.266 70.824 295.23C72.6503 299.593 76.5567 302.231 81.0718 302.282C84.3694 302.282 86.6016 300.811 88.8845 297.006C91.5226 292.643 92.5372 288.331 92.8416 280.467C93.0953 273.974 93.0445 273.568 91.9792 272.198C90.8123 270.727 89.3918 270.422 88.5801 271.437Z" fill="#FF7A00"/>
<path d="M85.6886 312.175C83.2027 313.037 78.992 317.096 77.7237 319.784C76.5061 322.372 76.5061 326.278 77.7237 328.916C78.2817 330.184 80.3617 332.569 83.1012 335.004C91.0154 342.208 98.0164 349.107 99.4369 351.086C101.06 353.521 101.213 355.855 99.6906 357.072C99.0818 357.58 95.5813 358.949 91.8779 360.116C84.1159 362.602 79.4486 363.16 74.1217 362.146C71.0271 361.537 70.5198 361.588 69.8602 362.247C68.7441 363.363 69.3529 364.936 71.4837 366.255C73.1071 367.219 73.7666 367.32 79.1949 367.117C84.0652 366.914 86.551 366.508 92.994 364.784C104.916 361.588 107.199 360.218 107.199 356.464C107.199 354.13 104.256 348.245 101.568 345.049C100.35 343.628 96.951 340.382 94.0086 337.896C88.1237 332.924 84.1666 328.865 83.3042 326.938C82.9998 326.278 82.8476 325.061 83.0505 324.35C83.3549 323.183 83.6086 323.031 84.5217 323.336C85.1305 323.539 86.5003 323.792 87.5657 323.944C89.3413 324.198 89.4935 324.097 90.2544 322.321C92.0301 318.06 91.6242 313.088 89.392 311.921C88.2759 311.312 88.1237 311.312 85.6886 312.175Z" fill="#FF7A00"/>
</svg>
