   <svg
          width="258"
          height="90"
          viewBox="0 0 258 90"
          fill="none"
          xmlns="http://www.w3.org/2000/svg"
        >
          <path
            opacity="0.5"
            d="M73.1492 30H22.8577C22.2197 29.9997 21.5879 30.1251 20.9984 30.3691C20.4089 30.6131 19.8733 30.9709 19.4221 31.422C18.971 31.873 18.6132 32.4086 18.3692 32.9981C18.1251 33.5875 17.9997 34.2192 18 34.8572V85.1428C18 86.431 18.5118 87.6665 19.4228 88.5774C20.3338 89.4883 21.5694 90 22.8577 90H73.1492C74.4361 89.9976 75.6696 89.4848 76.579 88.5743C77.4884 87.6637 77.9994 86.4296 78 85.1428V34.8572C78 33.5702 77.4892 32.3358 76.5796 31.4251C75.6701 30.5144 74.4363 30.0018 73.1492 30ZM71.6326 41.2882V49.6906C71.6329 50.0087 71.5704 50.3237 71.4488 50.6177C71.3272 50.9116 71.1488 51.1787 70.9239 51.4037C70.6989 51.6286 70.4318 51.807 70.1378 51.9286C69.8438 52.0501 69.5287 52.1126 69.2106 52.1123H69.1325C68.4909 52.1111 67.8761 51.8554 67.4229 51.4014C66.9696 50.9473 66.7151 50.3321 66.7151 49.6906V44.8656L57.9602 53.6218L51.5881 59.9908L59.9478 68.3702L66.7151 75.1229V70.2979C66.7151 69.6556 66.9703 69.0397 67.4245 68.5855C67.8787 68.1314 68.4947 67.8762 69.1371 67.8762H69.2152C69.5333 67.8759 69.8484 67.9384 70.1424 68.06C70.4364 68.1815 70.7035 68.3599 70.9285 68.5849C71.1534 68.8098 71.3318 69.0769 71.4534 69.3708C71.575 69.6648 71.6375 69.9798 71.6372 70.2979V81.2001C71.6372 81.8424 71.382 82.4584 70.9278 82.9125C70.4736 83.3667 69.8575 83.6218 69.2152 83.6218H58.3072C57.6648 83.6218 57.0488 83.3667 56.5946 82.9125C56.1404 82.4584 55.8852 81.8424 55.8852 81.2001V81.122C55.8876 80.4813 56.1439 79.8677 56.5978 79.4155C57.0518 78.9634 57.6664 78.7095 58.3072 78.7095H63.1327L56.1632 71.7408L48.0035 63.5843L39.6392 71.9476L32.8719 78.7095H37.6974C38.3398 78.7095 38.9558 78.9646 39.41 79.4188C39.8642 79.873 40.1194 80.4889 40.1194 81.1312V81.2093C40.1191 81.5274 40.0561 81.8423 39.9339 82.1361C39.8117 82.4298 39.6328 82.6965 39.4075 82.921C39.1821 83.1455 38.9146 83.3234 38.6204 83.4444C38.3262 83.5655 38.011 83.6273 37.6929 83.6264H26.7871C26.469 83.6264 26.1541 83.5638 25.8603 83.4421C25.5664 83.3204 25.2994 83.142 25.0745 82.9171C24.6203 82.463 24.3651 81.847 24.3651 81.2047V70.3025C24.3651 69.6602 24.6203 69.0443 25.0745 68.5901C25.5287 68.136 26.1448 67.8808 26.7871 67.8808H26.8675C27.5099 67.8808 28.1259 68.136 28.5801 68.5901C29.0343 69.0443 29.2895 69.6602 29.2895 70.3025V75.1275L36.259 68.1588L44.4256 59.9954L37.2677 52.8498L29.2895 44.8702V49.6952C29.2883 50.3367 29.0326 50.9514 28.5785 51.4046C28.1244 51.8578 27.5091 52.1123 26.8675 52.1123H26.7871C26.469 52.1123 26.1541 52.0496 25.8603 51.9279C25.5664 51.8062 25.2994 51.6279 25.0745 51.403C24.6203 50.9488 24.3651 50.3329 24.3651 49.6906V38.7861C24.3651 38.4681 24.4278 38.1532 24.5495 37.8594C24.6712 37.5655 24.8496 37.2986 25.0745 37.0737C25.5287 36.6195 26.1448 36.3644 26.7871 36.3644H37.6929C38.0109 36.3644 38.3259 36.427 38.6197 36.5487C38.9135 36.6704 39.1805 36.8488 39.4054 37.0737C39.6303 37.2986 39.8087 37.5655 39.9305 37.8594C40.0522 38.1532 40.1148 38.4681 40.1148 38.7861V38.8665C40.1148 39.1845 40.0522 39.4994 39.9305 39.7932C39.8087 40.0871 39.6303 40.354 39.4054 40.5789C39.1805 40.8038 38.9135 40.9822 38.6197 41.1039C38.3259 41.2256 38.0109 41.2882 37.6929 41.2882H32.8673L41.6245 50.0421L47.9989 56.4226L55.1476 49.2747L63.1281 41.2974H58.3026C57.6602 41.2974 57.0442 41.0422 56.59 40.5881C56.1358 40.1339 55.8806 39.518 55.8806 38.8757V38.7953C55.8794 38.4761 55.9413 38.1598 56.0627 37.8647C56.1842 37.5695 56.3628 37.3012 56.5883 37.0753C56.8138 36.8494 57.0818 36.6703 57.3768 36.5483C57.6717 36.4263 57.9879 36.3638 58.3072 36.3644H69.2106C69.5287 36.3644 69.8436 36.427 70.1375 36.5487C70.4313 36.6704 70.6983 36.8488 70.9232 37.0737C71.1481 37.2986 71.3265 37.5655 71.4482 37.8594C71.5699 38.1532 71.6326 38.4681 71.6326 38.7861V41.2882Z"
            fill="#DF01E5"
          />
          <path
            opacity="0.5"
            d="M55.1492 5.43994e-07H4.85772C4.21971 -0.000301438 3.5879 0.125127 2.9984 0.369115C2.40889 0.613104 1.87326 0.970868 1.42212 1.42196C0.97098 1.87305 0.613174 2.40862 0.369158 2.99805C0.125141 3.58749 -0.000301473 4.21923 5.44056e-07 4.85716V55.1428C5.44056e-07 56.431 0.511795 57.6665 1.42279 58.5774C2.33379 59.4883 3.56938 60 4.85772 60H55.1492C56.4361 59.9976 57.6696 59.4848 58.579 58.5743C59.4884 57.6637 59.9994 56.4296 60 55.1428V4.85716C60 3.57016 59.4892 2.33576 58.5796 1.42507C57.6701 0.514369 56.4363 0.00182695 55.1492 5.43994e-07ZM53.6326 11.2882V19.6906C53.6329 20.0087 53.5704 20.3237 53.4488 20.6177C53.3272 20.9116 53.1488 21.1787 52.9239 21.4037C52.6989 21.6286 52.4318 21.807 52.1378 21.9286C51.8438 22.0501 51.5287 22.1126 51.2106 22.1123H51.1325C50.4909 22.1111 49.8761 21.8554 49.4229 21.4014C48.9696 20.9473 48.7151 20.3321 48.7151 19.6906V14.8656L39.9602 23.6218L33.5881 29.9908L41.9478 38.3702L48.7151 45.1229V40.2979C48.7151 39.6556 48.9703 39.0397 49.4245 38.5855C49.8787 38.1314 50.4947 37.8762 51.1371 37.8762H51.2152C51.5333 37.8759 51.8484 37.9384 52.1424 38.06C52.4364 38.1815 52.7035 38.3599 52.9285 38.5849C53.1534 38.8098 53.3318 39.0769 53.4534 39.3708C53.575 39.6648 53.6375 39.9798 53.6372 40.2979V51.2001C53.6372 51.8424 53.382 52.4584 52.9278 52.9125C52.4736 53.3667 51.8575 53.6218 51.2152 53.6218H40.3072C39.6648 53.6218 39.0488 53.3667 38.5946 52.9125C38.1404 52.4584 37.8852 51.8424 37.8852 51.2001V51.122C37.8876 50.4813 38.1439 49.8677 38.5978 49.4155C39.0518 48.9634 39.6664 48.7095 40.3072 48.7095H45.1327L38.1632 41.7408L30.0035 33.5843L21.6392 41.9476L14.8719 48.7095H19.6974C20.3398 48.7095 20.9558 48.9646 21.41 49.4188C21.8642 49.873 22.1194 50.4889 22.1194 51.1312V51.2093C22.1191 51.5274 22.0561 51.8423 21.9339 52.1361C21.8117 52.4298 21.6328 52.6965 21.4075 52.921C21.1821 53.1455 20.9146 53.3234 20.6204 53.4444C20.3262 53.5655 20.011 53.6273 19.6929 53.6264H8.7871C8.46905 53.6264 8.1541 53.5638 7.86026 53.4421C7.56641 53.3204 7.29941 53.142 7.07451 52.9171C6.62031 52.463 6.36513 51.847 6.36513 51.2047V40.3025C6.36513 39.6602 6.62031 39.0443 7.07451 38.5901C7.52872 38.136 8.14476 37.8808 8.7871 37.8808H8.86753C9.50987 37.8808 10.1259 38.136 10.5801 38.5901C11.0343 39.0443 11.2895 39.6602 11.2895 40.3025V45.1275L18.259 38.1588L26.4256 29.9954L19.2677 22.8498L11.2895 14.8702V19.6952C11.2883 20.3367 11.0326 20.9514 10.5785 21.4046C10.1244 21.8578 9.50908 22.1123 8.86753 22.1123H8.7871C8.46905 22.1123 8.1541 22.0496 7.86026 21.9279C7.56641 21.8062 7.29941 21.6279 7.07451 21.403C6.62031 20.9488 6.36513 20.3329 6.36513 19.6906V8.78609C6.36513 8.46807 6.42778 8.15316 6.5495 7.85935C6.67121 7.56554 6.84961 7.29857 7.07451 7.0737C7.52872 6.61954 8.14476 6.3644 8.7871 6.3644H19.6929C20.0109 6.3644 20.3259 6.42704 20.6197 6.54874C20.9135 6.67044 21.1805 6.84882 21.4054 7.0737C21.6303 7.29857 21.8087 7.56554 21.9305 7.85935C22.0522 8.15316 22.1148 8.46807 22.1148 8.78609V8.86651C22.1148 9.18453 22.0522 9.49944 21.9305 9.79325C21.8087 10.0871 21.6303 10.354 21.4054 10.5789C21.1805 10.8038 20.9135 10.9822 20.6197 11.1039C20.3259 11.2256 20.0109 11.2882 19.6929 11.2882H14.8673L23.6245 20.0421L29.9989 26.4226L37.1476 19.2747L45.1281 11.2974H40.3026C39.6602 11.2974 39.0442 11.0422 38.59 10.5881C38.1358 10.1339 37.8806 9.51797 37.8806 8.8757V8.79528C37.8794 8.4761 37.9413 8.15983 38.0627 7.86466C38.1842 7.56948 38.3628 7.30122 38.5883 7.07531C38.8138 6.84941 39.0818 6.6703 39.3768 6.54829C39.6717 6.42629 39.9879 6.36379 40.3072 6.3644H51.2106C51.5287 6.3644 51.8436 6.42704 52.1375 6.54874C52.4313 6.67044 52.6983 6.84882 52.9232 7.0737C53.1481 7.29857 53.3265 7.56554 53.4482 7.85935C53.5699 8.15316 53.6326 8.46807 53.6326 8.78609V11.2882Z"
            fill="#DF01E5"
          />
          <path
            opacity="0.5"
            d="M158.149 30H107.858C107.22 29.9997 106.588 30.1251 105.998 30.3691C105.409 30.6131 104.873 30.9709 104.422 31.422C103.971 31.873 103.613 32.4086 103.369 32.9981C103.125 33.5875 103 34.2192 103 34.8572V85.1428C103 86.431 103.512 87.6665 104.423 88.5774C105.334 89.4883 106.569 90 107.858 90H158.149C159.436 89.9976 160.67 89.4848 161.579 88.5743C162.488 87.6637 162.999 86.4296 163 85.1428V34.8572C163 33.5702 162.489 32.3358 161.58 31.4251C160.67 30.5144 159.436 30.0018 158.149 30ZM156.633 41.2882V49.6906C156.633 50.0087 156.57 50.3237 156.449 50.6177C156.327 50.9116 156.149 51.1787 155.924 51.4037C155.699 51.6286 155.432 51.807 155.138 51.9286C154.844 52.0501 154.529 52.1126 154.211 52.1123H154.132C153.491 52.1111 152.876 51.8554 152.423 51.4014C151.97 50.9473 151.715 50.3321 151.715 49.6906V44.8656L142.96 53.6218L136.588 59.9908L144.948 68.3702L151.715 75.1229V70.2979C151.715 69.6556 151.97 69.0397 152.424 68.5855C152.879 68.1314 153.495 67.8762 154.137 67.8762H154.215C154.533 67.8759 154.848 67.9384 155.142 68.06C155.436 68.1815 155.704 68.3599 155.928 68.5849C156.153 68.8098 156.332 69.0769 156.453 69.3708C156.575 69.6648 156.637 69.9798 156.637 70.2979V81.2001C156.637 81.8424 156.382 82.4584 155.928 82.9125C155.474 83.3667 154.858 83.6218 154.215 83.6218H143.307C142.665 83.6218 142.049 83.3667 141.595 82.9125C141.14 82.4584 140.885 81.8424 140.885 81.2001V81.122C140.888 80.4813 141.144 79.8677 141.598 79.4155C142.052 78.9634 142.666 78.7095 143.307 78.7095H148.133L141.163 71.7408L133.003 63.5843L124.639 71.9476L117.872 78.7095H122.697C123.34 78.7095 123.956 78.9646 124.41 79.4188C124.864 79.873 125.119 80.4889 125.119 81.1312V81.2093C125.119 81.5274 125.056 81.8423 124.934 82.1361C124.812 82.4298 124.633 82.6965 124.407 82.921C124.182 83.1455 123.915 83.3234 123.62 83.4444C123.326 83.5655 123.011 83.6273 122.693 83.6264H111.787C111.469 83.6264 111.154 83.5638 110.86 83.4421C110.566 83.3204 110.299 83.142 110.075 82.9171C109.62 82.463 109.365 81.847 109.365 81.2047V70.3025C109.365 69.6602 109.62 69.0443 110.075 68.5901C110.529 68.136 111.145 67.8808 111.787 67.8808H111.868C112.51 67.8808 113.126 68.136 113.58 68.5901C114.034 69.0443 114.289 69.6602 114.289 70.3025V75.1275L121.259 68.1588L129.426 59.9954L122.268 52.8498L114.289 44.8702V49.6952C114.288 50.3367 114.033 50.9514 113.578 51.4046C113.124 51.8578 112.509 52.1123 111.868 52.1123H111.787C111.469 52.1123 111.154 52.0496 110.86 51.9279C110.566 51.8062 110.299 51.6279 110.075 51.403C109.62 50.9488 109.365 50.3329 109.365 49.6906V38.7861C109.365 38.4681 109.428 38.1532 109.549 37.8594C109.671 37.5655 109.85 37.2986 110.075 37.0737C110.529 36.6195 111.145 36.3644 111.787 36.3644H122.693C123.011 36.3644 123.326 36.427 123.62 36.5487C123.914 36.6704 124.181 36.8488 124.405 37.0737C124.63 37.2986 124.809 37.5655 124.93 37.8594C125.052 38.1532 125.115 38.4681 125.115 38.7861V38.8665C125.115 39.1845 125.052 39.4994 124.93 39.7932C124.809 40.0871 124.63 40.354 124.405 40.5789C124.181 40.8038 123.914 40.9822 123.62 41.1039C123.326 41.2256 123.011 41.2882 122.693 41.2882H117.867L126.625 50.0421L132.999 56.4226L140.148 49.2747L148.128 41.2974H143.303C142.66 41.2974 142.044 41.0422 141.59 40.5881C141.136 40.1339 140.881 39.518 140.881 38.8757V38.7953C140.879 38.4761 140.941 38.1598 141.063 37.8647C141.184 37.5695 141.363 37.3012 141.588 37.0753C141.814 36.8494 142.082 36.6703 142.377 36.5483C142.672 36.4263 142.988 36.3638 143.307 36.3644H154.211C154.529 36.3644 154.844 36.427 155.137 36.5487C155.431 36.6704 155.698 36.8488 155.923 37.0737C156.148 37.2986 156.326 37.5655 156.448 37.8594C156.57 38.1532 156.633 38.4681 156.633 38.7861V41.2882Z"
            fill="#DF01E5"
          />
          <path
            opacity="0.5"
            d="M140.149 5.43994e-07H89.8577C89.2197 -0.000301438 88.5879 0.125127 87.9984 0.369115C87.4089 0.613104 86.8733 0.970868 86.4221 1.42196C85.971 1.87305 85.6132 2.40862 85.3692 2.99805C85.1251 3.58749 84.9997 4.21923 85 4.85716V55.1428C85 56.431 85.5118 57.6665 86.4228 58.5774C87.3338 59.4883 88.5694 60 89.8577 60H140.149C141.436 59.9976 142.67 59.4848 143.579 58.5743C144.488 57.6637 144.999 56.4296 145 55.1428V4.85716C145 3.57016 144.489 2.33576 143.58 1.42507C142.67 0.514369 141.436 0.00182695 140.149 5.43994e-07ZM138.633 11.2882V19.6906C138.633 20.0087 138.57 20.3237 138.449 20.6177C138.327 20.9116 138.149 21.1787 137.924 21.4037C137.699 21.6286 137.432 21.807 137.138 21.9286C136.844 22.0501 136.529 22.1126 136.211 22.1123H136.132C135.491 22.1111 134.876 21.8554 134.423 21.4014C133.97 20.9473 133.715 20.3321 133.715 19.6906V14.8656L124.96 23.6218L118.588 29.9908L126.948 38.3702L133.715 45.1229V40.2979C133.715 39.6556 133.97 39.0397 134.424 38.5855C134.879 38.1314 135.495 37.8762 136.137 37.8762H136.215C136.533 37.8759 136.848 37.9384 137.142 38.06C137.436 38.1815 137.704 38.3599 137.928 38.5849C138.153 38.8098 138.332 39.0769 138.453 39.3708C138.575 39.6648 138.637 39.9798 138.637 40.2979V51.2001C138.637 51.8424 138.382 52.4584 137.928 52.9125C137.474 53.3667 136.858 53.6218 136.215 53.6218H125.307C124.665 53.6218 124.049 53.3667 123.595 52.9125C123.14 52.4584 122.885 51.8424 122.885 51.2001V51.122C122.888 50.4813 123.144 49.8677 123.598 49.4155C124.052 48.9634 124.666 48.7095 125.307 48.7095H130.133L123.163 41.7408L115.003 33.5843L106.639 41.9476L99.8719 48.7095H104.697C105.34 48.7095 105.956 48.9646 106.41 49.4188C106.864 49.873 107.119 50.4889 107.119 51.1312V51.2093C107.119 51.5274 107.056 51.8423 106.934 52.1361C106.812 52.4298 106.633 52.6965 106.407 52.921C106.182 53.1455 105.915 53.3234 105.62 53.4444C105.326 53.5655 105.011 53.6273 104.693 53.6264H93.7871C93.469 53.6264 93.1541 53.5638 92.8603 53.4421C92.5664 53.3204 92.2994 53.142 92.0745 52.9171C91.6203 52.463 91.3651 51.847 91.3651 51.2047V40.3025C91.3651 39.6602 91.6203 39.0443 92.0745 38.5901C92.5287 38.136 93.1448 37.8808 93.7871 37.8808H93.8675C94.5099 37.8808 95.1259 38.136 95.5801 38.5901C96.0343 39.0443 96.2895 39.6602 96.2895 40.3025V45.1275L103.259 38.1588L111.426 29.9954L104.268 22.8498L96.2895 14.8702V19.6952C96.2883 20.3367 96.0326 20.9514 95.5785 21.4046C95.1244 21.8578 94.5091 22.1123 93.8675 22.1123H93.7871C93.469 22.1123 93.1541 22.0496 92.8603 21.9279C92.5664 21.8062 92.2994 21.6279 92.0745 21.403C91.6203 20.9488 91.3651 20.3329 91.3651 19.6906V8.78609C91.3651 8.46807 91.4278 8.15316 91.5495 7.85935C91.6712 7.56554 91.8496 7.29857 92.0745 7.0737C92.5287 6.61954 93.1448 6.3644 93.7871 6.3644H104.693C105.011 6.3644 105.326 6.42704 105.62 6.54874C105.914 6.67044 106.181 6.84882 106.405 7.0737C106.63 7.29857 106.809 7.56554 106.93 7.85935C107.052 8.15316 107.115 8.46807 107.115 8.78609V8.86651C107.115 9.18453 107.052 9.49944 106.93 9.79325C106.809 10.0871 106.63 10.354 106.405 10.5789C106.181 10.8038 105.914 10.9822 105.62 11.1039C105.326 11.2256 105.011 11.2882 104.693 11.2882H99.8673L108.625 20.0421L114.999 26.4226L122.148 19.2747L130.128 11.2974H125.303C124.66 11.2974 124.044 11.0422 123.59 10.5881C123.136 10.1339 122.881 9.51797 122.881 8.8757V8.79528C122.879 8.4761 122.941 8.15983 123.063 7.86466C123.184 7.56948 123.363 7.30122 123.588 7.07531C123.814 6.84941 124.082 6.6703 124.377 6.54829C124.672 6.42629 124.988 6.36379 125.307 6.3644H136.211C136.529 6.3644 136.844 6.42704 137.137 6.54874C137.431 6.67044 137.698 6.84882 137.923 7.0737C138.148 7.29857 138.326 7.56554 138.448 7.85935C138.57 8.15316 138.633 8.46807 138.633 8.78609V11.2882Z"
            fill="#DF01E5"
          />
          <path
            opacity="0.5"
            d="M243.149 30H192.858C192.22 29.9997 191.588 30.1251 190.998 30.3691C190.409 30.6131 189.873 30.9709 189.422 31.422C188.971 31.873 188.613 32.4086 188.369 32.9981C188.125 33.5875 188 34.2192 188 34.8572V85.1428C188 86.431 188.512 87.6665 189.423 88.5774C190.334 89.4883 191.569 90 192.858 90H243.149C244.436 89.9976 245.67 89.4848 246.579 88.5743C247.488 87.6637 247.999 86.4296 248 85.1428V34.8572C248 33.5702 247.489 32.3358 246.58 31.4251C245.67 30.5144 244.436 30.0018 243.149 30ZM241.633 41.2882V49.6906C241.633 50.0087 241.57 50.3237 241.449 50.6177C241.327 50.9116 241.149 51.1787 240.924 51.4037C240.699 51.6286 240.432 51.807 240.138 51.9286C239.844 52.0501 239.529 52.1126 239.211 52.1123H239.132C238.491 52.1111 237.876 51.8554 237.423 51.4014C236.97 50.9473 236.715 50.3321 236.715 49.6906V44.8656L227.96 53.6218L221.588 59.9908L229.948 68.3702L236.715 75.1229V70.2979C236.715 69.6556 236.97 69.0397 237.424 68.5855C237.879 68.1314 238.495 67.8762 239.137 67.8762H239.215C239.533 67.8759 239.848 67.9384 240.142 68.06C240.436 68.1815 240.704 68.3599 240.928 68.5849C241.153 68.8098 241.332 69.0769 241.453 69.3708C241.575 69.6648 241.637 69.9798 241.637 70.2979V81.2001C241.637 81.8424 241.382 82.4584 240.928 82.9125C240.474 83.3667 239.858 83.6218 239.215 83.6218H228.307C227.665 83.6218 227.049 83.3667 226.595 82.9125C226.14 82.4584 225.885 81.8424 225.885 81.2001V81.122C225.888 80.4813 226.144 79.8677 226.598 79.4155C227.052 78.9634 227.666 78.7095 228.307 78.7095H233.133L226.163 71.7408L218.003 63.5843L209.639 71.9476L202.872 78.7095H207.697C208.34 78.7095 208.956 78.9646 209.41 79.4188C209.864 79.873 210.119 80.4889 210.119 81.1312V81.2093C210.119 81.5274 210.056 81.8423 209.934 82.1361C209.812 82.4298 209.633 82.6965 209.407 82.921C209.182 83.1455 208.915 83.3234 208.62 83.4444C208.326 83.5655 208.011 83.6273 207.693 83.6264H196.787C196.469 83.6264 196.154 83.5638 195.86 83.4421C195.566 83.3204 195.299 83.142 195.075 82.9171C194.62 82.463 194.365 81.847 194.365 81.2047V70.3025C194.365 69.6602 194.62 69.0443 195.075 68.5901C195.529 68.136 196.145 67.8808 196.787 67.8808H196.868C197.51 67.8808 198.126 68.136 198.58 68.5901C199.034 69.0443 199.289 69.6602 199.289 70.3025V75.1275L206.259 68.1588L214.426 59.9954L207.268 52.8498L199.289 44.8702V49.6952C199.288 50.3367 199.033 50.9514 198.578 51.4046C198.124 51.8578 197.509 52.1123 196.868 52.1123H196.787C196.469 52.1123 196.154 52.0496 195.86 51.9279C195.566 51.8062 195.299 51.6279 195.075 51.403C194.62 50.9488 194.365 50.3329 194.365 49.6906V38.7861C194.365 38.4681 194.428 38.1532 194.549 37.8594C194.671 37.5655 194.85 37.2986 195.075 37.0737C195.529 36.6195 196.145 36.3644 196.787 36.3644H207.693C208.011 36.3644 208.326 36.427 208.62 36.5487C208.914 36.6704 209.181 36.8488 209.405 37.0737C209.63 37.2986 209.809 37.5655 209.93 37.8594C210.052 38.1532 210.115 38.4681 210.115 38.7861V38.8665C210.115 39.1845 210.052 39.4994 209.93 39.7932C209.809 40.0871 209.63 40.354 209.405 40.5789C209.181 40.8038 208.914 40.9822 208.62 41.1039C208.326 41.2256 208.011 41.2882 207.693 41.2882H202.867L211.625 50.0421L217.999 56.4226L225.148 49.2747L233.128 41.2974H228.303C227.66 41.2974 227.044 41.0422 226.59 40.5881C226.136 40.1339 225.881 39.518 225.881 38.8757V38.7953C225.879 38.4761 225.941 38.1598 226.063 37.8647C226.184 37.5695 226.363 37.3012 226.588 37.0753C226.814 36.8494 227.082 36.6703 227.377 36.5483C227.672 36.4263 227.988 36.3638 228.307 36.3644H239.211C239.529 36.3644 239.844 36.427 240.137 36.5487C240.431 36.6704 240.698 36.8488 240.923 37.0737C241.148 37.2986 241.326 37.5655 241.448 37.8594C241.57 38.1532 241.633 38.4681 241.633 38.7861V41.2882Z"
            fill="#DF01E5"
          />
          <path
            opacity="0.5"
            d="M225.149 5.43994e-07H174.858C174.22 -0.000301438 173.588 0.125127 172.998 0.369115C172.409 0.613104 171.873 0.970868 171.422 1.42196C170.971 1.87305 170.613 2.40862 170.369 2.99805C170.125 3.58749 170 4.21923 170 4.85716V55.1428C170 56.431 170.512 57.6665 171.423 58.5774C172.334 59.4883 173.569 60 174.858 60H225.149C226.436 59.9976 227.67 59.4848 228.579 58.5743C229.488 57.6637 229.999 56.4296 230 55.1428V4.85716C230 3.57016 229.489 2.33576 228.58 1.42507C227.67 0.514369 226.436 0.00182695 225.149 5.43994e-07ZM223.633 11.2882V19.6906C223.633 20.0087 223.57 20.3237 223.449 20.6177C223.327 20.9116 223.149 21.1787 222.924 21.4037C222.699 21.6286 222.432 21.807 222.138 21.9286C221.844 22.0501 221.529 22.1126 221.211 22.1123H221.132C220.491 22.1111 219.876 21.8554 219.423 21.4014C218.97 20.9473 218.715 20.3321 218.715 19.6906V14.8656L209.96 23.6218L203.588 29.9908L211.948 38.3702L218.715 45.1229V40.2979C218.715 39.6556 218.97 39.0397 219.424 38.5855C219.879 38.1314 220.495 37.8762 221.137 37.8762H221.215C221.533 37.8759 221.848 37.9384 222.142 38.06C222.436 38.1815 222.704 38.3599 222.928 38.5849C223.153 38.8098 223.332 39.0769 223.453 39.3708C223.575 39.6648 223.637 39.9798 223.637 40.2979V51.2001C223.637 51.8424 223.382 52.4584 222.928 52.9125C222.474 53.3667 221.858 53.6218 221.215 53.6218H210.307C209.665 53.6218 209.049 53.3667 208.595 52.9125C208.14 52.4584 207.885 51.8424 207.885 51.2001V51.122C207.888 50.4813 208.144 49.8677 208.598 49.4155C209.052 48.9634 209.666 48.7095 210.307 48.7095H215.133L208.163 41.7408L200.003 33.5843L191.639 41.9476L184.872 48.7095H189.697C190.34 48.7095 190.956 48.9646 191.41 49.4188C191.864 49.873 192.119 50.4889 192.119 51.1312V51.2093C192.119 51.5274 192.056 51.8423 191.934 52.1361C191.812 52.4298 191.633 52.6965 191.407 52.921C191.182 53.1455 190.915 53.3234 190.62 53.4444C190.326 53.5655 190.011 53.6273 189.693 53.6264H178.787C178.469 53.6264 178.154 53.5638 177.86 53.4421C177.566 53.3204 177.299 53.142 177.075 52.9171C176.62 52.463 176.365 51.847 176.365 51.2047V40.3025C176.365 39.6602 176.62 39.0443 177.075 38.5901C177.529 38.136 178.145 37.8808 178.787 37.8808H178.868C179.51 37.8808 180.126 38.136 180.58 38.5901C181.034 39.0443 181.289 39.6602 181.289 40.3025V45.1275L188.259 38.1588L196.426 29.9954L189.268 22.8498L181.289 14.8702V19.6952C181.288 20.3367 181.033 20.9514 180.578 21.4046C180.124 21.8578 179.509 22.1123 178.868 22.1123H178.787C178.469 22.1123 178.154 22.0496 177.86 21.9279C177.566 21.8062 177.299 21.6279 177.075 21.403C176.62 20.9488 176.365 20.3329 176.365 19.6906V8.78609C176.365 8.46807 176.428 8.15316 176.549 7.85935C176.671 7.56554 176.85 7.29857 177.075 7.0737C177.529 6.61954 178.145 6.3644 178.787 6.3644H189.693C190.011 6.3644 190.326 6.42704 190.62 6.54874C190.914 6.67044 191.181 6.84882 191.405 7.0737C191.63 7.29857 191.809 7.56554 191.93 7.85935C192.052 8.15316 192.115 8.46807 192.115 8.78609V8.86651C192.115 9.18453 192.052 9.49944 191.93 9.79325C191.809 10.0871 191.63 10.354 191.405 10.5789C191.181 10.8038 190.914 10.9822 190.62 11.1039C190.326 11.2256 190.011 11.2882 189.693 11.2882H184.867L193.625 20.0421L199.999 26.4226L207.148 19.2747L215.128 11.2974H210.303C209.66 11.2974 209.044 11.0422 208.59 10.5881C208.136 10.1339 207.881 9.51797 207.881 8.8757V8.79528C207.879 8.4761 207.941 8.15983 208.063 7.86466C208.184 7.56948 208.363 7.30122 208.588 7.07531C208.814 6.84941 209.082 6.6703 209.377 6.54829C209.672 6.42629 209.988 6.36379 210.307 6.3644H221.211C221.529 6.3644 221.844 6.42704 222.137 6.54874C222.431 6.67044 222.698 6.84882 222.923 7.0737C223.148 7.29857 223.326 7.56554 223.448 7.85935C223.57 8.15316 223.633 8.46807 223.633 8.78609V11.2882Z"
            fill="#DF01E5"
          />
          <path
            opacity="0.5"
            d="M83.1492 19H32.8577C32.2197 18.9997 31.5879 19.1251 30.9984 19.3691C30.4089 19.6131 29.8733 19.9709 29.4221 20.422C28.971 20.873 28.6132 21.4086 28.3692 21.9981C28.1251 22.5875 27.9997 23.2192 28 23.8572V74.1428C28 75.431 28.5118 76.6665 29.4228 77.5774C30.3338 78.4883 31.5694 79 32.8577 79H83.1492C84.4361 78.9976 85.6696 78.4848 86.579 77.5743C87.4884 76.6637 87.9994 75.4296 88 74.1428V23.8572C88 22.5702 87.4892 21.3358 86.5796 20.4251C85.6701 19.5144 84.4363 19.0018 83.1492 19ZM81.6326 30.2882V38.6906C81.6329 39.0087 81.5704 39.3237 81.4488 39.6177C81.3272 39.9116 81.1488 40.1787 80.9239 40.4037C80.6989 40.6286 80.4318 40.807 80.1378 40.9286C79.8438 41.0501 79.5287 41.1126 79.2106 41.1123H79.1325C78.4909 41.1111 77.8761 40.8554 77.4229 40.4014C76.9696 39.9473 76.7151 39.3321 76.7151 38.6906V33.8656L67.9602 42.6218L61.5881 48.9908L69.9478 57.3702L76.7151 64.1229V59.2979C76.7151 58.6556 76.9703 58.0397 77.4245 57.5855C77.8787 57.1314 78.4947 56.8762 79.1371 56.8762H79.2152C79.5333 56.8759 79.8484 56.9384 80.1424 57.06C80.4364 57.1815 80.7035 57.3599 80.9285 57.5849C81.1534 57.8098 81.3318 58.0769 81.4534 58.3708C81.575 58.6648 81.6375 58.9798 81.6372 59.2979V70.2001C81.6372 70.8424 81.382 71.4584 80.9278 71.9125C80.4736 72.3667 79.8575 72.6218 79.2152 72.6218H68.3072C67.6648 72.6218 67.0488 72.3667 66.5946 71.9125C66.1404 71.4584 65.8852 70.8424 65.8852 70.2001V70.122C65.8876 69.4813 66.1439 68.8677 66.5978 68.4155C67.0518 67.9634 67.6664 67.7095 68.3072 67.7095H73.1327L66.1632 60.7408L58.0035 52.5843L49.6392 60.9476L42.8719 67.7095H47.6974C48.3398 67.7095 48.9558 67.9646 49.41 68.4188C49.8642 68.873 50.1194 69.4889 50.1194 70.1312V70.2093C50.1191 70.5274 50.0561 70.8423 49.9339 71.1361C49.8117 71.4298 49.6328 71.6965 49.4075 71.921C49.1821 72.1455 48.9146 72.3234 48.6204 72.4444C48.3262 72.5655 48.011 72.6273 47.6929 72.6264H36.7871C36.469 72.6264 36.1541 72.5638 35.8603 72.4421C35.5664 72.3204 35.2994 72.142 35.0745 71.9171C34.6203 71.463 34.3651 70.847 34.3651 70.2047V59.3025C34.3651 58.6602 34.6203 58.0443 35.0745 57.5901C35.5287 57.136 36.1448 56.8808 36.7871 56.8808H36.8675C37.5099 56.8808 38.1259 57.136 38.5801 57.5901C39.0343 58.0443 39.2895 58.6602 39.2895 59.3025V64.1275L46.259 57.1588L54.4256 48.9954L47.2677 41.8498L39.2895 33.8702V38.6952C39.2883 39.3367 39.0326 39.9514 38.5785 40.4046C38.1244 40.8578 37.5091 41.1123 36.8675 41.1123H36.7871C36.469 41.1123 36.1541 41.0496 35.8603 40.9279C35.5664 40.8062 35.2994 40.6279 35.0745 40.403C34.6203 39.9488 34.3651 39.3329 34.3651 38.6906V27.7861C34.3651 27.4681 34.4278 27.1532 34.5495 26.8594C34.6712 26.5655 34.8496 26.2986 35.0745 26.0737C35.5287 25.6195 36.1448 25.3644 36.7871 25.3644H47.6929C48.0109 25.3644 48.3259 25.427 48.6197 25.5487C48.9135 25.6704 49.1805 25.8488 49.4054 26.0737C49.6303 26.2986 49.8087 26.5655 49.9305 26.8594C50.0522 27.1532 50.1148 27.4681 50.1148 27.7861V27.8665C50.1148 28.1845 50.0522 28.4994 49.9305 28.7932C49.8087 29.0871 49.6303 29.354 49.4054 29.5789C49.1805 29.8038 48.9135 29.9822 48.6197 30.1039C48.3259 30.2256 48.0109 30.2882 47.6929 30.2882H42.8673L51.6245 39.0421L57.9989 45.4226L65.1476 38.2747L73.1281 30.2974H68.3026C67.6602 30.2974 67.0442 30.0422 66.59 29.5881C66.1358 29.1339 65.8806 28.518 65.8806 27.8757V27.7953C65.8794 27.4761 65.9413 27.1598 66.0627 26.8647C66.1842 26.5695 66.3628 26.3012 66.5883 26.0753C66.8138 25.8494 67.0818 25.6703 67.3768 25.5483C67.6717 25.4263 67.9879 25.3638 68.3072 25.3644H79.2106C79.5287 25.3644 79.8436 25.427 80.1375 25.5487C80.4313 25.6704 80.6983 25.8488 80.9232 26.0737C81.1481 26.2986 81.3265 26.5655 81.4482 26.8594C81.5699 27.1532 81.6326 27.4681 81.6326 27.7861V30.2882Z"
            fill="#DF01E5"
          />
          <path
            opacity="0.5"
            d="M168.149 19H117.858C117.22 18.9997 116.588 19.1251 115.998 19.3691C115.409 19.6131 114.873 19.9709 114.422 20.422C113.971 20.873 113.613 21.4086 113.369 21.9981C113.125 22.5875 113 23.2192 113 23.8572V74.1428C113 75.431 113.512 76.6665 114.423 77.5774C115.334 78.4883 116.569 79 117.858 79H168.149C169.436 78.9976 170.67 78.4848 171.579 77.5743C172.488 76.6637 172.999 75.4296 173 74.1428V23.8572C173 22.5702 172.489 21.3358 171.58 20.4251C170.67 19.5144 169.436 19.0018 168.149 19ZM166.633 30.2882V38.6906C166.633 39.0087 166.57 39.3237 166.449 39.6177C166.327 39.9116 166.149 40.1787 165.924 40.4037C165.699 40.6286 165.432 40.807 165.138 40.9286C164.844 41.0501 164.529 41.1126 164.211 41.1123H164.132C163.491 41.1111 162.876 40.8554 162.423 40.4014C161.97 39.9473 161.715 39.3321 161.715 38.6906V33.8656L152.96 42.6218L146.588 48.9908L154.948 57.3702L161.715 64.1229V59.2979C161.715 58.6556 161.97 58.0397 162.424 57.5855C162.879 57.1314 163.495 56.8762 164.137 56.8762H164.215C164.533 56.8759 164.848 56.9384 165.142 57.06C165.436 57.1815 165.704 57.3599 165.928 57.5849C166.153 57.8098 166.332 58.0769 166.453 58.3708C166.575 58.6648 166.637 58.9798 166.637 59.2979V70.2001C166.637 70.8424 166.382 71.4584 165.928 71.9125C165.474 72.3667 164.858 72.6218 164.215 72.6218H153.307C152.665 72.6218 152.049 72.3667 151.595 71.9125C151.14 71.4584 150.885 70.8424 150.885 70.2001V70.122C150.888 69.4813 151.144 68.8677 151.598 68.4155C152.052 67.9634 152.666 67.7095 153.307 67.7095H158.133L151.163 60.7408L143.003 52.5843L134.639 60.9476L127.872 67.7095H132.697C133.34 67.7095 133.956 67.9646 134.41 68.4188C134.864 68.873 135.119 69.4889 135.119 70.1312V70.2093C135.119 70.5274 135.056 70.8423 134.934 71.1361C134.812 71.4298 134.633 71.6965 134.407 71.921C134.182 72.1455 133.915 72.3234 133.62 72.4444C133.326 72.5655 133.011 72.6273 132.693 72.6264H121.787C121.469 72.6264 121.154 72.5638 120.86 72.4421C120.566 72.3204 120.299 72.142 120.075 71.9171C119.62 71.463 119.365 70.847 119.365 70.2047V59.3025C119.365 58.6602 119.62 58.0443 120.075 57.5901C120.529 57.136 121.145 56.8808 121.787 56.8808H121.868C122.51 56.8808 123.126 57.136 123.58 57.5901C124.034 58.0443 124.289 58.6602 124.289 59.3025V64.1275L131.259 57.1588L139.426 48.9954L132.268 41.8498L124.289 33.8702V38.6952C124.288 39.3367 124.033 39.9514 123.578 40.4046C123.124 40.8578 122.509 41.1123 121.868 41.1123H121.787C121.469 41.1123 121.154 41.0496 120.86 40.9279C120.566 40.8062 120.299 40.6279 120.075 40.403C119.62 39.9488 119.365 39.3329 119.365 38.6906V27.7861C119.365 27.4681 119.428 27.1532 119.549 26.8594C119.671 26.5655 119.85 26.2986 120.075 26.0737C120.529 25.6195 121.145 25.3644 121.787 25.3644H132.693C133.011 25.3644 133.326 25.427 133.62 25.5487C133.914 25.6704 134.181 25.8488 134.405 26.0737C134.63 26.2986 134.809 26.5655 134.93 26.8594C135.052 27.1532 135.115 27.4681 135.115 27.7861V27.8665C135.115 28.1845 135.052 28.4994 134.93 28.7932C134.809 29.0871 134.63 29.354 134.405 29.5789C134.181 29.8038 133.914 29.9822 133.62 30.1039C133.326 30.2256 133.011 30.2882 132.693 30.2882H127.867L136.625 39.0421L142.999 45.4226L150.148 38.2747L158.128 30.2974H153.303C152.66 30.2974 152.044 30.0422 151.59 29.5881C151.136 29.1339 150.881 28.518 150.881 27.8757V27.7953C150.879 27.4761 150.941 27.1598 151.063 26.8647C151.184 26.5695 151.363 26.3012 151.588 26.0753C151.814 25.8494 152.082 25.6703 152.377 25.5483C152.672 25.4263 152.988 25.3638 153.307 25.3644H164.211C164.529 25.3644 164.844 25.427 165.137 25.5487C165.431 25.6704 165.698 25.8488 165.923 26.0737C166.148 26.2986 166.326 26.5655 166.448 26.8594C166.57 27.1532 166.633 27.4681 166.633 27.7861V30.2882Z"
            fill="#DF01E5"
          />
          <path
            opacity="0.5"
            d="M253.149 19H202.858C202.22 18.9997 201.588 19.1251 200.998 19.3691C200.409 19.6131 199.873 19.9709 199.422 20.422C198.971 20.873 198.613 21.4086 198.369 21.9981C198.125 22.5875 198 23.2192 198 23.8572V74.1428C198 75.431 198.512 76.6665 199.423 77.5774C200.334 78.4883 201.569 79 202.858 79H253.149C254.436 78.9976 255.67 78.4848 256.579 77.5743C257.488 76.6637 257.999 75.4296 258 74.1428V23.8572C258 22.5702 257.489 21.3358 256.58 20.4251C255.67 19.5144 254.436 19.0018 253.149 19ZM251.633 30.2882V38.6906C251.633 39.0087 251.57 39.3237 251.449 39.6177C251.327 39.9116 251.149 40.1787 250.924 40.4037C250.699 40.6286 250.432 40.807 250.138 40.9286C249.844 41.0501 249.529 41.1126 249.211 41.1123H249.132C248.491 41.1111 247.876 40.8554 247.423 40.4014C246.97 39.9473 246.715 39.3321 246.715 38.6906V33.8656L237.96 42.6218L231.588 48.9908L239.948 57.3702L246.715 64.1229V59.2979C246.715 58.6556 246.97 58.0397 247.424 57.5855C247.879 57.1314 248.495 56.8762 249.137 56.8762H249.215C249.533 56.8759 249.848 56.9384 250.142 57.06C250.436 57.1815 250.704 57.3599 250.928 57.5849C251.153 57.8098 251.332 58.0769 251.453 58.3708C251.575 58.6648 251.637 58.9798 251.637 59.2979V70.2001C251.637 70.8424 251.382 71.4584 250.928 71.9125C250.474 72.3667 249.858 72.6218 249.215 72.6218H238.307C237.665 72.6218 237.049 72.3667 236.595 71.9125C236.14 71.4584 235.885 70.8424 235.885 70.2001V70.122C235.888 69.4813 236.144 68.8677 236.598 68.4155C237.052 67.9634 237.666 67.7095 238.307 67.7095H243.133L236.163 60.7408L228.003 52.5843L219.639 60.9476L212.872 67.7095H217.697C218.34 67.7095 218.956 67.9646 219.41 68.4188C219.864 68.873 220.119 69.4889 220.119 70.1312V70.2093C220.119 70.5274 220.056 70.8423 219.934 71.1361C219.812 71.4298 219.633 71.6965 219.407 71.921C219.182 72.1455 218.915 72.3234 218.62 72.4444C218.326 72.5655 218.011 72.6273 217.693 72.6264H206.787C206.469 72.6264 206.154 72.5638 205.86 72.4421C205.566 72.3204 205.299 72.142 205.075 71.9171C204.62 71.463 204.365 70.847 204.365 70.2047V59.3025C204.365 58.6602 204.62 58.0443 205.075 57.5901C205.529 57.136 206.145 56.8808 206.787 56.8808H206.868C207.51 56.8808 208.126 57.136 208.58 57.5901C209.034 58.0443 209.289 58.6602 209.289 59.3025V64.1275L216.259 57.1588L224.426 48.9954L217.268 41.8498L209.289 33.8702V38.6952C209.288 39.3367 209.033 39.9514 208.578 40.4046C208.124 40.8578 207.509 41.1123 206.868 41.1123H206.787C206.469 41.1123 206.154 41.0496 205.86 40.9279C205.566 40.8062 205.299 40.6279 205.075 40.403C204.62 39.9488 204.365 39.3329 204.365 38.6906V27.7861C204.365 27.4681 204.428 27.1532 204.549 26.8594C204.671 26.5655 204.85 26.2986 205.075 26.0737C205.529 25.6195 206.145 25.3644 206.787 25.3644H217.693C218.011 25.3644 218.326 25.427 218.62 25.5487C218.914 25.6704 219.181 25.8488 219.405 26.0737C219.63 26.2986 219.809 26.5655 219.93 26.8594C220.052 27.1532 220.115 27.4681 220.115 27.7861V27.8665C220.115 28.1845 220.052 28.4994 219.93 28.7932C219.809 29.0871 219.63 29.354 219.405 29.5789C219.181 29.8038 218.914 29.9822 218.62 30.1039C218.326 30.2256 218.011 30.2882 217.693 30.2882H212.867L221.625 39.0421L227.999 45.4226L235.148 38.2747L243.128 30.2974H238.303C237.66 30.2974 237.044 30.0422 236.59 29.5881C236.136 29.1339 235.881 28.518 235.881 27.8757V27.7953C235.879 27.4761 235.941 27.1598 236.063 26.8647C236.184 26.5695 236.363 26.3012 236.588 26.0753C236.814 25.8494 237.082 25.6703 237.377 25.5483C237.672 25.4263 237.988 25.3638 238.307 25.3644H249.211C249.529 25.3644 249.844 25.427 250.137 25.5487C250.431 25.6704 250.698 25.8488 250.923 26.0737C251.148 26.2986 251.326 26.5655 251.448 26.8594C251.57 27.1532 251.633 27.4681 251.633 27.7861V30.2882Z"
            fill="#DF01E5"
          />
        </svg>