<svg width="443" height="441" viewBox="0 0 443 441" fill="none" xmlns="http://www.w3.org/2000/svg">
<g opacity="0.6">
<path d="M282.63 228.535C224.034 262.695 191.003 288.559 167.465 354.646C160.184 346.321 153.439 337.953 146.89 329.647C145.595 328.044 144.218 326.442 143.016 324.675C140.298 320.756 131.483 309.287 128.904 318.537C124.645 333.77 114.201 356.431 95.4415 349.319C76.4534 342.131 85.1583 264.146 74.6777 249.47C70.2799 244.813 65.6293 240.401 60.7471 236.255C58.6643 234.675 56.3589 233.412 53.9062 232.508C51.3007 230.939 48.6583 229.426 45.9789 227.967C40.3655 224.954 34.6022 222.229 28.7115 219.804C58.1901 192.411 89.7984 169.646 121.987 145.701C143.146 129.954 168.398 112.345 174.319 84.7236C202.357 108.353 228.166 132.657 246.738 164.636C259.008 185.8 266.439 209.734 282.63 228.535Z" stroke="#30F4E2" stroke-width="2.5" stroke-miterlimit="10"/>
<path d="M192.901 100.083C182.004 126.476 159.219 141.228 136.607 156.594C104.51 178.392 72.8701 201.222 44.4661 227.847" stroke="#30F4E2" stroke-width="2.5" stroke-miterlimit="10"/>
<path d="M208.78 115.084C194.308 139.574 171.71 152.988 148.353 167.571C138.473 173.733 128.922 180.067 119.618 186.625C117.757 187.927 115.897 189.261 114.052 190.579C112.208 191.897 110.332 193.28 108.618 194.628C106.904 195.976 62.7519 234.837 60.6332 236.257" stroke="#30F4E2" stroke-width="2.5" stroke-miterlimit="10"/>
<path d="M222.2 129.739C205.773 152.15 181.386 164.523 158.146 178.372C151.717 182.195 145.468 186.102 139.399 190.092C137.334 191.484 135.317 192.859 133.349 194.217C124.267 198.624 118.213 205.27 113.245 212.645C111.665 215.112 110.085 217.58 108.589 220.225C99.8689 232.155 97.4569 252.542 75.8863 251.709" stroke="#30F4E2" stroke-width="2.5" stroke-miterlimit="10"/>
<path d="M233.421 143.995C214.768 164.575 189.952 175.672 166.347 189.105C161.089 192.126 155.979 195.226 150.968 198.422C149.363 199.492 147.644 200.563 146.007 201.649C138.843 206.22 132.609 212.109 127.638 219.005C125.993 221.265 124.468 223.61 123.069 226.031C119.228 234.094 115.958 242.418 113.282 250.941C112.375 253.77 99.4801 291.062 81.3589 294.168" stroke="#30F4E2" stroke-width="2.5" stroke-miterlimit="10"/>
<path d="M242.702 157.862C215.856 179.891 186.713 195.212 158.713 212.659C156.368 214.116 154.039 215.588 151.678 217.127C149.664 218.919 147.765 220.807 145.948 222.759C144.131 224.71 142.429 226.741 140.81 228.819C123.111 255.464 95.9585 307.501 86.5981 336.257" stroke="#30F4E2" stroke-width="2.5" stroke-miterlimit="10"/>
<path d="M250.413 171.27C221.162 191.422 192.2 205.96 164.887 223.638C162.623 225.126 160.359 226.598 158.064 228.135C155.877 230.288 153.789 232.505 151.685 234.754C149.581 237.003 147.755 239.362 145.898 241.753C124.227 264.29 104.616 334.714 103.405 350.477" stroke="#30F4E2" stroke-width="2.5" stroke-miterlimit="10"/>
<path d="M256.749 183.906C224.228 203.792 193.839 218.501 166.109 238.333C163.976 239.868 161.844 241.418 159.696 243.018C157.381 244.612 155.161 246.341 153.048 248.195C150.937 249.914 149.002 251.839 147.27 253.941C121.768 287.459 111.79 340.651 111.915 347.642" stroke="#30F4E2" stroke-width="2.5" stroke-miterlimit="10"/>
<path d="M262.372 195.822C224.109 217.958 190.334 234.061 160.914 260.201C158.644 262.215 156.407 264.288 154.203 266.42C152.005 268.322 149.936 270.369 148.011 272.547C136.616 288.396 134.087 296.848 128.806 316.652" stroke="#30F4E2" stroke-width="2.5" stroke-miterlimit="10"/>
<path d="M268.052 207.331C220.788 233.922 182.782 253.207 152.092 293.648C150.305 296.021 148.529 298.471 146.766 300.996C141.808 306.207 137.56 318.431 137.56 318.431" stroke="#30F4E2" stroke-width="2.5" stroke-miterlimit="10"/>
<path d="M274.839 218.056C217.66 250.63 180.211 273.775 150.399 335.113" stroke="#30F4E2" stroke-width="2.5" stroke-miterlimit="10"/>
<path d="M174.135 335.354C166.301 326.079 159.182 316.791 152.293 307.629C150.912 305.784 140.963 291.766 133.898 295.486C124.967 300.167 124.96 307.03 118.406 324.71C111.557 343.16 96.058 333.047 95.3011 324.36C91.9149 285.002 90.856 267.621 87.9988 241.458C85.1417 215.296 58.6344 209.104 55.7959 207.528C52.9575 205.953 49.9567 204.381 46.8909 202.81" stroke="#30F4E2" stroke-width="2.5" stroke-miterlimit="10"/>
<path d="M181.498 318.342C170.816 305.069 161.384 291.822 152.349 278.975C150.849 276.822 149.333 274.703 147.786 272.698C130.685 255.718 124.3 311.774 108.689 312.688C94.3774 313.53 110.049 243.6 92.9111 209.139C91.5994 206.952 89.9153 205.012 87.9351 203.407C85.6263 201.475 83.2432 199.626 80.7858 197.86C75.848 194.257 70.5718 190.806 64.9573 187.508" stroke="#30F4E2" stroke-width="2.5" stroke-miterlimit="10"/>
<path d="M189.53 303.416C178.67 289.316 169.304 275.19 160.187 261.401C158.885 259.424 154.35 251.147 149.612 250.484C139.092 249.046 127.085 280.598 117.595 276.768C107.385 272.658 115.087 202.106 108.092 194.312C106.197 192.492 104.253 190.706 102.262 188.953C96.0898 183.504 89.5809 178.45 82.7737 173.821" stroke="#30F4E2" stroke-width="2.5" stroke-miterlimit="10"/>
<path d="M198.166 290.414C184.563 271.876 173.622 253.306 162.401 235.392C161.148 233.414 159.894 231.436 158.624 229.459C151.596 219.828 138.272 249.501 127.811 242.224C118.056 235.423 135.104 196.023 133.147 193.749C123.354 181.791 112.239 170.981 100.016 161.527" stroke="#30F4E2" stroke-width="2.5" stroke-miterlimit="10"/>
<path d="M207.531 279.091C193.21 258.581 182.429 238.008 170.803 218.329C167.1 212.02 150.046 217.611 146.022 211.52C141.481 204.642 149.903 186.099 144.572 179.576C135.907 168.881 126.085 159.18 115.285 150.651" stroke="#30F4E2" stroke-width="2.5" stroke-miterlimit="10"/>
<path d="M217.604 269.218C203.366 247.91 193.238 226.643 181.976 206.436C179.324 201.686 169.805 200.768 166.961 196.151C162.878 189.492 165.342 179.219 160.517 172.899C151.381 160.804 140.652 150.001 128.623 140.785" stroke="#30F4E2" stroke-width="2.5" stroke-miterlimit="10"/>
<path d="M228.493 260.485C198.397 212.695 186.992 168.179 140.91 131.197" stroke="#30F4E2" stroke-width="2.5" stroke-miterlimit="10"/>
<path d="M240.601 252.625C210.791 203.61 198.401 159.437 152.022 121.241" stroke="#30F4E2" stroke-width="2.5" stroke-miterlimit="10"/>
<path d="M253.689 245.154C223.128 195.014 208.727 150.113 161.692 110.66" stroke="#30F4E2" stroke-width="2.5" stroke-miterlimit="10"/>
<path d="M267.857 237.208C252.58 218.634 246.416 194.677 235.157 173.755C218.958 143.636 195.222 120.807 169.551 98.729" stroke="#30F4E2" stroke-width="2.5" stroke-miterlimit="10"/>
<path d="M400.017 200.037C370.537 227.333 339.183 249.8 307.123 273.629C286.796 288.711 259.371 307.4 254.919 334.539C225.456 340.141 196.484 346.889 167.563 354.644C191.101 288.557 224.132 262.694 282.728 228.534C323.532 225.818 361.774 214.22 400.017 200.037Z" stroke="#30F4E2" stroke-width="2.5" stroke-miterlimit="10"/>
<path d="M291.519 227.823C233.669 262.815 198.984 286.123 175.693 352.401" stroke="#30F4E2" stroke-width="2.5" stroke-miterlimit="10"/>
<path d="M300.695 226.813C243.818 262.633 206.855 283.9 183.857 350.238" stroke="#30F4E2" stroke-width="2.5" stroke-miterlimit="10"/>
<path d="M310.173 225.488C254.351 262.152 214.647 281.89 191.942 348.19" stroke="#30F4E2" stroke-width="2.5" stroke-miterlimit="10"/>
<path d="M320.004 223.816C265.349 261.255 222.35 280.191 199.98 346.16" stroke="#30F4E2" stroke-width="2.5" stroke-miterlimit="10"/>
<path d="M330.136 221.764C276.809 259.911 229.943 278.77 207.922 344.293" stroke="#30F4E2" stroke-width="2.5" stroke-miterlimit="10"/>
<path d="M340.73 219.314C288.86 258.053 237.557 277.69 215.863 342.427" stroke="#30F4E2" stroke-width="2.5" stroke-miterlimit="10"/>
<path d="M351.692 216.434C301.406 255.648 245.128 276.887 223.726 340.692" stroke="#30F4E2" stroke-width="2.5" stroke-miterlimit="10"/>
<path d="M363.068 213.091C314.413 252.7 252.722 276.426 231.543 339.04" stroke="#30F4E2" stroke-width="2.5" stroke-miterlimit="10"/>
<path d="M374.905 209.269C332.748 245.248 252.929 278.032 239.343 337.453" stroke="#30F4E2" stroke-width="2.5" stroke-miterlimit="10"/>
<path d="M387.206 204.918C358.426 230.493 327.728 251.518 296.931 274.235C275.145 290.367 252.845 307.728 247.098 335.964" stroke="#30F4E2" stroke-width="2.5" stroke-miterlimit="10"/>
<path d="M259.685 320.533C230.906 324.416 202.534 329.267 174.135 335.354" stroke="#30F4E2" stroke-width="2.5" stroke-miterlimit="10"/>
<path d="M267.415 308.572C238.535 310.505 210.086 313.796 181.497 318.342" stroke="#30F4E2" stroke-width="2.5" stroke-miterlimit="10"/>
<path d="M277.085 297.959C247.761 298.631 218.652 300.422 189.466 303.417" stroke="#30F4E2" stroke-width="2.5" stroke-miterlimit="10"/>
<path d="M288.182 288.117C258.173 288.655 228.172 288.738 198.2 290.414" stroke="#30F4E2" stroke-width="2.5" stroke-miterlimit="10"/>
<path d="M300.436 278.53C269.461 279.509 238.522 278.925 207.531 279.091" stroke="#30F4E2" stroke-width="2.5" stroke-miterlimit="10"/>
<path d="M313.742 268.697C281.586 270.9 249.787 270.332 217.604 269.218" stroke="#30F4E2" stroke-width="2.5" stroke-miterlimit="10"/>
<path d="M328.282 257.931C295.182 261.82 261.796 262.675 228.541 260.484" stroke="#30F4E2" stroke-width="2.5" stroke-miterlimit="10"/>
<path d="M344.488 245.802C309.38 251.831 276.225 255.401 240.648 252.543" stroke="#30F4E2" stroke-width="2.5" stroke-miterlimit="10"/>
<path d="M361.952 232.332C325.539 240.807 291.19 246.611 253.689 245.153" stroke="#30F4E2" stroke-width="2.5" stroke-miterlimit="10"/>
<path d="M380.199 217.239C342.684 228.58 307.191 236.73 267.856 237.142" stroke="#30F4E2" stroke-width="2.5" stroke-miterlimit="10"/>
<path d="M400.144 199.905C361.869 214.153 323.58 225.801 282.629 228.535C266.438 209.734 259.007 185.8 246.737 164.636C228.166 132.657 202.438 108.352 174.318 84.7235C203.797 79.0723 232.784 72.2916 261.671 64.4394C268.621 72.4456 275.132 80.4597 281.382 88.3484C282.645 89.952 283.876 91.5561 285.123 93.1599C289.072 98.7156 292.407 103.534 295.655 103.476C313.518 103.156 313.022 75.5195 325.955 72.0352C345.295 63.5574 342.806 105.883 345.024 121.812C345.255 124.686 345.484 127.512 345.697 130.337C346.125 138.467 347.078 146.559 348.552 154.565C350.322 162.664 353.715 170.734 360.093 176.734C362.336 178.884 364.842 180.74 367.55 182.26C370.001 183.939 372.483 185.554 375.061 187.134C383.079 192.035 391.465 196.304 400.144 199.905Z" stroke="#30F4E2" stroke-width="2.5" stroke-miterlimit="10"/>
<path d="M278.139 84.1296C249.571 90.7076 221.92 95.9358 192.901 100.083" stroke="#30F4E2" stroke-width="2.5" stroke-miterlimit="10"/>
<path d="M291.918 101.527C289.058 102.375 286.26 103.076 283.494 103.711C258.597 109.426 234.53 112.525 208.781 115.084" stroke="#30F4E2" stroke-width="2.5" stroke-miterlimit="10"/>
<path d="M304.021 100.724C305.552 111.82 298.452 118.972 295.752 119.704C293.053 120.435 290.352 121.102 287.666 121.719C266.151 126.691 244.906 128.584 222.201 129.723" stroke="#30F4E2" stroke-width="2.5" stroke-miterlimit="10"/>
<path d="M321.198 74.8364C313.8 83.4903 313.7 109.609 301.793 124.994C300.336 127.162 298.681 129.189 296.85 131.051C292.986 134.964 288.182 137.817 282.899 139.335C280.196 139.904 277.524 140.342 274.802 140.732C261.084 142.724 247.25 143.814 233.39 143.995" stroke="#30F4E2" stroke-width="2.5" stroke-miterlimit="10"/>
<path d="M332.729 71.1493C324.997 74.768 321.747 104.585 310.391 124.385C309.219 126.959 308.028 129.403 306.738 131.752C300.352 143.428 291.699 152.755 276.645 155.676C274.814 155.92 272.966 156.148 271.118 156.361C261.682 157.404 252.195 157.906 242.702 157.862" stroke="#30F4E2" stroke-width="2.5" stroke-miterlimit="10"/>
<path d="M342.393 90.1812C332.943 83.1305 322.188 118.4 316.117 132.201C309.546 147.15 292.452 165.816 276.752 169.903C274.58 170.137 272.407 170.355 270.266 170.54C263.779 171.101 257.177 171.338 250.461 171.253" stroke="#30F4E2" stroke-width="2.5" stroke-miterlimit="10"/>
<path d="M348.202 153.108C341.992 146.503 343.691 137.106 333.939 138.598C318.68 140.937 322.026 178.995 279.81 182.679C277.88 182.844 275.967 183.089 274.053 183.254C268.296 183.747 262.517 183.981 256.749 183.906" stroke="#30F4E2" stroke-width="2.5" stroke-miterlimit="10"/>
<path d="M358.087 174.461C330.944 164.54 313.519 189.246 287.7 194.278C285.512 194.562 283.324 194.812 281.216 195.029C274.971 195.653 268.694 195.901 262.419 195.773" stroke="#30F4E2" stroke-width="2.5" stroke-miterlimit="10"/>
<path d="M371.035 184.49C368.323 185.46 365.595 186.42 362.851 187.369C360.347 188.162 357.827 188.923 355.306 189.635C334.718 193.793 315.378 202.271 294.229 205.057C292.069 205.377 289.881 205.661 287.666 205.906C281.182 206.689 274.563 207.166 268.052 207.331" stroke="#30F4E2" stroke-width="2.5" stroke-miterlimit="10"/>
<path d="M384.433 192.429C373.992 196.259 363.369 199.93 352.627 203.261C350.479 203.934 348.33 204.574 346.164 205.215C336.576 206.769 326.92 211.821 314.76 213.063C312.558 213.493 310.357 213.923 308.138 214.304C297.136 216.304 286.011 217.557 274.841 218.056" stroke="#30F4E2" stroke-width="2.5" stroke-miterlimit="10"/>
<path d="M291.519 227.807C274.457 209.347 266.145 186.079 253.805 164.656C235.246 132.465 210.075 107.532 182.074 83.2837" stroke="#30F4E2" stroke-width="2.5" stroke-miterlimit="10"/>
<path d="M300.711 226.796C282.522 208.958 273.325 186.145 260.934 164.544C242.304 132.078 217.661 106.631 189.844 81.7778" stroke="#30F4E2" stroke-width="2.5" stroke-miterlimit="10"/>
<path d="M310.205 225.471C301.036 217.027 293.122 207.312 286.703 196.622C285.382 194.531 284.11 192.424 282.853 190.3C281.597 188.176 280.372 186.019 279.148 183.862C275.475 177.423 271.913 170.819 268.125 164.285C249.282 131.693 225.31 105.649 197.645 80.1909" stroke="#30F4E2" stroke-width="2.5" stroke-miterlimit="10"/>
<path d="M320.036 223.783C315.582 220.188 311.417 216.25 307.577 212.005C306.317 210.613 305.106 209.187 303.911 207.761C295.775 196.117 285.798 183.287 279.264 170.395C277.991 168.249 276.712 166.061 275.427 163.829C256.275 131.193 232.942 104.585 205.461 78.522" stroke="#30F4E2" stroke-width="2.5" stroke-miterlimit="10"/>
<path d="M330.232 221.73C327.857 219.707 325.578 217.65 323.364 215.56C305.576 199.194 293.83 178.265 280.129 159.777C278.643 157.494 277.172 155.211 275.685 152.896C259.312 127.561 241.88 101.172 213.34 76.771" stroke="#30F4E2" stroke-width="2.5" stroke-miterlimit="10"/>
<path d="M340.794 219.264C338.308 217.373 335.852 215.401 333.509 213.394C312.049 194.265 309.096 178.153 290.264 157.009C288.491 155.057 283.448 154.66 274.469 143.112C256.888 120.173 241.564 95.3724 221.266 74.9214" stroke="#30F4E2" stroke-width="2.5" stroke-miterlimit="10"/>
<path d="M351.756 216.367C349.112 214.789 346.515 213.063 343.997 211.287C341.48 209.51 339.059 207.651 336.619 205.646C320.021 185.925 315.241 163.911 304.938 151.916C296.925 142.579 290.81 152.17 281.045 141.14C279.235 138.856 277.565 136.464 276.043 133.977C261.183 112.42 246.501 90.7954 229.207 73.0225" stroke="#30F4E2" stroke-width="2.5" stroke-miterlimit="10"/>
<path d="M363.165 213.024C360.395 211.34 357.688 209.588 355.046 207.771C352.414 205.948 349.83 204.059 347.342 202.088C328.106 187.407 330.858 159.712 322.359 138.724C315.631 125.836 301.249 139.103 289.853 137.681C288.2 136.085 286.518 132.863 284.621 131.27C283.091 129.265 281.608 127.194 280.109 125.123C266.649 106.468 253.091 87.734 237.26 70.9268" stroke="#30F4E2" stroke-width="2.5" stroke-miterlimit="10"/>
<path d="M375.002 209.17C372.061 207.596 369.2 205.945 366.418 204.217C363.636 202.489 360.924 200.7 358.281 198.851C338.185 185.128 337.521 158.975 336.238 139.988C336.038 136.967 334.521 108.552 327.041 105.385C311.655 98.88 306.257 123.955 298.787 127.715C293.588 130.345 283.7 117.025 281.785 114.425C270.486 98.5873 258.326 83.3823 245.362 68.8789" stroke="#30F4E2" stroke-width="2.5" stroke-miterlimit="10"/>
<path d="M387.335 204.834C379.109 200.899 371.206 196.321 363.698 191.142C361.219 189.47 358.838 187.656 356.567 185.709C343.132 172.03 340.94 143.123 339.874 127.124C338.807 111.125 341.274 86.5584 326.314 86.6153C312.508 86.6678 309.022 118.717 298.753 117.649C296.523 117.429 284.642 105.234 283.294 103.47C273.927 91.0838 264.217 78.655 253.526 66.6992" stroke="#30F4E2" stroke-width="2.5" stroke-miterlimit="10"/>
</g>
<path d="M32.3318 395.195L21.9008 398.935L30.0997 407.065L33.7519 396.604L32.3318 395.195ZM389.066 36.9006L380.901 36.9345L380.935 45.0994L389.1 45.0655L389.066 36.9006ZM33.0477 397.314L385.71 41.7042L384.29 40.2958L31.6276 395.905L33.0477 397.314Z" fill="#30F4E2"/>
<path d="M92.9169 -0.000110984L92.9649 11.5468L102.941 5.73173L92.9169 -0.000110984ZM349.666 440.46L349.618 428.913L339.642 434.728L349.666 440.46ZM96.5854 8.27893L344.27 433.188L345.998 432.181L98.3132 7.27173L96.5854 8.27893Z" fill="#30F4E2"/>
<g opacity="0.4">
<path d="M279.63 224.535C221.034 258.695 188.003 284.559 164.465 350.646C157.184 342.321 150.439 333.953 143.89 325.647C142.595 324.044 141.218 322.442 140.016 320.675C137.298 316.756 128.483 305.287 125.904 314.537C121.645 329.77 111.201 352.431 92.4415 345.319C73.4534 338.131 82.1583 260.146 71.6777 245.47C67.2799 240.813 62.6293 236.401 57.7471 232.255C55.6643 230.675 53.3589 229.412 50.9062 228.508C48.3007 226.939 45.6583 225.426 42.9789 223.967C37.3655 220.954 31.6022 218.229 25.7115 215.804C55.1901 188.411 86.7984 165.646 118.987 141.701C140.146 125.954 165.398 108.345 171.319 80.7236C199.357 104.353 225.166 128.657 243.738 160.636C256.008 181.8 263.439 205.734 279.63 224.535Z" stroke="#DF01E5" stroke-width="2.5" stroke-miterlimit="10"/>
<path d="M189.901 96.083C179.004 122.476 156.219 137.228 133.607 152.594C101.51 174.392 69.8701 197.222 41.4661 223.847" stroke="#DF01E5" stroke-width="2.5" stroke-miterlimit="10"/>
<path d="M205.78 111.084C191.308 135.574 168.71 148.988 145.353 163.571C135.473 169.733 125.922 176.067 116.618 182.625C114.757 183.927 112.897 185.261 111.052 186.579C109.208 187.897 107.332 189.28 105.618 190.628C103.904 191.976 59.7519 230.837 57.6332 232.257" stroke="#DF01E5" stroke-width="2.5" stroke-miterlimit="10"/>
<path d="M219.2 125.739C202.773 148.15 178.386 160.523 155.146 174.372C148.717 178.195 142.468 182.102 136.399 186.092C134.334 187.484 132.317 188.859 130.349 190.217C121.267 194.624 115.213 201.27 110.245 208.645C108.665 211.112 107.085 213.58 105.589 216.225C96.8689 228.155 94.4569 248.542 72.8863 247.709" stroke="#DF01E5" stroke-width="2.5" stroke-miterlimit="10"/>
<path d="M230.421 139.995C211.768 160.575 186.952 171.672 163.347 185.105C158.089 188.126 152.979 191.226 147.968 194.422C146.363 195.492 144.644 196.563 143.007 197.649C135.843 202.22 129.609 208.109 124.638 215.005C122.993 217.265 121.468 219.61 120.069 222.031C116.228 230.094 112.958 238.418 110.282 246.941C109.375 249.77 96.4801 287.062 78.3589 290.168" stroke="#DF01E5" stroke-width="2.5" stroke-miterlimit="10"/>
<path d="M239.702 153.862C212.856 175.891 183.713 191.212 155.713 208.659C153.368 210.116 151.039 211.588 148.678 213.127C146.664 214.919 144.765 216.807 142.948 218.759C141.131 220.71 139.429 222.741 137.81 224.819C120.111 251.464 92.9585 303.501 83.5981 332.257" stroke="#DF01E5" stroke-width="2.5" stroke-miterlimit="10"/>
<path d="M247.413 167.27C218.162 187.422 189.2 201.96 161.887 219.638C159.623 221.126 157.359 222.598 155.064 224.135C152.877 226.288 150.789 228.505 148.685 230.754C146.581 233.003 144.755 235.362 142.898 237.753C121.227 260.29 101.616 330.714 100.405 346.477" stroke="#DF01E5" stroke-width="2.5" stroke-miterlimit="10"/>
<path d="M253.749 179.906C221.228 199.792 190.839 214.501 163.109 234.333C160.976 235.868 158.844 237.418 156.696 239.018C154.381 240.612 152.161 242.341 150.048 244.195C147.937 245.914 146.002 247.839 144.27 249.941C118.768 283.459 108.79 336.651 108.915 343.642" stroke="#DF01E5" stroke-width="2.5" stroke-miterlimit="10"/>
<path d="M259.372 191.822C221.109 213.958 187.334 230.061 157.914 256.201C155.644 258.215 153.407 260.288 151.203 262.42C149.005 264.322 146.936 266.369 145.011 268.547C133.616 284.396 131.087 292.848 125.806 312.652" stroke="#DF01E5" stroke-width="2.5" stroke-miterlimit="10"/>
<path d="M265.052 203.331C217.788 229.922 179.782 249.207 149.092 289.648C147.305 292.021 145.529 294.471 143.766 296.996C138.808 302.207 134.56 314.431 134.56 314.431" stroke="#DF01E5" stroke-width="2.5" stroke-miterlimit="10"/>
<path d="M271.839 214.056C214.66 246.63 177.211 269.775 147.399 331.113" stroke="#DF01E5" stroke-width="2.5" stroke-miterlimit="10"/>
<path d="M171.135 331.354C163.301 322.079 156.182 312.791 149.293 303.629C147.912 301.784 137.963 287.766 130.898 291.486C121.967 296.167 121.96 303.03 115.406 320.71C108.557 339.16 93.058 329.047 92.3011 320.36C88.9149 281.002 87.856 263.621 84.9988 237.458C82.1417 211.296 55.6344 205.104 52.7959 203.528C49.9575 201.953 46.9567 200.381 43.8909 198.81" stroke="#DF01E5" stroke-width="2.5" stroke-miterlimit="10"/>
<path d="M178.498 314.342C167.816 301.069 158.384 287.822 149.349 274.975C147.849 272.822 146.333 270.703 144.786 268.698C127.685 251.718 121.3 307.774 105.689 308.688C91.3774 309.53 107.049 239.6 89.9111 205.139C88.5994 202.952 86.9153 201.012 84.9351 199.407C82.6263 197.475 80.2432 195.626 77.7858 193.86C72.848 190.257 67.5718 186.806 61.9573 183.508" stroke="#DF01E5" stroke-width="2.5" stroke-miterlimit="10"/>
<path d="M186.53 299.416C175.67 285.316 166.304 271.19 157.187 257.401C155.885 255.424 151.35 247.147 146.612 246.484C136.092 245.046 124.085 276.598 114.595 272.768C104.385 268.658 112.087 198.106 105.092 190.312C103.197 188.492 101.253 186.706 99.2616 184.953C93.0898 179.504 86.5809 174.45 79.7737 169.821" stroke="#DF01E5" stroke-width="2.5" stroke-miterlimit="10"/>
<path d="M195.166 286.414C181.563 267.876 170.622 249.306 159.401 231.392C158.148 229.414 156.894 227.436 155.624 225.459C148.596 215.828 135.272 245.501 124.811 238.224C115.056 231.423 132.104 192.023 130.147 189.749C120.354 177.791 109.239 166.981 97.0159 157.527" stroke="#DF01E5" stroke-width="2.5" stroke-miterlimit="10"/>
<path d="M204.531 275.091C190.21 254.581 179.429 234.008 167.803 214.329C164.1 208.02 147.046 213.611 143.022 207.52C138.481 200.642 146.903 182.099 141.572 175.576C132.907 164.881 123.085 155.18 112.285 146.651" stroke="#DF01E5" stroke-width="2.5" stroke-miterlimit="10"/>
<path d="M214.604 265.218C200.366 243.91 190.238 222.643 178.976 202.436C176.324 197.686 166.805 196.768 163.961 192.151C159.878 185.492 162.342 175.219 157.517 168.899C148.381 156.804 137.652 146.001 125.623 136.785" stroke="#DF01E5" stroke-width="2.5" stroke-miterlimit="10"/>
<path d="M225.493 256.485C195.397 208.695 183.992 164.179 137.91 127.197" stroke="#DF01E5" stroke-width="2.5" stroke-miterlimit="10"/>
<path d="M237.601 248.625C207.791 199.61 195.401 155.437 149.022 117.241" stroke="#DF01E5" stroke-width="2.5" stroke-miterlimit="10"/>
<path d="M250.689 241.154C220.128 191.014 205.727 146.113 158.692 106.66" stroke="#DF01E5" stroke-width="2.5" stroke-miterlimit="10"/>
<path d="M264.857 233.208C249.58 214.634 243.416 190.677 232.157 169.755C215.958 139.636 192.222 116.807 166.551 94.729" stroke="#DF01E5" stroke-width="2.5" stroke-miterlimit="10"/>
<path d="M397.017 196.037C367.537 223.333 336.183 245.8 304.123 269.629C283.796 284.711 256.371 303.4 251.919 330.539C222.456 336.141 193.484 342.889 164.563 350.644C188.101 284.557 221.132 258.694 279.728 224.534C320.532 221.818 358.774 210.22 397.017 196.037Z" stroke="#DF01E5" stroke-width="2.5" stroke-miterlimit="10"/>
<path d="M288.519 223.823C230.669 258.815 195.984 282.123 172.693 348.401" stroke="#DF01E5" stroke-width="2.5" stroke-miterlimit="10"/>
<path d="M297.695 222.813C240.818 258.633 203.855 279.9 180.857 346.238" stroke="#DF01E5" stroke-width="2.5" stroke-miterlimit="10"/>
<path d="M307.173 221.488C251.351 258.152 211.647 277.89 188.942 344.19" stroke="#DF01E5" stroke-width="2.5" stroke-miterlimit="10"/>
<path d="M317.004 219.816C262.349 257.255 219.35 276.191 196.98 342.16" stroke="#DF01E5" stroke-width="2.5" stroke-miterlimit="10"/>
<path d="M327.136 217.764C273.809 255.911 226.943 274.77 204.922 340.293" stroke="#DF01E5" stroke-width="2.5" stroke-miterlimit="10"/>
<path d="M337.73 215.314C285.86 254.053 234.557 273.69 212.863 338.427" stroke="#DF01E5" stroke-width="2.5" stroke-miterlimit="10"/>
<path d="M348.692 212.434C298.406 251.648 242.128 272.887 220.726 336.692" stroke="#DF01E5" stroke-width="2.5" stroke-miterlimit="10"/>
<path d="M360.068 209.091C311.413 248.7 249.722 272.426 228.543 335.04" stroke="#DF01E5" stroke-width="2.5" stroke-miterlimit="10"/>
<path d="M371.905 205.269C329.748 241.248 249.929 274.032 236.343 333.453" stroke="#DF01E5" stroke-width="2.5" stroke-miterlimit="10"/>
<path d="M384.206 200.918C355.426 226.493 324.728 247.518 293.931 270.235C272.145 286.367 249.845 303.728 244.098 331.964" stroke="#DF01E5" stroke-width="2.5" stroke-miterlimit="10"/>
<path d="M256.685 316.533C227.906 320.416 199.534 325.267 171.135 331.354" stroke="#DF01E5" stroke-width="2.5" stroke-miterlimit="10"/>
<path d="M264.415 304.572C235.535 306.505 207.086 309.796 178.497 314.342" stroke="#DF01E5" stroke-width="2.5" stroke-miterlimit="10"/>
<path d="M274.085 293.959C244.761 294.631 215.652 296.422 186.466 299.417" stroke="#DF01E5" stroke-width="2.5" stroke-miterlimit="10"/>
<path d="M285.182 284.117C255.173 284.655 225.172 284.738 195.2 286.414" stroke="#DF01E5" stroke-width="2.5" stroke-miterlimit="10"/>
<path d="M297.436 274.53C266.461 275.509 235.522 274.925 204.531 275.091" stroke="#DF01E5" stroke-width="2.5" stroke-miterlimit="10"/>
<path d="M310.742 264.697C278.586 266.9 246.787 266.332 214.604 265.218" stroke="#DF01E5" stroke-width="2.5" stroke-miterlimit="10"/>
<path d="M325.282 253.931C292.182 257.82 258.796 258.675 225.541 256.484" stroke="#DF01E5" stroke-width="2.5" stroke-miterlimit="10"/>
<path d="M341.488 241.802C306.38 247.831 273.225 251.401 237.648 248.543" stroke="#DF01E5" stroke-width="2.5" stroke-miterlimit="10"/>
<path d="M358.952 228.332C322.539 236.807 288.19 242.611 250.689 241.153" stroke="#DF01E5" stroke-width="2.5" stroke-miterlimit="10"/>
<path d="M377.199 213.239C339.684 224.58 304.191 232.73 264.856 233.142" stroke="#DF01E5" stroke-width="2.5" stroke-miterlimit="10"/>
<path d="M397.144 195.905C358.869 210.153 320.58 221.801 279.629 224.535C263.438 205.734 256.007 181.8 243.737 160.636C225.166 128.657 199.438 104.352 171.318 80.7235C200.797 75.0723 229.784 68.2916 258.671 60.4394C265.621 68.4456 272.132 76.4597 278.382 84.3484C279.645 85.952 280.876 87.5561 282.123 89.1599C286.072 94.7156 289.407 99.5343 292.655 99.4761C310.518 99.1557 310.022 71.5195 322.955 68.0352C342.295 59.5574 339.806 101.883 342.024 117.812C342.255 120.686 342.484 123.512 342.697 126.337C343.125 134.467 344.078 142.559 345.552 150.565C347.322 158.664 350.715 166.734 357.093 172.734C359.336 174.884 361.842 176.74 364.55 178.26C367.001 179.939 369.483 181.554 372.061 183.134C380.079 188.035 388.465 192.304 397.144 195.905Z" stroke="#DF01E5" stroke-width="2.5" stroke-miterlimit="10"/>
<path d="M275.139 80.1296C246.571 86.7076 218.92 91.9358 189.901 96.0827" stroke="#DF01E5" stroke-width="2.5" stroke-miterlimit="10"/>
<path d="M288.918 97.5269C286.058 98.375 283.26 99.0757 280.494 99.7107C255.597 105.426 231.53 108.525 205.781 111.084" stroke="#DF01E5" stroke-width="2.5" stroke-miterlimit="10"/>
<path d="M301.021 96.7242C302.552 107.82 295.452 114.972 292.752 115.704C290.053 116.435 287.352 117.102 284.666 117.719C263.151 122.691 241.906 124.584 219.201 125.723" stroke="#DF01E5" stroke-width="2.5" stroke-miterlimit="10"/>
<path d="M318.198 70.8364C310.8 79.4903 310.7 105.609 298.793 120.994C297.336 123.162 295.681 125.189 293.85 127.051C289.986 130.964 285.182 133.817 279.899 135.335C277.196 135.904 274.524 136.342 271.802 136.732C258.084 138.724 244.25 139.814 230.39 139.995" stroke="#DF01E5" stroke-width="2.5" stroke-miterlimit="10"/>
<path d="M329.729 67.1493C321.997 70.768 318.747 100.585 307.391 120.385C306.219 122.959 305.028 125.403 303.738 127.752C297.352 139.428 288.699 148.755 273.645 151.676C271.814 151.92 269.966 152.148 268.118 152.361C258.682 153.404 249.195 153.906 239.702 153.862" stroke="#DF01E5" stroke-width="2.5" stroke-miterlimit="10"/>
<path d="M339.393 86.1812C329.943 79.1305 319.188 114.4 313.117 128.201C306.546 143.15 289.452 161.816 273.752 165.903C271.58 166.137 269.407 166.355 267.266 166.54C260.779 167.101 254.177 167.338 247.461 167.253" stroke="#DF01E5" stroke-width="2.5" stroke-miterlimit="10"/>
<path d="M345.202 149.108C338.992 142.503 340.691 133.106 330.939 134.598C315.68 136.937 319.026 174.995 276.81 178.679C274.88 178.844 272.967 179.089 271.053 179.254C265.296 179.747 259.517 179.981 253.749 179.906" stroke="#DF01E5" stroke-width="2.5" stroke-miterlimit="10"/>
<path d="M355.087 170.461C327.944 160.54 310.519 185.246 284.7 190.278C282.512 190.562 280.324 190.812 278.216 191.029C271.971 191.653 265.694 191.901 259.419 191.773" stroke="#DF01E5" stroke-width="2.5" stroke-miterlimit="10"/>
<path d="M368.035 180.49C365.323 181.46 362.595 182.42 359.851 183.369C357.347 184.162 354.827 184.923 352.306 185.635C331.718 189.793 312.378 198.271 291.229 201.057C289.069 201.377 286.881 201.661 284.666 201.906C278.182 202.689 271.563 203.166 265.052 203.331" stroke="#DF01E5" stroke-width="2.5" stroke-miterlimit="10"/>
<path d="M381.433 188.429C370.992 192.259 360.369 195.93 349.627 199.261C347.479 199.934 345.33 200.574 343.164 201.215C333.576 202.769 323.92 207.821 311.76 209.063C309.558 209.493 307.357 209.923 305.138 210.304C294.136 212.304 283.011 213.557 271.841 214.056" stroke="#DF01E5" stroke-width="2.5" stroke-miterlimit="10"/>
<path d="M288.519 223.807C271.457 205.347 263.145 182.079 250.805 160.656C232.246 128.465 207.075 103.532 179.074 79.2837" stroke="#DF01E5" stroke-width="2.5" stroke-miterlimit="10"/>
<path d="M297.711 222.796C279.522 204.958 270.325 182.145 257.934 160.544C239.304 128.078 214.661 102.631 186.844 77.7778" stroke="#DF01E5" stroke-width="2.5" stroke-miterlimit="10"/>
<path d="M307.205 221.471C298.036 213.027 290.122 203.312 283.703 192.622C282.382 190.531 281.11 188.424 279.853 186.3C278.597 184.176 277.372 182.019 276.148 179.862C272.475 173.423 268.913 166.819 265.125 160.285C246.282 127.693 222.31 101.649 194.645 76.1909" stroke="#DF01E5" stroke-width="2.5" stroke-miterlimit="10"/>
<path d="M317.036 219.783C312.582 216.188 308.417 212.25 304.577 208.005C303.317 206.613 302.106 205.187 300.911 203.761C292.775 192.117 282.798 179.287 276.264 166.395C274.991 164.249 273.712 162.061 272.427 159.829C253.275 127.193 229.942 100.585 202.461 74.522" stroke="#DF01E5" stroke-width="2.5" stroke-miterlimit="10"/>
<path d="M327.232 217.73C324.857 215.707 322.578 213.65 320.364 211.56C302.576 195.194 290.83 174.265 277.129 155.777C275.643 153.494 274.172 151.211 272.685 148.896C256.312 123.561 238.88 97.1722 210.34 72.771" stroke="#DF01E5" stroke-width="2.5" stroke-miterlimit="10"/>
<path d="M337.794 215.264C335.308 213.373 332.852 211.401 330.509 209.394C309.049 190.265 306.096 174.153 287.264 153.009C285.491 151.057 280.448 150.66 271.469 139.112C253.888 116.173 238.564 91.3724 218.266 70.9214" stroke="#DF01E5" stroke-width="2.5" stroke-miterlimit="10"/>
<path d="M348.756 212.367C346.112 210.789 343.515 209.063 340.997 207.287C338.48 205.51 336.059 203.651 333.619 201.646C317.021 181.925 312.241 159.911 301.938 147.916C293.925 138.579 287.81 148.17 278.045 137.14C276.235 134.856 274.565 132.464 273.043 129.977C258.183 108.42 243.501 86.7954 226.207 69.0225" stroke="#DF01E5" stroke-width="2.5" stroke-miterlimit="10"/>
<path d="M360.165 209.024C357.395 207.34 354.688 205.588 352.046 203.771C349.414 201.948 346.83 200.059 344.342 198.088C325.106 183.407 327.858 155.712 319.359 134.724C312.631 121.836 298.249 135.103 286.853 133.681C285.2 132.085 283.518 128.863 281.621 127.27C280.091 125.265 278.608 123.194 277.109 121.123C263.649 102.468 250.091 83.734 234.26 66.9268" stroke="#DF01E5" stroke-width="2.5" stroke-miterlimit="10"/>
<path d="M372.002 205.17C369.061 203.596 366.2 201.945 363.418 200.217C360.636 198.489 357.924 196.7 355.281 194.851C335.185 181.128 334.521 154.975 333.238 135.988C333.038 132.967 331.521 104.552 324.041 101.385C308.655 94.88 303.257 119.955 295.787 123.715C290.588 126.345 280.7 113.025 278.785 110.425C267.486 94.5873 255.326 79.3823 242.362 64.8789" stroke="#DF01E5" stroke-width="2.5" stroke-miterlimit="10"/>
<path d="M384.335 200.834C376.109 196.899 368.206 192.321 360.698 187.142C358.219 185.47 355.838 183.656 353.567 181.709C340.132 168.03 337.94 139.123 336.874 123.124C335.807 107.125 338.274 82.5584 323.314 82.6153C309.508 82.6678 306.022 114.717 295.753 113.649C293.523 113.429 281.642 101.234 280.294 99.4698C270.927 87.0838 261.217 74.655 250.526 62.6992" stroke="#DF01E5" stroke-width="2.5" stroke-miterlimit="10"/>
</g>
</svg>
