<svg width="307" height="618" viewBox="0 0 307 618" fill="none" xmlns="http://www.w3.org/2000/svg">
<g opacity="0.5">
<path d="M2 586.594C70.3762 580.971 139.662 579.052 207.621 584.655L223.668 584.946C250.439 585.45 277.342 586.051 304.644 586.633" stroke="#DF01E5" stroke-width="2.5" stroke-miterlimit="10"/>
<path d="M2 557.298C21.5259 553.305 41.2447 550.373 61.0737 548.514C67.3069 547.991 73.5212 547.584 79.6408 547.545C104.991 548.204 129.109 551.287 154.781 549.018C161.782 548.692 168.796 548.744 175.792 549.174C182.916 549.736 190.039 550.395 197.163 551.112C204.287 551.83 211.429 552.605 218.572 553.439L240.095 554.409C261.636 555.397 283.178 556.347 304.625 557.317" stroke="#DF01E5" stroke-width="2.5" stroke-miterlimit="10"/>
<path d="M2 528.892C6.62283 527.729 14.7507 524.704 19.4114 523.599C24.0721 522.494 28.7518 521.389 33.4504 520.342C45.5764 517.385 58.2175 517.438 70.3193 520.497C77.3673 521.79 84.3647 522.778 91.3115 523.464C98.2584 524.149 105.205 524.549 112.152 524.666C145.762 526.605 177.421 515.863 209.838 510.531C215.264 510.598 220.649 511.507 225.809 513.226C231.948 514.7 238.093 516.277 244.244 517.957C250.382 519.624 256.54 521.35 262.716 523.076C269.954 524.64 277.191 526.352 284.428 528.214C290.453 529.745 297.994 528.214 304.738 528.059" stroke="#DF01E5" stroke-width="2.5" stroke-miterlimit="10"/>
<path d="M2 499.131C8.45149 498.339 14.8578 497.199 21.1923 495.718C35.9469 491.702 51.0155 489.01 66.227 487.672C73.9001 486.858 80.0765 488.04 87.0676 488.874C135.209 498.84 180.434 481.875 222.626 454.11C228.651 449.495 236.192 464.909 245.968 471.56C249.928 474.817 253.925 478.152 258.018 481.409C266.183 487.885 273.875 496.591 284.22 498.491C289.904 499.557 297.994 498.762 304.776 498.743" stroke="#DF01E5" stroke-width="2.5" stroke-miterlimit="10"/>
<path d="M2 469.058C7.15332 468.496 13.3676 467.624 18.2367 466.557C21.7122 465.838 25.1173 464.799 28.4107 463.455C32.6925 459.875 37.1575 456.397 41.8056 453.024C46.1632 449.766 49.6303 446.994 53.0595 444.415C112.531 410.931 204.476 392.414 255.062 449.398C262.276 454.449 269.879 458.89 277.797 462.679C286.275 466.534 295.393 468.699 304.663 469.058" stroke="#DF01E5" stroke-width="2.5" stroke-miterlimit="10"/>
<path d="M2.30273 440.189C7.331 439.844 12.3351 439.196 17.289 438.25C20.8767 437.387 24.2968 435.912 27.4062 433.887C32.749 426.966 38.2244 420.781 42.9798 415.235C92.9405 364.65 187.197 369.652 240.814 423.514C244.319 427.043 248.184 429.04 254.209 432.511C264.762 438.696 290.983 437.998 304.643 436.602" stroke="#DF01E5" stroke-width="2.5" stroke-miterlimit="10"/>
<path d="M2.16992 411.183C9.59989 411.641 17.0558 411.355 24.4315 410.33C31.0058 408.546 35.1549 406.452 39.0957 402.574C94.7402 347.665 150.214 349.197 204.476 373.879C221.053 381.634 229.598 397.397 240.643 410.892C249.321 421.498 297.841 409.399 304.643 410.078" stroke="#DF01E5" stroke-width="2.5" stroke-miterlimit="10"/>
<path d="M2.15234 381.983H12.2127C17.1018 382.669 22.0415 382.903 26.9716 382.681C94.3626 336.942 186.762 306.23 248.185 393.965C260.5 411.551 291.61 382.157 304.625 383.243" stroke="#DF01E5" stroke-width="2.5" stroke-miterlimit="10"/>
<path d="M2.15234 352.745C2.15234 352.745 12.7811 352.745 30.1356 352.745C37.1646 352.396 40.5749 357.398 44.7051 353.501C50.1138 348.468 55.8901 343.866 61.9839 339.735C112.532 301.5 183.371 301.5 234.753 339.134C241.554 342.507 248.299 345.939 255.044 349.255C261.789 352.57 268.514 355.73 275.297 358.561C284.353 363.195 295.077 353.539 304.872 353.384" stroke="#DF01E5" stroke-width="2.5" stroke-miterlimit="10"/>
<path d="M2.15234 323.526C2.15234 323.526 12.7621 323.526 27.2937 323.661C32.6554 321.47 38.6613 327.539 43.2084 323.002C95.9541 270.652 175.83 259.775 238.466 292.794C242.807 294.955 246.992 297.43 250.989 300.201C264.763 307.588 269.045 322.285 286.343 324.185C292.451 324.514 298.576 324.287 304.644 323.506" stroke="#DF01E5" stroke-width="2.5" stroke-miterlimit="10"/>
<path d="M2.15234 294.287C10.6212 293.996 19.3553 295.314 26.2138 295.586C31.1397 295.237 35.6868 295.237 38.6803 293.647C94.4384 248.917 163.724 247.366 226.644 264.932C233.985 266.412 241.23 268.355 248.337 270.749C262.862 275.622 276.54 282.82 288.862 292.077C291.875 295.14 297.919 293.608 304.663 294.19" stroke="#DF01E5" stroke-width="2.5" stroke-miterlimit="10"/>
<path d="M2.15234 265.068C2.15234 265.068 10.5644 265.068 24.4329 265.204C32.6554 265.941 39.7602 266.29 46.2587 263.847C94.4384 230.459 154.725 235.093 210.445 240.813C215.882 241.007 221.339 241.375 226.738 241.976C248.724 244.037 269.965 251.176 288.862 262.858C293.391 265.941 299.415 264.39 304.758 264.971" stroke="#DF01E5" stroke-width="2.5" stroke-miterlimit="10"/>
<path d="M2.15234 235.83C2.15234 235.83 10.5454 235.83 24.4707 235.927C34.1522 235.093 43.2084 236.625 50.7299 232.049C55.599 228.966 60.4113 226.232 65.2615 223.75C105.048 201.201 148.624 210.45 188.79 221.811C193.545 222.645 198.263 223.324 203.207 223.886C217.731 225.368 232.32 226.08 246.916 226.019C251.598 226.152 256.258 226.717 260.841 227.706C268.798 229.759 276.645 232.232 284.353 235.112C290.378 236.644 297.919 235.112 304.872 235.675" stroke="#DF01E5" stroke-width="2.5" stroke-miterlimit="10"/>
<path d="M2.11328 206.63C43.2072 211.962 76.3627 181.114 115.543 181.114C120.564 181.389 125.562 181.985 130.51 182.898C135.006 184.041 139.351 185.733 143.451 187.939C190.816 222.742 251.197 210.411 304.814 206.475" stroke="#DF01E5" stroke-width="2.5" stroke-miterlimit="10"/>
<path d="M2 177.217C33.0525 181.677 64.0482 166.631 94.3618 164.944C123.785 163.315 134.148 169.035 146.122 175.007C195.477 199.553 238.238 213.125 304.871 180.3" stroke="#DF01E5" stroke-width="2.5" stroke-miterlimit="10"/>
<path d="M2.15234 147.261C29.5862 153.524 60.2598 155.288 88.5083 154.241C95.5751 153.989 102.661 153.621 109.633 153.272C115.544 153.272 121.569 151.798 127.594 153.272C189.396 181.037 244.813 188.288 304.758 154.939" stroke="#DF01E5" stroke-width="2.5" stroke-miterlimit="10"/>
<path d="M2 119.225C30.0969 131.556 59.8801 136.927 88.8675 138.226C96.1238 138.536 103.361 138.633 110.485 138.555C171.302 140.998 232.668 142.201 291.874 120.95C303.052 116.937 304.871 118.41 304.871 116.937" stroke="#DF01E5" stroke-width="2.5" stroke-miterlimit="10"/>
<path d="M2 89.7151C30.0591 99.0412 55.6551 116.666 83.4679 124.053C89.0549 125.574 94.7599 126.599 100.519 127.116C108.098 127.116 116.51 127.698 123.141 124.033C190.816 86.5741 240.833 56.1142 304.663 86.8262" stroke="#DF01E5" stroke-width="2.5" stroke-miterlimit="10"/>
<path d="M2.07617 60.4574C10.4124 61.7177 21.5527 62.2024 29.1879 64.8199C52.3589 72.7887 67.8378 89.405 87.2954 93.4185C93.7055 94.7422 100.216 95.4947 106.753 95.6676C114.028 97.8198 121.569 94.7369 127.594 90.103C177.346 42.2319 243.221 27.4576 304.663 58.0726" stroke="#DF01E5" stroke-width="2.5" stroke-miterlimit="10"/>
<path d="M2.15234 31.2384C10.0149 31.1027 17.9154 31.0833 25.797 31.1415C33.628 32.3436 41.4653 33.5004 49.309 34.6121C57.2095 35.8529 65.2047 37.2877 73.0294 38.199C96.1284 43.8823 120.029 45.333 143.622 42.4839C151.561 42.1737 157.945 39.4205 165.183 37.3265C202.923 23.7543 242.104 20.6909 280.924 31.0251C295.683 31.2384 304.607 31.2384 304.607 31.2384" stroke="#DF01E5" stroke-width="2.5" stroke-miterlimit="10"/>
<path d="M277.154 2C277.154 2 277.154 5.87777 277.154 12.819C293.41 77.7717 311.503 144.082 279.939 208.647C278.846 215.594 278.383 222.63 278.556 229.664C278.758 237.497 278.866 245.356 278.878 253.241C278.67 270.691 278.121 288.141 277.571 305.591C277.003 312.009 276.51 318.291 275.298 325.426C273.733 332.494 271.623 339.425 268.989 346.152C266.412 352.88 263.551 359.492 260.823 366.104C251.217 389.37 248.205 413.994 254.457 437.048C256.162 441.953 258.246 446.742 260.444 451.667C267.056 466.189 274.597 480.614 276.889 496.261C277.703 503.559 278.057 510.903 277.95 518.248C277.95 545.606 277.533 573.041 276.908 600.825C276.908 605.789 276.996 610.752 277.173 615.716" stroke="#DF01E5" stroke-width="2.5" stroke-miterlimit="10"/>
<path d="M249.604 2.01953C249.604 11.4425 248.183 20.691 251.196 29.9589C273.798 90.0644 273.798 154.881 253.583 214.851C252.929 219.993 252.675 225.179 252.825 230.362C253.166 246.571 253.052 262.877 252.825 279.242C252.674 287.404 251.556 298.495 252.2 303.943C251.063 311.117 249.642 318.213 248.07 325.271C246.497 332.328 244.792 339.289 243.068 346.23C234.921 385.008 236.285 428.613 241.704 468.38C243.03 473.596 244.47 478.889 245.815 484.221C249.851 500.197 252.958 516.464 252.181 533.488C251.973 540.39 251.745 547.273 251.537 554.156C250.855 574.805 250.116 595.377 249.642 615.755" stroke="#DF01E5" stroke-width="2.5" stroke-miterlimit="10"/>
<path d="M221.888 2.13574C221.054 8.35957 220.77 14.2538 218.099 17.6468C168.839 78.1207 177.422 156.471 224.142 215.084C228.652 222.839 227.155 232.049 227.932 240.289C228.254 246.106 228.424 251.787 228.481 257.526C228.538 263.265 228.481 268.985 228.481 274.704C228.348 282.344 228.178 292.62 228.254 297.583C227.591 302.799 227.022 308.15 226.492 313.599C225.961 319.047 225.469 324.553 225.014 330.098C230.432 386.326 237.878 428.536 228.955 493.178C227.951 500.41 230.262 507.759 230.849 515.088C230.76 524.421 230.102 533.739 228.879 542.988C228.146 549.968 227.256 556.981 226.208 564.025C225.159 571.07 223.966 578.134 222.627 585.217C219.724 595.073 219.521 605.556 222.039 615.522" stroke="#DF01E5" stroke-width="2.5" stroke-miterlimit="10"/>
<path d="M194.15 2.21326C191.555 8.37892 189.376 14.816 185.606 19.6632C137.331 81.0096 98.9655 171.846 187.879 211.962C193.923 215.045 195.458 221.211 197.352 227.706C201.141 246.086 203.983 264.545 205.992 283.1C206.674 289.278 207.261 295.483 207.753 301.713C218.079 370.815 251.216 435.69 212.376 508.534C210.785 515.902 209.092 523.257 207.299 530.599C206.295 535.64 205.234 540.565 204.173 545.528C202.846 551.578 201.426 557.646 199.967 563.734C198.508 569.822 196.992 575.969 195.476 582.134C192.464 592.934 193.98 605.265 194.51 615.483" stroke="#DF01E5" stroke-width="2.5" stroke-miterlimit="10"/>
<path d="M166.356 2.34912C162.567 8.49539 159.062 14.8356 155.689 21.3308C151.9 28.7374 147.922 37.346 144.814 43.6862C117.096 91.6542 97.4494 153.35 141.177 199.67C143.981 204.168 146.861 208.569 149.608 212.68C162.264 232.068 175.829 248.976 183.37 272.106C185.378 279.048 187.159 286.028 188.618 293.046C190.076 300.065 191.497 307.084 192.994 313.696C228.575 378.532 237.631 455.661 193.373 519.974C190.455 526.023 187.291 531.995 183.9 537.812C181.911 543.764 180.111 550.143 178.122 556.561C174.332 569.377 169.88 582.057 165.276 594.466C163.779 602.221 166.621 609.434 165.541 616.647" stroke="#DF01E5" stroke-width="2.5" stroke-miterlimit="10"/>
<path d="M139.473 2C136.915 8.65038 133.069 17.0264 130.587 23.8706C127.688 32.8865 124.903 41.3206 122.194 51.7131C107.359 93.2634 104.669 135.977 110.978 177.741C112.039 184.701 113.327 191.643 114.767 198.409C118.556 207.348 118.556 218.147 124.487 227.396C136.406 245.584 146.27 265.098 153.891 285.562C156.392 292.116 158.741 298.669 161.109 304.699C171.207 324.514 173.386 338.339 186.952 358.387C227.648 412.365 210.407 481.836 170.942 524.821C167.02 530.269 162.852 535.62 158.438 540.778C155.755 545.605 153.674 550.758 152.242 556.115C147.639 575.639 141.727 596.754 139.208 616.647" stroke="#DF01E5" stroke-width="2.5" stroke-miterlimit="10"/>
<path d="M111.281 2C110.239 9.05755 108.705 18.2479 107.492 25.5769C101.543 81.5332 96.8065 138.381 99.1937 194.57C99.5347 202.597 99.9894 210.43 100.387 217.43C100.387 241.685 102.282 266.542 107.833 289.75C109.501 296.989 111.615 304.112 114.161 311.078C116.86 319.998 122.073 327.904 129.147 333.802C157.775 353.85 157.434 370.524 164.955 409.089C172.534 459.985 174.428 494.225 146.009 530.211C142.22 535.582 138.431 540.875 134.49 545.955C132.194 550.605 130.231 555.419 128.617 560.361C124.828 572.944 120.356 585.353 115.639 597.549C114.123 602.183 113.934 610.384 113.252 616.647" stroke="#DF01E5" stroke-width="2.5" stroke-miterlimit="10"/>
<path d="M85.2318 2C83.2025 6.84636 81.623 11.8773 80.5143 17.0264C79.7708 21.843 79.3907 26.7111 79.3775 31.5874C80.8743 68.6008 92.9429 105.634 92.9429 142.647C92.185 159.612 88.7937 176.19 85.6865 192.767C84.6445 198.274 83.6404 203.799 82.7878 209.345C75.3989 236.954 74.0916 264.622 75.683 292.329C76.0809 299.251 76.6682 306.192 77.3124 313.056C76.3651 377.039 87.619 435.07 103.496 505.102C105.39 513.866 106.508 522.068 107.456 529.494C107.726 535.322 107.466 541.164 106.679 546.944C105.849 552.875 104.342 558.686 102.189 564.258C99.9753 571.392 97.3628 578.39 94.3638 585.217C89.8547 594.466 84.9855 605.944 86.217 616.647" stroke="#DF01E5" stroke-width="2.5" stroke-miterlimit="10"/>
<path d="M56.9062 2.01953C56.9062 8.78625 56.9062 15.5917 57.0388 22.2615C57.1715 28.9313 57.2473 35.698 57.3609 42.3872C58.2703 51.5387 58.2703 60.8066 61.2828 70.0551C68.8612 94.7371 83.8854 119.419 79.3762 145.672C75.587 175.24 61.3775 201.589 56.5273 229.761C55.4095 235.229 54.2538 240.328 53.6475 245.621C46.9217 273.541 46.5617 301.384 47.9637 329.11C48.3237 336.032 48.7973 342.953 49.271 349.875C49.1763 392.531 46.1638 435.652 57.0199 479.277C58.0051 484.182 59.104 489.087 60.3733 494.012C62.9943 504.065 66.4291 513.878 70.6421 523.347C72.4041 529.688 74.4313 534.341 74.166 541.961C72.2714 566.585 65.6025 592.857 57.7777 616.685" stroke="#DF01E5" stroke-width="2.5" stroke-miterlimit="10"/>
<path d="M29.6414 2C29.6414 9.15449 29.6414 16.2896 29.4519 23.3278C29.6603 29.5322 29.8308 35.756 29.9445 41.9605C30.0582 48.1649 30.115 54.3693 30.1529 60.5738C32.6538 90.0255 52.244 116.239 49.2315 145.555C47.7159 173.32 41.9184 176.345 35.742 213.416C34.6242 220.202 28.5993 240.948 28.7509 247.618C26.61 295.257 28.1257 344.563 31.1381 392.802C29.9186 400.331 29.197 407.936 28.9783 415.565C27.7657 453.179 37.2577 489.591 37.7124 528.02C37.5608 535.323 37.3082 542.633 36.9545 549.949C35.8746 571.839 32.2559 594.912 29.3761 616.647" stroke="#DF01E5" stroke-width="2.5" stroke-miterlimit="10"/>
<path d="M304.871 2H2V616.647H304.871V2Z" stroke="#DF01E5" stroke-width="2.5" stroke-miterlimit="10"/>
</g>
</svg>
