<svg width="214" height="240" viewBox="0 0 214 240" fill="none" xmlns="http://www.w3.org/2000/svg">
<path d="M54.3276 236.439C53.6771 236.847 53.008 237.107 52.3018 236.625C51.9673 236.884 51.7443 237.107 51.4841 237.274C50.5363 237.849 49.3654 237.682 48.8822 236.68C48.1203 235.085 47.1167 233.545 47.1353 231.653C47.1539 229.965 47.191 228.295 47.5441 226.607C47.953 224.641 48.1574 222.656 47.5255 220.652C47.2839 219.873 47.3025 218.964 47.4326 218.129C47.6928 216.385 47.6742 214.642 47.7486 212.898C47.9716 207.796 47.4698 202.75 46.6335 197.723C46.1317 194.643 45.5184 191.582 45.0724 188.503C44.6263 185.312 44.4405 182.084 44.7193 178.838C44.9237 176.407 45.1095 173.996 45.3883 171.566C45.5927 169.673 45.4441 167.763 45.091 165.87C44.4591 162.605 43.8458 159.322 43.2139 156.057C42.8608 154.239 42.7121 152.384 42.6935 150.528C42.6006 145.297 42.5077 140.047 42.359 134.816C42.2847 132.497 42.0802 130.159 41.9501 127.84C41.8386 125.781 41.7829 123.722 41.6899 121.663C41.6342 120.438 41.5599 119.233 41.4855 118.008C41.4669 117.804 41.4669 117.563 41.3926 117.396C41.3183 117.229 41.1324 117.081 40.9466 117.025C40.6678 116.951 40.4262 117.118 40.3333 117.396C40.2589 117.637 40.2218 117.915 40.2032 118.175C40.166 118.75 40.1288 119.344 40.1102 119.919C40.0731 125.373 39.5155 130.809 39.2925 136.244C39.2182 138.248 39.2368 140.27 39.1996 142.273C39.1438 145.13 39.0881 147.987 39.0323 150.844C38.9952 153.497 38.512 156.094 38.0102 158.691C37.4898 161.344 37.0066 163.997 36.5048 166.649C36.1517 168.486 36.1145 170.36 36.3933 172.178C36.8208 175.165 37.0066 178.188 37.0995 181.194C37.211 184.681 36.8765 188.169 36.1517 191.601C35.334 195.497 34.8136 199.411 34.3118 203.362C33.7543 207.74 33.9401 212.137 34.0888 216.515C34.126 217.406 34.3118 218.296 34.3304 219.187C34.349 219.762 34.2561 220.355 34.0888 220.893C33.6985 222.192 33.6799 223.509 33.8658 224.826C33.9959 225.717 34.2003 226.589 34.3304 227.479C34.5906 229.316 34.6649 231.171 34.3862 233.007C34.349 233.323 34.2003 233.601 34.0702 233.898C33.7729 234.621 33.4755 235.363 33.141 236.087C32.8622 236.662 32.5649 237.218 31.8586 237.404C31.2082 237.571 30.6135 237.589 30.0745 237.126C29.8701 236.959 29.6656 236.792 29.4612 236.606C28.7178 236.884 27.993 236.903 27.3983 236.365C26.7478 236.643 26.1903 237.181 25.4469 236.755C25.3726 236.699 25.1867 236.68 25.1496 236.718C24.2947 237.515 23.3468 236.755 22.4548 236.884C21.9344 236.959 21.4698 236.625 21.3954 236.124C21.191 234.77 21.0237 233.378 21.8415 232.135C22.0087 231.876 22.1574 231.579 22.3618 231.338C23.8858 229.39 24.7221 227.089 25.6699 224.863C25.9487 224.233 25.9487 223.657 25.6885 223.027C25.2611 221.951 25.3168 220.838 25.5956 219.743C26.1903 217.554 26.1903 215.347 26.023 213.12C25.7814 210.115 25.5027 207.11 25.1681 204.104C24.7779 200.58 24.5363 197.055 24.0345 193.53C23.4769 189.616 22.9566 185.665 22.8636 181.695C22.7893 178.559 22.9751 175.461 23.6256 172.382C24.0345 170.471 24.4805 168.542 24.6663 166.612C25.0009 163.292 25.1496 159.971 24.592 156.65C24.2017 154.294 23.923 151.938 23.607 149.582C23.2167 146.596 22.845 143.609 22.4548 140.604C21.414 132.515 20.7078 124.39 21.0052 116.227C21.0981 113.63 21.3769 111.051 21.8786 108.51C22.6406 104.559 23.2725 100.589 23.3468 96.5629C23.3654 95.3942 23.4398 94.2255 23.5884 93.0753C23.6628 92.4075 23.8486 91.7211 24.0716 91.0718C24.9823 88.3447 25.3912 85.5249 25.8 82.6866C25.9115 81.9631 25.7814 81.2025 25.8 80.479C25.8558 78.2343 25.5027 76.0824 24.9451 73.9119C24.2947 71.3518 23.5884 68.7917 23.4026 66.1389C23.2911 64.562 23.2167 62.9666 23.1796 61.3898C23.1424 59.9057 23.0681 58.4401 22.8265 56.9189C22.4734 58.5514 22.176 60.1283 21.7671 61.6866C20.968 64.7105 19.7414 67.5859 18.5334 70.4613C17.6042 72.6689 16.7121 74.858 16.2846 77.2325C15.9315 79.1619 15.5598 81.0727 15.2811 83.0205C14.7421 86.8421 13.4598 90.4039 11.6756 93.8174C9.70566 97.5833 8.16312 101.516 7.19672 105.653C6.84361 107.193 6.58342 108.77 6.30465 110.235C6.43474 110.476 6.4905 110.643 6.58342 110.755C7.94011 112.165 8.47906 113.927 8.62774 115.801C8.73925 117.136 9.05519 118.398 9.4083 119.678C9.70566 120.698 9.96584 121.718 10.2446 122.739C10.3933 123.258 10.3747 123.796 10.1703 124.297C9.92867 124.872 9.22245 125.039 8.72066 124.594C8.14454 124.093 7.84718 123.425 7.587 122.72C7.28964 121.867 6.93653 121.051 6.58342 120.216C6.41616 119.826 6.17456 119.474 5.91437 119.14C5.80287 118.991 5.59843 118.917 5.31966 118.75C5.22674 119.028 5.13382 119.214 5.09665 119.399C4.96655 119.956 4.94797 120.587 4.72495 121.088C4.07449 122.46 4.52052 123.666 5.22674 124.816C5.48692 125.262 5.91437 125.596 6.26748 125.985C6.45333 126.171 6.69493 126.338 6.80644 126.56C7.28964 127.599 7.77284 128.638 8.27463 129.677C8.38614 129.918 8.3118 130.326 8.16312 130.567C7.90294 131.013 7.53124 131.384 7.15955 131.847C6.89936 131.699 6.65776 131.625 6.45333 131.476C5.13382 130.493 3.90722 129.436 2.79214 128.211C2.12309 127.488 1.63989 126.746 1.47263 125.763C1.23103 124.408 0.915085 123.073 0.22745 121.848C0.00443387 121.477 -0.0327355 120.921 0.0230186 120.475C0.376128 117.637 0.338959 114.78 0.859331 111.942C1.00801 111.07 0.915085 110.142 0.970839 109.252C0.989424 108.788 0.970839 108.269 1.17527 107.861C2.06734 106.061 2.32752 104.113 2.51337 102.165C3.12667 95.3571 4.2975 88.6416 5.61702 81.9446C5.72853 81.3695 5.80287 80.7944 5.89579 80.2193C6.19314 78.3827 6.63918 76.6018 7.30823 74.858C7.95869 73.1698 8.21888 71.3889 8.60916 69.6265C8.94368 68.0868 9.29679 66.5285 9.85433 65.0444C10.6163 62.9852 11.0066 60.8704 11.0252 58.6813C11.0438 57.2529 11.0995 55.8244 11.1367 54.396C11.1924 52.2626 11.4898 50.1663 12.1403 48.1442C12.8465 45.9737 14.0731 44.1371 16.1174 42.987C16.9909 42.5046 17.9015 42.0409 18.8308 41.6884C21.1724 40.7979 23.384 39.7034 25.577 38.479C27.7142 37.2917 29.8887 36.1972 32.0445 35.0656C32.2861 34.9357 32.5091 34.8244 32.7507 34.6946C33.7729 34.2122 34.2003 33.396 34.1446 32.2644C34.0516 30.5762 34.126 28.8695 33.7729 27.1999C33.6799 26.7917 33.587 26.3465 33.3454 26.0497C32.5091 25.0665 31.933 23.9534 31.5055 22.7105C30.4462 22.3765 29.9444 21.5417 29.5913 20.5585C29.1638 19.3527 28.9222 18.1098 28.8665 16.8297C28.8479 16.4587 28.9037 16.0877 28.9408 15.7166C28.9966 14.9932 29.4055 14.6778 30.1674 14.752C30.1303 13.9172 30.0745 13.1195 30.0745 12.3403C30.0931 11.5983 30.1674 10.8562 30.2603 10.1327C30.4462 8.55587 30.8179 7.01612 31.5241 5.56912C32.6949 3.13891 34.5906 1.54351 37.1553 0.801457C39.7757 0.0408562 42.3776 0.0594074 44.9794 0.931315C47.7857 1.87743 49.6256 3.76965 50.6478 6.51524C51.5027 8.77849 51.7257 11.1345 51.6328 13.5462C51.6142 13.8615 51.5956 14.1769 51.577 14.5294C51.9301 14.7334 52.4133 14.8633 52.5806 15.1601C52.8036 15.5497 52.8408 16.0691 52.8594 16.5329C52.9151 17.9799 52.6178 19.3712 52.0974 20.7255C51.7443 21.6159 51.3726 22.5435 50.2761 22.6548C49.8486 23.9163 49.3469 25.0294 48.492 25.9384C48.1946 26.2723 48.0645 26.6433 47.9902 27.07C47.6371 28.9066 47.6928 30.7617 47.5999 32.5983C47.5441 33.5444 48.0088 34.1937 48.8265 34.6389C50.2389 35.381 51.6328 36.1416 53.0266 36.8836C53.8258 37.3103 54.6435 37.6628 55.4241 38.108C58.0445 39.6106 60.7765 40.9092 63.6013 42.0037C64.8837 42.5046 66.0917 43.1725 67.1138 44.1186C68.1546 45.0833 68.8794 46.252 69.344 47.5506C69.7715 48.6822 70.106 49.888 70.2547 51.0753C70.4963 53.0232 70.552 54.9711 70.6635 56.9375C70.7007 57.7352 70.6635 58.5329 70.6821 59.3121C70.7193 60.8518 70.8865 62.3916 71.4441 63.8386C72.3176 66.1204 72.8937 68.4764 73.3583 70.8695C73.6185 72.2052 73.9716 73.5408 74.4176 74.858C75.0495 76.7688 75.5513 78.7166 75.9044 80.7016C76.4991 84.0408 77.0752 87.3801 77.7071 90.7007C78.2647 93.6133 78.5806 96.5629 78.8966 99.5126C79.0638 101.034 79.2497 102.555 79.4727 104.076C79.6585 105.338 79.9187 106.562 80.4948 107.731C80.6993 108.139 80.8479 108.658 80.7736 109.104C80.6063 110.235 80.755 111.33 80.9223 112.424C81.201 114.409 81.4427 116.413 81.4984 118.435C81.517 119.066 81.6471 119.696 81.7214 120.327C81.7772 120.846 81.8701 121.384 81.5542 121.867C80.7736 123.054 80.5134 124.408 80.2718 125.763C80.1046 126.764 79.6214 127.506 78.9709 128.23C77.7257 129.603 76.2947 130.79 74.8265 131.829C74.3061 131.829 74.1946 131.439 73.9902 131.142C73.7858 130.846 73.5442 130.567 73.3026 130.271C73.3769 129.992 73.4141 129.714 73.5256 129.491C73.9158 128.638 74.5291 127.896 74.7336 126.95C74.8079 126.634 75.1424 126.319 75.4212 126.115C76.5363 125.262 77.1124 124.112 77.3168 122.757C77.354 122.46 77.354 122.127 77.2797 121.83C77.0381 120.921 76.7221 120.03 76.4062 118.954C76.2203 118.787 75.9416 118.991 75.7929 119.288C75.2539 120.327 74.7707 121.366 74.269 122.423C74.0274 122.943 73.8787 123.518 73.5813 124.019C73.1167 124.835 72.5777 125.076 72.076 124.872C71.5556 124.668 71.3326 124.112 71.4255 123.221C71.4441 122.961 71.537 122.702 71.5928 122.442C71.8344 121.514 72.0945 120.605 72.3547 119.696C72.7078 118.472 72.968 117.248 73.0795 115.968C73.2282 114.112 73.7672 112.331 75.1053 110.903C75.2168 110.792 75.2725 110.643 75.384 110.458C74.9752 106.896 74.1389 103.408 72.8193 100.051C72.0388 98.0841 71.2025 96.1363 70.2361 94.2626C68.2475 90.4225 66.8722 86.3969 66.2775 82.093C66.0731 80.5718 65.7757 79.0691 65.497 77.5665C65.1439 75.6928 64.6421 73.8562 63.8429 72.1124C63.4527 71.2405 63.1181 70.35 62.7464 69.4781C61.2225 65.7679 59.7543 62.0205 59.141 58.0506C58.7879 57.9393 58.7321 58.1619 58.7135 58.3659C58.6578 59.0523 58.6206 59.7387 58.602 60.4251C58.5835 62.5956 58.5463 64.7661 58.2675 66.9181C58.1932 67.4931 58.1188 68.0682 57.9887 68.6433C57.4498 71.0179 56.9294 73.3924 56.3533 75.7484C56.1303 76.6389 56.0002 77.5108 56.0002 78.4198C56.0002 79.4772 55.8701 80.5347 55.8887 81.5921C55.9073 82.5382 56.0002 83.4843 56.1674 84.4304C56.6321 86.9719 57.0409 89.532 57.9144 91.9993C58.1374 92.6301 58.1932 93.335 58.2489 94.0214C58.4719 96.8783 58.6206 99.7166 58.8994 102.574C59.0481 104.206 59.3454 105.82 59.6614 107.434C60.4048 111.237 60.8136 115.059 60.8136 118.936C60.8136 122.052 60.8508 125.187 60.572 128.304C60.2932 131.365 60.0516 134.426 59.6985 137.468C59.1596 142.143 58.5463 146.818 57.9516 151.493C57.71 153.33 57.3569 155.148 57.1524 156.984C56.9666 158.71 56.7807 160.472 56.7993 162.197C56.8365 165.221 57.2082 168.208 57.8587 171.157C58.1374 172.456 58.3604 173.755 58.602 175.053C59.1782 178.207 58.9551 181.379 58.7693 184.551C58.5091 188.948 57.71 193.271 57.2268 197.63C56.8737 200.728 56.6506 203.845 56.3533 206.961C56.186 208.761 56.0373 210.542 55.8329 212.323C55.6099 214.326 55.7028 216.348 55.8143 218.352C55.8329 218.76 55.963 219.187 56.0931 219.595C56.502 220.856 56.5206 222.099 56.0373 223.324C55.8329 223.843 55.8515 224.325 56.0745 224.845C57.0595 227.182 57.9144 229.594 59.5499 231.597C60.572 232.859 60.6464 234.306 60.5163 235.809C60.4419 236.68 60.0516 236.996 59.1968 237.033C58.9366 237.033 58.6578 236.996 58.4348 237.107C57.9516 237.348 57.5241 237.293 57.0781 237.051C56.8922 236.959 56.6878 236.866 56.4834 236.866C56.1303 236.866 55.7586 237.033 55.4241 236.977C54.978 236.829 54.6621 236.588 54.3276 236.439Z" fill="#EB0C0C"/>
<path d="M181.8 238.424C181.428 238.573 181.094 238.721 180.74 238.832C180.276 238.981 179.793 238.981 179.365 238.684C178.919 238.35 178.436 238.257 177.878 238.257C177.525 238.257 177.154 238.127 176.819 237.998C176.113 237.719 175.407 237.571 174.663 237.868C174.087 238.109 173.53 237.998 172.972 237.738C172.247 237.422 172.006 236.792 171.95 236.087C171.913 235.697 172.136 235.419 172.489 235.178C174.05 234.157 175.388 232.877 176.633 231.505C176.708 231.43 176.726 231.319 176.782 231.226C176.689 230.874 176.373 230.967 176.131 230.948C175.332 230.874 174.552 230.855 173.753 230.763C173.269 230.707 172.805 230.725 172.359 230.967C171.708 231.319 171.039 231.653 170.426 232.043C169.162 232.859 167.805 233.415 166.337 233.731C165.984 233.805 165.538 233.898 165.259 233.749C164.423 233.36 163.717 233.657 162.973 233.953C162.676 234.065 162.397 234.213 162.119 234.362C161.078 234.918 160.074 234.881 159.201 234.046C158.662 233.527 158.011 233.397 157.324 233.267C156.915 233.193 156.487 233.119 156.116 232.952C155.465 232.636 155.428 231.69 156.06 231.43C157.398 230.874 158.364 229.798 159.628 229.112C160.929 228.407 162.1 227.479 163.308 226.626C164.479 225.809 165.65 224.993 166.802 224.14C168.567 222.841 170.129 221.357 171.485 219.65C171.931 219.094 172.173 218.5 172.284 217.795C172.582 215.903 172.693 213.992 172.582 212.1C172.34 208.186 172.006 204.29 171.708 200.394C171.448 196.907 171.169 193.437 170.909 189.95C170.649 186.74 170.389 183.513 170.129 180.303C170.036 179.19 169.98 178.077 169.961 176.983C169.943 175.35 169.961 173.699 169.998 172.066C170.036 169.84 169.906 167.633 169.422 165.444C169.162 164.256 169.013 163.051 169.125 161.826C169.199 161.028 169.069 160.249 168.828 159.489C168.289 157.782 167.713 156.057 167.267 154.331C166.746 152.235 166.3 150.102 165.928 147.968C165.315 144.536 164.813 141.086 164.237 137.635C163.494 133.146 162.936 128.619 162.75 124.074C162.602 120.642 162.49 117.192 162.397 113.76C162.379 112.869 162.509 111.96 162.583 111.07C162.62 110.588 162.695 110.124 162.695 109.642C162.806 105.894 162.899 102.128 162.992 98.381C163.011 97.9357 162.955 97.472 162.936 97.0453C162.546 97.0082 162.49 97.2493 162.416 97.4163C161.951 98.4181 161.468 99.4198 161.059 100.459C160.223 102.629 159.442 104.818 158.643 107.007C158.476 107.453 158.309 107.916 158.234 108.38C158.179 108.844 158.141 109.345 158.272 109.771C159.015 112.09 158.829 114.354 157.9 116.58C157.788 116.858 157.751 117.192 157.695 117.489C157.602 118.008 157.621 118.565 157.435 119.047C157.138 119.789 157.268 120.475 157.472 121.199C157.863 122.59 158.439 123.852 159.387 124.965C159.647 125.28 159.851 125.67 160 126.078C160.167 126.523 160 126.894 159.461 127.061C158.978 126.727 158.495 126.393 157.993 126.059C157.956 126.115 157.9 126.152 157.863 126.208C158.234 126.634 158.625 127.024 158.941 127.488C159.108 127.729 159.164 128.081 159.145 128.378C159.126 128.582 158.903 128.786 158.792 128.953C158.011 128.879 157.64 128.081 156.803 128.119C156.971 128.638 157.119 129.065 157.231 129.51C157.305 129.844 157.194 130.196 156.84 130.271C156.617 130.326 156.283 130.271 156.116 130.122C154.517 128.712 152.975 127.284 151.86 125.447C151.618 125.058 151.488 124.575 151.395 124.112C151.135 122.869 150.893 121.626 150.689 120.364C150.615 119.9 150.596 119.418 150.67 118.954C150.912 117.118 151.209 115.281 151.488 113.463C151.693 112.146 152.046 110.884 152.529 109.642C152.752 109.048 152.882 108.417 152.993 107.805C153.309 106.135 153.588 104.466 153.923 102.815C154.462 100.162 154.833 97.4905 155.075 94.8006C155.632 88.6045 156.692 82.5382 158.996 76.7131C159.554 75.3218 159.814 73.8748 159.907 72.3907C160.037 70.4985 160.204 68.5877 160.465 66.714C160.632 65.4525 160.985 64.2281 161.282 63.0038C161.635 61.4455 161.84 59.8872 161.821 58.2918C161.803 56.8633 161.821 55.4349 161.784 54.0064C161.747 52.244 162.026 50.5188 162.49 48.8306C162.955 47.1425 163.958 45.7882 165.352 44.7494C166.746 43.7105 168.14 42.6531 169.775 41.9852C171.411 41.3174 172.805 40.26 174.199 39.184C174.942 38.6089 175.277 37.9225 175.388 37.0506C175.5 36.2158 175.63 35.381 175.723 34.5276C175.853 33.3774 175.946 32.2273 176.039 31.0771C175.407 30.7246 174.812 30.873 174.254 30.9472C172.916 31.1142 172.099 30.3907 171.634 29.3333C170.519 26.8103 169.645 24.2131 169.144 21.4861C169.051 20.9667 169.032 20.4287 169.032 19.9093C169.069 18.2582 168.828 16.6442 168.567 15.0117C168.028 11.5797 168.605 8.35183 170.612 5.47639C172.693 2.50819 175.518 0.708723 179.198 0.374801C180.201 0.282045 181.205 0.263493 182.209 0.319147C185.331 0.504659 187.914 1.87745 189.94 4.19635C191.129 5.55059 191.984 7.146 192.579 8.87127C193.452 11.4128 193.471 13.9543 192.858 16.5329C192.467 18.1283 191.947 19.6681 191.241 21.1707C190.758 22.2282 190.33 23.3041 189.94 24.3986C189.271 26.328 189.215 28.3501 189.401 30.3536C189.494 31.4481 189.94 32.3942 190.776 33.1177C191.334 33.6001 191.928 34.0453 192.56 34.4163C195.46 36.1601 198.377 37.8854 201.295 39.6107C202.243 40.1857 203.191 40.7608 204.157 41.3174C206.332 42.5603 207.521 44.434 207.911 46.9013C208.079 48.0144 208.134 49.1089 208.023 50.222C207.893 51.7988 207.763 53.3942 207.688 54.9711C207.614 56.6778 207.856 58.3474 208.246 59.9985C208.71 62.002 209.194 64.0055 209.602 66.0462C209.826 67.1778 210.03 68.3651 209.993 69.5153C209.881 72.7617 210.327 75.9525 210.569 79.1804C210.866 83.1875 211.238 87.1946 211.461 91.2016C211.628 94.2626 211.572 97.3421 211.61 100.403C211.628 101.349 211.628 102.314 211.628 103.26C211.628 105.004 211.703 106.748 212.074 108.473C212.167 108.937 212.26 109.438 212.186 109.883C212.019 110.736 212.167 111.552 212.297 112.406C212.539 114.187 212.743 115.968 212.985 117.748C213.115 118.75 213.264 119.733 213.45 120.717C213.617 121.589 213.505 122.386 212.985 123.128C212.669 123.611 212.372 124.13 212.186 124.668C211.777 125.837 211.164 126.857 210.383 127.822C209.751 128.601 209.194 129.454 208.543 130.196C208.097 130.697 207.558 131.161 206.963 131.495C206.257 131.884 205.644 132.348 205.179 133.016C204.956 133.331 204.622 133.517 204.213 133.35C203.823 133.202 203.618 132.775 203.711 132.293C203.785 131.884 203.897 131.495 204.008 131.05C203.395 131.124 203.228 131.643 202.893 131.959C202.615 132.218 202.354 132.497 201.927 132.274C201.481 132.033 201.258 131.551 201.425 131.068C201.592 130.567 201.834 130.104 202.076 129.621C202.317 129.139 202.559 128.675 202.819 128.23C203.674 126.764 203.897 125.132 203.99 123.499C204.064 122.405 203.804 121.292 203.618 120.197C203.581 119.938 203.265 119.678 203.023 119.529C202.726 119.344 202.373 119.492 202.187 119.771C201.462 120.902 200.403 121.885 200.422 123.407C200.422 123.611 200.329 123.815 200.292 124.019C200.18 124.668 199.79 125.169 199.344 125.633C198.823 126.171 198.247 125.707 197.634 125.707C197.597 126.097 197.541 126.468 197.541 126.82C197.56 128.304 197.541 129.788 197.615 131.272C197.82 135.205 197.467 139.101 196.872 142.978C196.389 146.169 196.073 149.378 196.091 152.625C196.091 154.202 195.887 155.797 195.906 157.374C195.924 159.377 195.98 161.4 196.221 163.384C196.63 166.687 197.578 169.896 198.415 173.124C198.619 173.884 198.768 174.664 198.991 175.424C199.585 177.428 199.697 179.487 199.79 181.546C199.957 185.164 199.715 188.744 199.121 192.306C198.563 195.701 198.173 199.114 197.968 202.546C197.801 205.236 197.337 207.907 196.928 210.579C196.352 214.363 196.11 218.148 196.314 221.969C196.352 222.804 196.222 223.657 196.203 224.492C196.184 224.956 196.166 225.438 196.24 225.902C196.407 226.885 196.63 227.869 196.853 228.852C197.076 229.854 197.076 230.837 196.835 231.839C196.482 233.304 195.608 234.139 194.14 234.38C193.824 234.436 193.508 234.436 193.192 234.491C192.189 234.658 191.259 235.011 190.46 235.697C190.181 235.938 189.847 236.124 189.587 236.384C188.658 237.404 187.431 237.701 186.149 237.793C185.48 237.849 184.903 238.016 184.439 238.498C184.29 238.647 184.104 238.777 183.918 238.851C183.305 239.129 182.692 239.222 182.171 238.665C182.041 238.591 181.911 238.517 181.8 238.424ZM196.445 65.3041C196.184 66.3615 196.036 67.1407 195.794 67.9013C194.549 71.7599 194.196 75.767 193.62 79.737C193.359 81.4993 193.229 83.3174 193.545 85.1168C193.713 86.0073 193.898 86.8792 194.01 87.7697C194.159 88.8271 194.493 89.8103 194.846 90.8121C195.367 92.2591 195.943 93.6875 196.259 95.1901C196.965 98.381 197.541 101.609 198.136 104.837C198.786 108.473 198.749 112.127 197.894 115.708C197.262 118.435 197.337 121.162 197.448 123.907C197.448 124.093 197.56 124.26 197.708 124.631C197.82 124.278 197.913 124.13 197.894 124C197.708 122.646 197.968 121.384 198.507 120.142C198.712 119.659 198.805 119.121 198.953 118.62C199.771 115.93 201.221 113.612 203.209 111.664C203.897 110.977 204.25 110.235 204.25 109.289C204.25 108.287 204.306 107.286 204.343 106.284C204.399 103.891 204.194 101.516 203.637 99.1972C203.135 97.1009 202.485 95.0232 201.871 92.9455C201.091 90.2926 200.515 87.6212 200.57 84.8386C200.589 83.6142 200.626 82.4084 200.719 81.2025C200.868 79.1248 200.682 77.0842 200.05 75.0992C199.771 74.2458 199.492 73.3925 199.176 72.5391C198.377 70.3501 197.578 68.1796 196.76 65.9905C196.723 65.8421 196.63 65.7122 196.445 65.3041ZM182.822 227.145C184.272 226.013 185.368 224.863 186.427 223.695C187.357 222.674 187.84 221.487 187.821 220.096C187.821 217.665 187.858 215.235 187.877 212.805C187.896 207.833 187.803 202.862 187.45 197.908C187.338 196.276 187.226 194.643 187.115 193.011C187.041 191.842 186.966 190.692 186.873 189.523C186.743 187.779 186.595 186.054 186.502 184.31C186.409 182.362 186.316 180.396 185.907 178.485C185.758 177.762 185.703 177.02 185.572 176.296C185.387 175.09 185.238 173.884 184.978 172.697C184.42 170.119 183.807 167.54 183.212 164.98C183.156 164.72 183.082 164.46 182.989 164.219C182.933 164.052 182.952 163.793 182.58 163.885C182.58 164.089 182.562 164.294 182.58 164.498C182.859 166.316 183.101 168.152 183.435 169.97C184.216 174.126 184.922 178.3 184.941 182.548C184.959 185.423 184.718 188.262 184.049 191.044C182.227 198.576 181.465 206.256 181.112 213.974C181.056 215.235 181.094 216.515 181.261 217.777C181.725 220.801 182.283 223.843 182.822 227.145Z" fill="#EB0C0C"/>
<path d="M101.886 22.0612C102.481 21.0965 102.982 20.2988 103.466 19.4826C103.986 18.5921 104.246 17.646 104.097 16.5886C104.042 16.1619 104.042 15.7352 103.986 15.3271C103.428 11.4128 104.729 8.03646 107.071 4.97551C108.818 2.71226 111.178 1.24671 113.873 0.541762C117.125 -0.311595 120.359 -0.218838 123.5 1.26526C125.916 2.39689 127.663 4.1778 128.852 6.49671C130.246 9.24229 130.804 12.1734 130.562 15.2714C130.451 16.7184 129.967 18.0541 129.354 19.3527C129.243 19.5939 129.112 19.8165 128.982 20.0577C128.09 21.5232 127.496 23.0815 127.403 24.8253C127.273 27.1999 127.05 29.5744 127.217 31.9676C127.291 33.0435 127.551 34.0453 128.09 34.9914C128.741 36.1416 129.373 37.3103 130.005 38.479C130.209 38.8501 130.432 39.2211 130.525 39.6292C131.194 42.3006 131.677 45.0091 131.547 47.7918C131.398 50.8527 131.157 53.9137 130.469 56.919C130.413 57.123 130.413 57.3456 130.339 57.5312C129.726 58.8668 129.707 60.2953 129.596 61.7237C129.391 64.6919 128.964 67.623 128.388 70.517C128.072 72.131 127.96 73.7635 127.942 75.4146C127.904 77.381 127.849 79.3289 127.366 81.2396C127.124 82.2599 127.105 83.3174 127.217 84.3933C127.477 86.8607 127.644 89.3465 127.867 91.8324C127.904 92.2591 127.942 92.6858 128.09 93.0753C129.559 96.6928 130.135 100.514 130.878 104.299C131.324 106.581 131.287 108.825 130.859 111.07C130.636 112.276 130.283 113.426 129.707 114.521C129.168 115.541 128.685 116.617 128.146 117.656C127.83 118.286 127.681 118.936 127.7 119.641C127.774 123.87 127.774 128.119 127.904 132.348C128.072 138.34 127.886 144.295 126.827 150.213C126.548 151.716 126.473 153.256 126.325 154.795C126.25 155.482 126.25 156.168 126.213 156.854C125.953 160.435 126.381 163.922 127.477 167.336C128.276 169.859 129.131 172.363 129.707 174.942C130.729 179.598 131.491 184.292 131.38 189.097C131.343 191.119 130.952 193.104 130.339 195.014C129.874 196.48 129.577 197.964 129.484 199.522C129.187 203.956 128.778 208.39 128.443 212.824C128.258 215.254 128.183 217.684 127.997 220.114C127.886 221.765 128.183 223.379 128.388 225.012C128.462 225.642 128.518 226.273 128.574 226.904C128.629 227.59 128.648 228.277 128.759 228.945C128.964 230.206 129.057 231.468 128.927 232.748C128.834 233.601 128.592 234.399 128.146 235.141C127.7 235.864 127.068 236.328 126.213 236.384C125.265 236.458 124.318 236.495 123.37 236.476C121.995 236.458 120.619 236.365 119.244 236.309C117.274 236.235 115.341 236.513 113.408 236.922C111.754 237.256 110.063 237.441 108.372 237.608C107.703 237.682 106.997 237.571 106.309 237.478C105.194 237.311 104.097 237.274 103.038 237.794C102.443 238.09 101.812 238.165 101.254 237.664C100.901 237.348 100.492 237.33 100.065 237.348C99.3769 237.367 98.8937 237.051 98.3919 236.588C97.8158 236.05 97.2211 235.53 96.7751 234.881C96.3476 234.25 96.0688 233.582 96.5149 232.748C97.9273 232.618 99.3026 232.265 100.511 231.208C99.8415 231.208 99.2654 231.282 98.7079 231.189C97.4813 230.985 96.9795 230.354 96.9237 229.13C96.9052 228.666 97.0353 228.258 97.4441 228.054C97.853 227.831 98.3176 227.572 98.745 227.572C99.9716 227.572 101.05 227.108 102.053 226.57C104.766 225.086 107.647 224.047 110.453 222.786C113.111 221.58 115.527 219.947 117.98 218.278C118.166 216.571 118.129 214.883 117.999 213.195C117.553 207.611 117.07 202.008 116.624 196.424C116.456 194.217 116.345 191.991 116.233 189.764C116.085 187.074 116.01 184.366 115.806 181.676C115.583 178.782 115.267 175.888 114.412 173.087C113.724 170.805 113.148 168.486 112.665 166.167C112.33 164.516 112.2 162.809 112.07 161.121C111.996 160.212 111.847 159.34 111.568 158.487C109.822 153.274 108.279 147.987 107.145 142.589C106.532 139.639 106.142 136.652 105.956 133.628C105.528 126.746 105.733 119.863 105.603 112.981C105.584 112.09 105.566 111.181 105.528 110.291C105.361 106.265 105.12 102.258 105.473 98.2326C105.491 97.9728 105.473 97.7131 105.473 97.4349C105.436 95.8024 105.343 94.1513 105.361 92.5188C105.398 89.6062 105.213 86.7122 104.915 83.7997C104.729 81.9075 104.785 79.9967 104.729 78.0859C104.729 77.7706 104.804 77.4181 104.692 77.1398C104.19 75.8041 104.358 74.4128 104.395 73.0585C104.432 71.3147 104.413 69.5895 104.153 67.8456C103.912 66.176 103.893 64.4693 103.819 62.7812C103.781 62.1504 103.689 61.5382 103.503 60.926C102.778 58.57 102.945 56.2326 103.837 53.9322C104.562 52.0585 105.454 50.2591 106.439 48.4967C107.183 47.161 107.87 45.7697 108.521 44.3969C108.911 43.5435 109.413 42.8386 110.249 42.3933C110.751 42.1336 111.048 41.7255 111.327 41.2617C113.594 37.3845 113.557 36.9022 113 32.5055C112.962 32.2087 112.832 31.8933 112.702 31.6151C112.553 31.2997 112.275 31.1327 111.94 31.1513C111.308 31.1884 110.676 31.2441 110.045 31.3183C109.524 31.3739 109.004 31.5223 108.483 31.5594C107.108 31.6707 106.16 31.0029 105.733 29.7043C105.25 28.2017 104.766 26.6805 104.209 25.1964C104.005 24.6584 103.651 24.176 103.317 23.7308C102.852 23.1372 102.388 22.6363 101.886 22.0612Z" fill="#EB0C0C"/>
</svg>
