<svg width="131" height="167" viewBox="0 0 131 167" fill="none" xmlns="http://www.w3.org/2000/svg">
<g filter="url(#filter0_f_22_1200)">
<path d="M212.25 28.5C212.25 32.0204 209.494 35.5077 204.168 38.7782C198.871 42.0313 191.172 44.979 181.614 47.4615C162.506 52.4246 136.082 55.5 106.875 55.5C77.6682 55.5 51.2436 52.4246 32.1358 47.4615C22.5781 44.979 14.8793 42.0313 9.58183 38.7782C4.25608 35.5077 1.5 32.0204 1.5 28.5C1.5 24.9796 4.25608 21.4923 9.58183 18.2218C14.8793 14.9687 22.5781 12.021 32.1358 9.53851C51.2436 4.57542 77.6682 1.5 106.875 1.5C136.082 1.5 162.506 4.57542 181.614 9.53851C191.172 12.021 198.871 14.9687 204.168 18.2218C209.494 21.4924 212.25 24.9796 212.25 28.5Z" stroke="#30F4E2"/>
<path d="M212.25 56.0003C212.25 59.5207 209.494 63.0079 204.168 66.2784C198.871 69.5316 191.172 72.4792 181.614 74.9618C162.506 79.9248 136.082 83.0003 106.875 83.0003C77.6682 83.0003 51.2436 79.9248 32.1358 74.9618C22.5781 72.4792 14.8793 69.5316 9.58183 66.2784C4.25608 63.0079 1.5 59.5207 1.5 56.0003C1.5 52.4799 4.25608 48.9926 9.58183 45.7221C14.8793 42.469 22.5781 39.5213 32.1358 37.0388C51.2436 32.0757 77.6682 29.0003 106.875 29.0003C136.082 29.0003 162.506 32.0757 181.614 37.0388C191.172 39.5213 198.871 42.469 204.168 45.7221C209.494 48.9926 212.25 52.4799 212.25 56.0003Z" stroke="#30F4E2"/>
<path d="M212.25 83.5005C212.25 87.0209 209.494 90.5082 204.168 93.7787C198.871 97.0318 191.172 99.9795 181.614 102.462C162.506 107.425 136.082 110.501 106.875 110.501C77.6682 110.501 51.2436 107.425 32.1358 102.462C22.5781 99.9795 14.8793 97.0318 9.58183 93.7787C4.25608 90.5082 1.5 87.0209 1.5 83.5005C1.5 79.9801 4.25608 76.4929 9.58183 73.2223C14.8793 69.9692 22.5781 67.0215 32.1358 64.539C51.2436 59.5759 77.6682 56.5005 106.875 56.5005C136.082 56.5005 162.506 59.5759 181.614 64.539C191.172 67.0215 198.871 69.9692 204.168 73.2223C209.494 76.4929 212.25 79.9801 212.25 83.5005Z" stroke="#30F4E2"/>
<path d="M212.25 111C212.25 114.52 209.494 118.007 204.168 121.278C198.871 124.531 191.172 127.479 181.614 129.961C162.506 134.924 136.082 138 106.875 138C77.6682 138 51.2436 134.924 32.1358 129.961C22.5781 127.479 14.8793 124.531 9.58183 121.278C4.25608 118.007 1.5 114.52 1.5 111C1.5 107.479 4.25608 103.992 9.58183 100.721C14.8793 97.4682 22.5781 94.5206 32.1358 92.038C51.2436 87.075 77.6682 83.9995 106.875 83.9995C136.082 83.9995 162.506 87.075 181.614 92.038C191.172 94.5206 198.871 97.4682 204.168 100.721C209.494 103.992 212.25 107.479 212.25 111Z" stroke="#30F4E2"/>
<path d="M212.25 138.5C212.25 142.02 209.494 145.507 204.168 148.778C198.871 152.031 191.172 154.979 181.614 157.461C162.506 162.424 136.082 165.5 106.875 165.5C77.6682 165.5 51.2436 162.424 32.1358 157.461C22.5781 154.979 14.8793 152.031 9.58183 148.778C4.25608 145.507 1.5 142.02 1.5 138.5C1.5 134.979 4.25608 131.492 9.58183 128.222C14.8793 124.968 22.5781 122.021 32.1358 119.538C51.2436 114.575 77.6682 111.5 106.875 111.5C136.082 111.5 162.506 114.575 181.614 119.538C191.172 122.021 198.871 124.968 204.168 128.222C209.494 131.492 212.25 134.979 212.25 138.5Z" stroke="#30F4E2"/>
</g>
<defs>
<filter id="filter0_f_22_1200" x="0" y="0" width="213.75" height="167" filterUnits="userSpaceOnUse" color-interpolation-filters="sRGB">
<feFlood flood-opacity="0" result="BackgroundImageFix"/>
<feBlend mode="normal" in="SourceGraphic" in2="BackgroundImageFix" result="shape"/>
<feGaussianBlur stdDeviation="0.5" result="effect1_foregroundBlur_22_1200"/>
</filter>
</defs>
</svg>
