<svg width="82" height="122" viewBox="0 0 82 122" fill="none" xmlns="http://www.w3.org/2000/svg">
<g filter="url(#filter0_f_22_1194)">
<path d="M79.5167 20.8723C79.5167 23.3395 77.5823 25.8235 73.7426 28.1814C69.9312 30.522 64.3827 32.6478 57.4822 34.4402C43.6886 38.0229 24.6058 40.2446 3.50833 40.2446C-17.5891 40.2446 -36.672 38.0229 -50.4655 34.4402C-57.366 32.6478 -62.9145 30.522 -66.7259 28.1814C-70.5657 25.8235 -72.5 23.3395 -72.5 20.8723C-72.5 18.4051 -70.5657 15.9211 -66.7259 13.5632C-62.9145 11.2226 -57.366 9.09675 -50.4655 7.3044C-36.672 3.72166 -17.5891 1.5 3.50833 1.5C24.6058 1.5 43.6886 3.72166 57.4822 7.3044C64.3827 9.09675 69.9312 11.2226 73.7426 13.5632C77.5823 15.9211 79.5167 18.4051 79.5167 20.8723Z" stroke="#DF01E5"/>
<path d="M79.5167 40.7448C79.5167 43.212 77.5823 45.6959 73.7426 48.0539C69.9312 50.3945 64.3827 52.5203 57.4822 54.3127C43.6886 57.8954 24.6058 60.1171 3.50833 60.1171C-17.5891 60.1171 -36.672 57.8954 -50.4655 54.3127C-57.366 52.5203 -62.9145 50.3945 -66.7259 48.0539C-70.5657 45.6959 -72.5 43.212 -72.5 40.7448C-72.5 38.2775 -70.5657 35.7936 -66.7259 33.4356C-62.9145 31.0951 -57.366 28.9692 -50.4655 27.1769C-36.672 23.5941 -17.5891 21.3725 3.50833 21.3725C24.6058 21.3725 43.6886 23.5941 57.4822 27.1769C64.3827 28.9692 69.9312 31.0951 73.7426 33.4356C77.5823 35.7936 79.5167 38.2775 79.5167 40.7448Z" stroke="#DF01E5"/>
<path d="M79.5167 60.6172C79.5167 63.0845 77.5823 65.5684 73.7426 67.9264C69.9312 70.2669 64.3827 72.3928 57.4822 74.1851C43.6886 77.7679 24.6058 79.9895 3.50833 79.9895C-17.5891 79.9895 -36.672 77.7679 -50.4655 74.1851C-57.366 72.3928 -62.9145 70.2669 -66.7259 67.9264C-70.5657 65.5684 -72.5 63.0845 -72.5 60.6172C-72.5 58.15 -70.5657 55.6661 -66.7259 53.3081C-62.9145 50.9676 -57.366 48.8417 -50.4655 47.0494C-36.672 43.4666 -17.5891 41.245 3.50833 41.245C24.6058 41.245 43.6886 43.4666 57.4822 47.0494C64.3827 48.8417 69.9312 50.9676 73.7426 53.3081C77.5823 55.6661 79.5167 58.15 79.5167 60.6172Z" stroke="#DF01E5"/>
<path d="M79.5167 80.4888C79.5167 82.9561 77.5823 85.44 73.7426 87.798C69.9312 90.1385 64.3827 92.2644 57.4822 94.0567C43.6886 97.6395 24.6058 99.8611 3.50833 99.8611C-17.5891 99.8611 -36.672 97.6395 -50.4655 94.0567C-57.366 92.2644 -62.9145 90.1385 -66.7259 87.798C-70.5657 85.44 -72.5 82.9561 -72.5 80.4888C-72.5 78.0216 -70.5657 75.5377 -66.7259 73.1797C-62.9145 70.8392 -57.366 68.7133 -50.4655 66.921C-36.672 63.3382 -17.5891 61.1166 3.50833 61.1166C24.6058 61.1166 43.6886 63.3382 57.4822 66.921C64.3827 68.7133 69.9312 70.8392 73.7426 73.1797C77.5823 75.5377 79.5167 78.0216 79.5167 80.4888Z" stroke="#DF01E5"/>
<path d="M79.5167 100.361C79.5167 102.829 77.5823 105.312 73.7426 107.67C69.9312 110.011 64.3827 112.137 57.4822 113.929C43.6886 117.512 24.6058 119.734 3.50833 119.734C-17.5891 119.734 -36.672 117.512 -50.4655 113.929C-57.366 112.137 -62.9145 110.011 -66.7259 107.67C-70.5657 105.312 -72.5 102.829 -72.5 100.361C-72.5 97.8941 -70.5657 95.4102 -66.7259 93.0522C-62.9145 90.7116 -57.366 88.5858 -50.4655 86.7934C-36.672 83.2107 -17.5891 80.989 3.50833 80.989C24.6058 80.989 43.6886 83.2107 57.4822 86.7934C64.3827 88.5858 69.9312 90.7116 73.7426 93.0522C77.5823 95.4102 79.5167 97.8941 79.5167 100.361Z" stroke="#DF01E5"/>
</g>
<defs>
<filter id="filter0_f_22_1194" x="-74" y="0" width="155.017" height="121.234" filterUnits="userSpaceOnUse" color-interpolation-filters="sRGB">
<feFlood flood-opacity="0" result="BackgroundImageFix"/>
<feBlend mode="normal" in="SourceGraphic" in2="BackgroundImageFix" result="shape"/>
<feGaussianBlur stdDeviation="0.5" result="effect1_foregroundBlur_22_1194"/>
</filter>
</defs>
</svg>
