<svg width="250" height="199" viewBox="0 0 250 199" fill="none" xmlns="http://www.w3.org/2000/svg">
<path d="M48.5073 120.356C52.0694 128.837 57.158 136.386 63.6885 142.916C66.148 145.376 68.6923 147.581 71.4911 149.616C76.0708 153.009 80.9899 155.892 86.2481 158.097C94.9837 161.829 104.313 163.695 113.896 163.695C123.48 163.695 132.724 161.829 141.545 158.097C150.026 154.535 157.574 149.447 164.104 142.916C170.635 136.386 175.724 128.837 179.286 120.356C183.017 111.621 184.883 102.292 184.883 92.7081C184.883 86.5169 184.12 80.4105 182.508 74.4738C181.66 71.251 180.558 68.1129 179.286 65.0598C175.724 56.5787 170.635 49.0305 164.104 42.5001C157.574 35.9697 150.026 30.881 141.545 27.3189C141.036 27.0645 140.527 26.8949 140.018 26.6405C137.983 25.7924 135.862 25.1139 133.827 24.5202C127.466 22.6544 120.766 21.7214 113.981 21.7214C104.398 21.7214 95.1533 23.5873 86.333 27.3189C77.8519 30.881 70.3037 35.9697 63.7733 42.5001C57.2428 49.0305 52.1542 56.5787 48.5921 65.0598C45.0301 73.3712 43.1643 82.1915 42.9946 91.2663C42.9946 91.7752 42.9946 92.1992 42.9946 92.7081C42.9946 94.4891 43.0794 96.1853 43.1643 97.9664C43.6731 105.684 45.4541 113.147 48.5073 120.356ZM48.8466 115.268C48.4225 113.911 47.9985 112.469 47.6592 111.112C48.677 112.215 49.7795 113.147 51.1365 113.911L51.3061 114.589L51.5605 115.861L51.815 117.134L52.1542 118.406L52.4934 119.593L52.7479 120.526C50.9668 118.999 49.6947 117.303 48.8466 115.268ZM73.8658 62.261C74.0354 62.1762 74.2898 62.0914 74.4594 62.0066L74.6291 62.7699L74.9683 64.9749L75.3075 66.8408C75.3075 66.8408 75.3075 66.9256 75.3924 67.0952C75.4772 67.6041 75.7316 68.7066 75.7316 68.8762C74.1202 69.6395 72.5088 70.318 70.8974 70.8269C70.5581 70.9117 70.3037 70.9965 69.9645 71.0813C70.0493 69.0459 70.2189 67.0104 70.4733 65.0598C70.5581 64.4661 70.643 63.9572 70.7278 63.4484C71.7455 63.0243 72.7632 62.6851 73.8658 62.261ZM70.8974 43.7722C70.8974 43.6874 70.8974 43.6874 70.8974 43.7722C70.9822 43.7722 71.067 43.7722 71.067 43.7722C70.9822 43.6874 70.8974 43.6874 70.8974 43.7722ZM74.6291 40.6342C74.7139 40.5494 74.7987 40.5494 74.7987 40.4646C74.7987 40.6342 74.7139 40.7191 74.7139 40.8887C74.7139 40.8039 74.6291 40.7191 74.6291 40.6342ZM94.2204 35.7152C94.3052 36.2241 94.39 36.7329 94.3052 37.3266C91.5064 37.8355 88.7077 38.514 85.9937 39.2773V39.1925C88.7077 37.9203 91.4216 36.7329 94.2204 35.7152ZM86.4178 36.8178C88.4532 35.5456 90.6583 34.1886 92.609 33.1709C92.9482 33.4253 93.2026 33.6798 93.3722 33.9342C90.9975 34.7823 88.7077 35.8 86.4178 36.8178ZM94.6444 43.7722C95.9166 43.8571 97.3584 44.0267 98.8849 44.1115C100.072 44.1963 101.26 44.3659 102.362 44.4507C101.514 46.0621 100.496 47.7584 99.2242 49.4546C97.4432 48.6913 95.5773 48.0976 93.7963 47.4191C93.3722 47.2495 93.033 47.1647 92.609 46.9951C93.3722 45.8925 94.0507 44.79 94.6444 43.7722ZM67.1657 73.8801C67.4201 73.7953 67.5898 73.7953 67.8442 73.7105V74.6434C67.8442 74.6434 67.8442 75.6611 67.8442 76.0852C67.8442 76.594 67.8442 77.1029 67.8442 77.6118C67.8442 77.6118 67.8442 78.7991 67.8442 79.1384C67.8442 79.1384 67.929 80.4105 67.929 80.7498C67.929 80.7498 68.0138 81.6827 68.0138 81.9371C65.6391 82.5308 63.434 82.7852 61.3138 82.87C61.4834 81.4282 61.653 80.0713 61.9074 78.6295C62.1619 77.1877 62.4163 75.8307 62.7555 74.4738C64.1973 74.389 65.6391 74.2193 67.1657 73.8801ZM63.2644 72.1839C63.3492 71.7598 63.5188 71.3358 63.6037 70.8269C64.1973 68.537 64.8758 66.3319 65.7239 64.1268C66.6568 64.1268 67.5898 63.9572 68.6075 63.7876L68.5227 64.7205L68.3531 65.9927L68.2682 66.8408V67.18L68.1834 68.4522L68.0986 69.7244C68.0986 69.7244 68.0138 71.3358 68.0138 71.5054C66.3176 71.9294 64.7062 72.1839 63.2644 72.1839ZM68.1834 84.0574V84.5662L68.3531 86.6865L68.5227 87.9587L68.6923 89.3157L68.8619 90.5878C68.8619 90.5878 69.1164 92.1992 69.1164 92.3688C66.0632 93.1321 63.2644 93.4714 60.7201 93.4714C60.7201 90.5878 60.8897 87.7891 61.1441 84.9055C63.2644 84.9903 65.6391 84.6511 68.1834 84.0574ZM104.567 44.79C104.991 44.8748 105.5 44.9596 106.009 45.0444C108.129 45.4685 110.504 45.9773 112.539 46.4014C111.352 48.6913 109.91 51.066 108.129 53.4407C105.839 52.2533 103.465 51.2356 101.175 50.2179C102.023 48.9457 102.871 47.7584 103.55 46.4862C103.974 45.9773 104.313 45.3837 104.567 44.79ZM101.599 42.2457C99.5634 41.9912 97.4432 41.8216 95.4925 41.7368C95.8318 40.8039 96.0862 39.8709 96.2558 39.0228C98.8001 38.6836 101.938 38.3444 104.652 38.1747C104.482 39.0228 104.228 39.8709 103.889 40.8039L101.599 42.2457ZM137.135 114.504C133.912 117.218 130.604 119.848 127.212 122.307C127.042 122.137 126.873 121.883 126.703 121.713C125.176 119.848 123.65 117.897 122.123 115.861C127.551 111.96 132.64 107.72 137.474 103.225C139.085 105.175 141.121 107.55 142.732 109.585C140.866 111.197 139 112.893 137.135 114.504ZM144.004 111.197L146.294 114.08L148.584 117.049C143.835 121.544 138.661 125.784 133.233 129.686C131.707 127.905 130.095 125.954 128.484 124.003C133.997 120.102 139.17 115.777 144.004 111.197ZM107.96 96.779C106.348 94.4891 104.652 92.1144 103.041 89.7397C107.366 86.6017 111.522 83.1245 115.423 79.4776L118.391 82.446C118.391 82.446 121.021 85.1599 121.445 85.584C117.204 89.5701 112.709 93.3018 107.96 96.779ZM122.971 87.1954L123.735 88.0435L126.618 91.0967L128.908 93.5562C124.413 97.8815 119.494 101.868 114.321 105.599C112.624 103.309 110.928 100.935 109.232 98.56C114.066 95.0828 118.646 91.2663 122.971 87.1954ZM101.769 87.9587C100.157 85.6688 98.6305 83.2941 97.1039 81.089C100.92 78.3751 104.482 75.4067 107.79 72.2687L109.826 74.2193L113.812 78.0358C110.08 81.5131 106.094 84.8207 101.769 87.9587ZM97.3584 85.2447L99.9875 89.2308C95.747 92.1992 91.3368 94.8284 87.0962 96.9486C85.9937 94.4043 84.8912 91.7752 83.9583 89.146C87.7747 87.1954 91.676 84.9055 95.4077 82.2764L97.3584 85.2447ZM101.26 91.0119L102.108 92.284L104.652 96.0157C104.652 96.0157 105.755 97.6271 106.094 98.0512C101.344 101.359 96.4254 104.242 91.676 106.702C90.4039 104.158 89.1317 101.528 87.9444 98.8993C92.4393 96.6942 96.8495 94.0651 101.26 91.0119ZM107.366 99.8322L110.504 104.242L112.37 106.871C107.196 110.434 101.938 113.572 96.7647 116.201C95.3229 113.741 93.9659 111.197 92.609 108.653C97.6128 106.108 102.532 103.225 107.366 99.8322ZM113.727 108.568L114.405 109.501L118.9 115.437C113.472 119.169 108.045 122.477 102.532 125.191C101.005 122.901 99.3938 120.526 97.952 118.067C103.21 115.353 108.553 112.215 113.727 108.568ZM115.593 107.296C120.766 103.564 125.77 99.493 130.35 95.1676L132.809 97.9664L135.947 101.613C131.198 106.108 126.109 110.349 120.681 114.165C119.07 111.875 117.289 109.585 115.593 107.296ZM131.876 93.5562C136.202 89.3157 140.103 84.9903 143.495 80.4953L144.598 81.5131L146.464 83.2941L147.906 84.7359C147.906 84.7359 149.432 86.2625 149.517 86.4321C146.04 91.0119 141.969 95.5917 137.559 99.917C135.778 97.8815 133.827 95.7613 131.876 93.5562ZM130.435 91.9448C128.484 89.8245 126.533 87.7042 124.498 85.584C128.484 81.6827 132.131 77.6118 135.269 73.456L136.456 74.4738L137.474 75.3219L138.916 76.5092L140.527 77.8662C140.781 78.0358 141.714 78.9687 141.799 79.0535C138.492 83.4637 134.675 87.7891 130.435 91.9448ZM122.971 84.0574C121.021 82.0219 118.985 79.9865 116.95 77.951C120.512 74.389 123.819 70.7421 126.703 67.0104C128.823 68.537 131.452 70.4877 133.573 72.0991C130.519 76.2548 126.957 80.2409 122.971 84.0574ZM115.423 76.4244C113.388 74.4738 111.437 72.5231 109.401 70.6573C112.539 67.6041 115.338 64.3813 117.798 61.1585L119.748 62.3458L121.36 63.3635L122.971 64.4661C122.971 64.4661 124.837 65.6534 124.922 65.7382C122.123 69.3851 118.985 73.032 115.423 76.4244ZM107.875 69.2155C105.924 67.3497 103.974 65.5686 102.023 63.8724C105.076 60.7344 106.179 59.5471 108.893 56.1546C111.013 57.342 113.727 58.7838 116.017 60.0559C113.557 63.1939 110.843 66.2471 107.875 69.2155ZM106.264 70.6573C103.041 73.7105 99.5634 76.594 95.9166 79.2232C94.4748 77.0181 93.033 74.7282 91.676 72.6079C94.7292 70.4028 97.6976 67.9433 100.412 65.399C102.277 66.9256 104.398 68.9611 106.264 70.6573ZM92.6938 78.0358L94.2204 80.4105C90.5735 82.9548 86.8418 85.1599 83.195 87.0258C82.262 84.4814 81.4139 81.8523 80.6506 79.3928C84.8064 77.2725 86.2481 76.3396 90.0646 73.7953L92.6938 78.0358ZM82.5165 91.3511L83.2798 93.3018L84.2975 95.7613C84.2975 95.7613 85.1456 97.7119 85.1456 97.7967C81.0747 99.7474 77.0886 101.274 73.2721 102.292C72.5936 99.493 71.9999 96.6942 71.4911 93.8954C74.8835 92.9625 78.3607 91.6055 82.0076 89.9093L82.5165 91.3511ZM71.7455 105.006L72.3392 107.041L73.0177 109.161L73.6113 110.942C73.6113 110.942 74.3746 113.147 74.3746 113.232C70.4733 114.165 66.8265 114.674 63.434 114.674H63.1796C62.5011 111.96 61.9922 109.246 61.5682 106.447C64.7062 106.363 68.0986 105.939 71.7455 105.006ZM73.8658 104.497C77.7671 103.394 81.838 101.868 86.0785 99.917L86.9266 101.783L88.4532 105.006C88.4532 105.006 89.7254 107.635 89.8102 107.72C85.2304 109.84 80.7354 111.536 76.4949 112.723C75.4772 110.009 74.6291 107.211 73.8658 104.497ZM90.7431 109.585L90.9127 109.84L92.1849 112.215L93.4571 114.589C93.4571 114.589 94.8988 117.049 94.8988 117.134C89.9798 119.508 85.1456 121.289 80.5658 122.561C79.3785 120.017 78.2759 117.388 77.2582 114.759C81.4987 113.487 86.0785 111.791 90.7431 109.585ZM96.0014 118.999L96.8495 120.441L98.2913 122.731L99.5634 124.682L100.581 126.208C95.4077 128.668 90.4039 130.534 85.5697 131.891C84.1279 129.601 82.7709 127.141 81.4987 124.597C86.1633 123.24 90.9975 121.374 96.0014 118.999ZM101.769 127.989L102.701 129.346L103.889 130.958L105.076 132.569L106.264 134.096L106.688 134.605C104.228 135.792 101.769 136.81 99.3938 137.743C96.6799 138.76 93.9659 139.693 91.4216 140.372C89.8102 138.336 88.1988 136.131 86.757 133.841C91.5912 132.315 96.5951 130.449 101.769 127.989ZM103.804 126.972C109.317 124.258 114.829 120.95 120.257 117.134L122.886 120.441L124.837 122.901L125.431 123.579C119.918 127.396 114.321 130.703 108.808 133.502C108.638 133.332 108.469 133.078 108.299 132.908C106.688 131.043 105.246 129.007 103.804 126.972ZM126.703 125.275L128.823 127.905L131.283 130.873L131.537 130.619C131.537 130.619 131.537 130.619 131.622 130.703L131.367 130.958L131.452 131.043C126.024 134.774 120.512 138.082 114.999 140.796C113.388 139.1 111.691 137.234 110.08 135.198C115.593 132.484 121.19 129.177 126.703 125.275ZM132.809 132.654L133.573 133.587L134.93 135.198L136.795 137.319C131.622 140.965 126.279 144.103 121.021 146.733C119.494 145.46 117.967 144.019 116.441 142.492C121.953 139.693 127.466 136.386 132.809 132.654ZM134.675 131.382C140.018 127.481 145.192 123.325 149.856 118.83C151.044 120.441 152.316 122.307 153.418 123.834C148.839 128.159 143.919 132.315 138.661 136.046C137.389 134.52 136.032 132.993 134.675 131.382ZM154.606 125.53L155.793 127.311L157.235 129.601C152.994 133.672 148.33 137.488 143.495 140.965C142.478 139.863 141.29 138.76 140.188 137.488C146.633 132.739 148.754 130.958 154.606 125.53ZM156.302 124.003C160.458 119.932 164.274 115.607 167.667 111.282L167.751 111.536L168.345 112.808L168.854 113.996L169.193 114.844C169.193 114.844 169.532 115.861 169.617 115.946C166.479 120.102 162.917 124.173 158.931 128.074C158.083 126.717 157.235 125.36 156.302 124.003ZM155.115 122.222C154.012 120.611 152.825 118.915 151.552 117.218C155.963 112.893 160.034 108.398 163.511 103.818L163.85 104.412L164.189 104.921L164.953 106.193L165.716 107.465C165.716 107.465 166.564 109.077 166.649 109.161C163.256 113.656 159.355 117.982 155.115 122.222ZM150.196 115.522C148.754 113.656 147.227 111.621 145.616 109.67C147.566 107.72 149.432 105.769 151.213 103.818C153.588 101.274 155.708 98.6448 157.744 96.0157C158.083 96.5246 158.507 96.9486 158.846 97.4575C159.949 98.9841 161.136 100.595 162.154 101.952C158.677 106.532 154.69 111.112 150.196 115.522ZM144.259 107.974C142.563 105.854 140.781 103.733 139 101.613C143.495 97.2031 147.566 92.7081 151.044 88.0435L151.977 89.0612L153.673 91.0119L155.03 92.6233C155.03 92.6233 156.302 94.1499 156.387 94.3195C152.909 98.8993 148.839 103.479 144.259 107.974ZM150.874 84.6511C148.923 82.7004 146.888 80.665 144.768 78.7143C147.906 74.389 150.535 70.1484 152.655 65.9079C154.606 67.5193 156.98 69.5547 158.931 71.3358C156.896 75.7459 154.182 80.2409 150.874 84.6511ZM143.241 77.3573C141.121 75.4915 138.916 73.6257 136.626 71.7598C139.594 67.7737 142.054 63.7028 143.919 59.8863C146.125 61.3281 148.754 63.1091 150.874 64.7205C148.923 68.7914 146.294 73.032 143.241 77.3573ZM134.93 70.4028C132.64 68.6218 130.35 66.9256 127.975 65.3142C130.604 61.6673 132.809 58.1053 134.59 54.5432L135.947 55.2217L138.237 56.4939L139.425 57.1724L140.527 57.8508C140.527 57.8508 141.884 58.6989 142.054 58.6989C140.273 62.5154 137.813 66.4167 134.93 70.4028ZM126.194 64.042C123.819 62.4306 121.445 60.904 119.07 59.4622C121.36 56.3242 123.226 53.2711 124.752 50.2179L126.279 50.8115L127.466 51.3204L128.654 51.8293L129.332 52.1685L130.604 52.6774C130.604 52.6774 132.47 53.5255 132.555 53.6103C130.943 57.0027 128.823 60.5648 126.194 64.042ZM117.289 58.3597C114.914 57.0027 112.539 55.6458 110.165 54.4584C111.946 51.9141 113.557 49.3698 114.745 46.9951L116.356 47.4191L117.628 47.7584L118.9 48.1824L120.172 48.6065L121.19 48.9457C121.19 48.9457 122.802 49.5394 122.886 49.5394C121.275 52.423 119.409 55.3913 117.289 58.3597ZM115.253 39.4469C114.829 41.0583 114.236 42.7545 113.472 44.5355C111.861 44.1115 110.25 43.7722 108.638 43.433C107.62 43.1786 106.518 43.0089 105.5 42.8393C106.179 41.2279 106.433 40.295 106.772 39.1077C106.857 38.7684 106.942 38.4292 107.027 38.0899H107.196C107.62 38.0899 108.045 38.0899 108.469 38.0899C110.758 38.0899 113.388 38.1747 115.593 38.2595C115.423 38.6836 115.338 39.0228 115.253 39.4469ZM102.447 53.0166L103.55 53.5255L105.331 54.3736L106.942 55.1369C104.991 57.5964 102.786 60.0559 100.412 62.4306C98.5457 60.8192 96.6799 59.2078 94.8988 57.6812C97.1887 55.3913 98.0368 54.3736 99.9875 51.9141L100.327 52.0837L102.447 53.0166ZM98.8849 63.9572C96.2558 66.4167 93.5419 68.7066 90.5735 70.8269C89.2165 68.7066 87.9444 66.6712 86.8418 64.6357C89.1317 62.9395 91.3368 61.1585 93.4571 59.2078C95.0685 60.5648 97.1039 62.3458 98.8849 63.9572ZM87.2659 69.3851L88.8773 72.0142C85.9089 74.0497 82.9405 75.8307 79.9721 77.3573C79.2937 74.8978 78.6152 72.4383 78.1063 70.0636C81.1595 68.4522 82.3468 67.7737 85.1456 65.9079L87.2659 69.3851ZM78.7 80.3257L78.8696 81.0042L79.8025 83.9726L80.6506 86.4321C80.6506 86.4321 81.1595 87.8739 81.2443 88.0435C77.7671 89.6549 74.3746 91.0119 71.1518 91.86C70.7278 89.0612 70.3885 86.2625 70.2189 83.5485C72.9328 82.7852 75.8164 81.6827 78.7 80.3257ZM70.0493 81.3434C69.8797 78.6295 69.8797 75.9155 69.9645 73.2016C72.5936 72.4383 73.781 72.0142 76.2405 70.8269L76.4949 71.8446L76.9189 73.6257L77.5126 76.0004C77.5126 76.0004 78.0215 77.951 78.1063 78.1206C75.3075 79.5624 72.5936 80.5801 70.0493 81.3434ZM69.9645 97.3727L70.2189 98.6448L70.643 100.511C70.643 100.511 71.2366 102.801 71.2366 102.97C67.6746 103.818 64.367 104.242 61.3138 104.242H61.229C60.8897 101.444 60.7201 98.56 60.6353 95.7613C63.3492 95.7613 66.3176 95.3372 69.3708 94.6587L69.6252 96.1005L69.9645 97.3727ZM60.7201 113.232L60.9745 114.504C57.8365 114.25 55.2074 113.572 52.9175 112.384C52.4934 109.84 52.239 107.211 52.0694 104.582C54.1897 105.515 56.6492 106.023 59.4479 106.193L59.5327 106.617L59.7024 107.974L59.9568 109.331L60.2112 110.603L60.4657 111.875L60.7201 113.232ZM61.5682 116.71L61.653 117.218L61.9922 118.491L62.3315 119.763L62.7555 121.035L63.1796 122.307L63.6037 123.579C63.6885 123.834 63.9429 124.597 63.9429 124.597C60.6353 124.343 57.7517 123.579 55.2922 122.307C54.5289 120.017 53.8504 117.558 53.3415 115.098C55.8011 115.946 58.515 116.54 61.5682 116.71ZM63.6885 116.794C67.1657 116.794 70.9822 116.285 75.0531 115.268L75.1379 115.607L75.3924 116.285L76.0708 118.067L76.5797 119.339L77.0886 120.526L77.5974 121.713C77.5974 121.713 78.1911 122.986 78.1911 123.07C74.0354 124.088 70.1341 124.597 66.572 124.597C66.4024 124.597 66.3176 124.597 66.148 124.597C65.2999 122.053 64.4518 119.423 63.6885 116.794ZM79.3785 125.106L79.5481 125.445L80.1418 126.632L80.7354 127.82L81.3291 129.007L82.0076 130.194L82.6861 131.297L83.3646 132.4C79.0392 133.417 74.9683 133.926 71.3214 133.926C71.1518 133.926 70.9822 133.926 70.7278 133.926C69.4556 131.636 68.2682 129.262 67.1657 126.717C70.8974 126.717 74.9683 126.124 79.3785 125.106ZM84.5519 134.265L84.8064 134.689L85.4848 135.792L86.2481 136.895L87.0114 137.997L87.7747 139.015L88.538 140.033L89.1317 140.881C84.8064 141.898 80.7354 142.407 77.0886 142.407C76.8341 142.407 76.6645 142.407 76.4101 142.407C74.7987 140.457 73.3569 138.336 71.9999 136.046C75.8164 135.962 80.0569 135.368 84.5519 134.265ZM87.2659 143.425C88.3684 143.171 89.471 142.916 90.5735 142.662L90.9127 143.086L91.676 144.019L92.2697 144.697L93.2874 145.8L94.1355 146.648L94.9837 147.496L95.4077 147.92C91.252 148.853 87.3507 149.362 83.7886 149.362C83.5342 149.362 83.2798 149.362 83.0253 149.362C81.9228 148.429 80.9051 147.411 79.8873 146.309C79.2937 145.63 78.7 144.952 78.1063 144.273C80.9899 144.443 84.0431 144.103 87.2659 143.425ZM92.8634 142.068C97.7824 140.711 102.871 138.76 108.045 136.216L108.723 137.064L109.486 137.997L110.674 139.354L111.437 140.202L112.879 141.814C107.705 144.273 102.617 146.139 97.8672 147.411C96.171 145.8 94.4748 144.019 92.8634 142.068ZM114.49 143.425L114.999 143.934L116.271 145.121L117.034 145.884L117.798 146.563L118.307 146.987L118.985 147.581C114.066 149.871 109.232 151.652 104.652 152.924C102.956 151.736 101.344 150.464 99.7331 149.022C104.482 147.75 109.401 145.884 114.49 143.425ZM120.681 149.192L121.275 149.701L122.378 150.549L123.395 151.312L124.583 152.16C120.088 154.281 115.593 155.892 111.352 157.079C109.826 156.401 108.299 155.553 106.772 154.62C111.352 153.263 116.017 151.397 120.681 149.192ZM122.886 148.09C128.06 145.46 133.233 142.407 138.322 138.845L139.933 140.626L141.63 142.322C136.795 145.715 131.792 148.598 126.957 151.058C125.6 150.21 124.243 149.192 122.886 148.09ZM143.071 143.764L143.75 144.358L143.919 144.188C143.919 144.188 143.92 144.188 144.004 144.273L143.835 144.527L144.598 145.291L145.616 146.224C141.206 149.277 136.795 151.906 132.385 154.111C131.283 153.687 130.18 153.093 128.993 152.415C133.742 149.871 138.492 147.072 143.071 143.764ZM144.937 142.492C149.602 139.1 154.097 135.368 158.337 131.467L158.422 131.636L159.185 133.078C159.185 133.078 159.864 134.52 159.949 134.52C156.047 138.167 151.892 141.644 147.482 144.867C146.633 144.103 145.785 143.34 144.937 142.492ZM160.797 136.47L161.051 137.149L161.306 137.912L161.475 138.336C158.083 141.559 154.436 144.612 150.535 147.411C150.026 147.072 149.517 146.648 149.008 146.224C153.164 143.171 157.15 139.948 160.797 136.47ZM159.949 129.855C163.765 126.124 167.242 122.222 170.38 118.236L170.72 119.423L170.805 119.848L170.974 120.441L171.144 121.289C171.144 121.289 171.229 121.713 171.229 121.798C168.43 125.53 165.207 129.177 161.645 132.739C161.051 131.975 160.542 130.958 159.949 129.855ZM171.059 113.826C170.465 112.384 169.787 110.858 169.023 109.331C173.01 103.818 174.282 101.698 176.572 97.2879C177.081 98.8993 177.589 100.765 178.013 102.292C176.232 106.023 173.943 109.925 171.059 113.826ZM168.006 107.296C167.073 105.515 165.97 103.733 164.868 101.952C168.091 97.5423 170.805 93.2169 172.925 88.9764L173.094 89.2308L173.603 90.1638L174.112 91.0967C174.197 91.2663 174.621 92.0296 174.621 92.0296L175.045 92.9625L175.299 93.641C175.299 93.641 175.554 94.3195 175.639 94.4891C173.688 98.7297 171.144 102.97 168.006 107.296ZM163.596 100.087C162.663 98.7297 161.645 97.3727 160.627 96.0157C160.203 95.422 159.694 94.8284 159.185 94.1499C162.493 89.6549 165.292 85.1599 167.497 80.8346L168.006 81.5131L168.684 82.446L169.363 83.3789L170.041 84.3118L170.72 85.2447C170.889 85.4992 171.059 85.6688 171.144 85.9232C171.144 85.9232 171.229 86.008 171.229 86.0928C171.313 86.2625 171.568 86.6017 171.653 86.6865C169.617 91.0967 166.903 95.5917 163.596 100.087ZM157.828 92.3688C156.132 90.3334 154.351 88.2979 152.401 86.2625C155.708 81.7675 158.422 77.3573 160.627 73.032C162.408 74.8978 164.444 77.1029 166.055 78.9687C163.935 83.2941 161.136 87.8739 157.828 92.3688ZM159.949 69.3851C157.998 67.5193 155.878 65.7382 153.673 64.042C155.454 60.0559 156.726 56.2394 157.404 52.6774L158.168 53.1862L159.185 53.9495L160.203 54.7128L161.221 55.4761L162.154 56.2394L163.087 57.0027C163.256 57.1724 163.426 57.342 163.596 57.5116C163.002 61.1585 161.815 65.1446 159.949 69.3851ZM151.892 62.6851C149.687 60.9888 147.312 59.3774 144.852 57.9357C146.549 54.204 147.651 50.6419 148.245 47.3343C150.535 48.5217 153.164 50.0482 155.284 51.4052C154.86 54.8825 153.673 58.6141 151.892 62.6851ZM142.987 56.7483C140.527 55.3065 138.068 53.9495 135.438 52.6774C136.965 49.2849 137.983 46.0621 138.492 43.0938L139.764 43.5178L140.273 43.6874L141.63 44.1963L142.647 44.6204L143.919 45.1292L145.192 45.7229C145.192 45.7229 146.04 46.1469 146.209 46.2318C145.785 49.4546 144.683 53.0166 142.987 56.7483ZM136.711 40.2102C134.081 39.3621 131.283 38.5988 128.484 38.0051C128.654 35.9697 128.569 34.019 128.145 32.3228C128.06 32.0684 128.06 31.8139 127.975 31.6443C128.399 31.7291 128.823 31.7291 129.247 31.8139C131.452 32.0684 133.657 32.4924 135.862 32.9165C136.711 35.0367 136.965 37.4962 136.711 40.2102ZM128.314 40.1254L129.756 40.4646L131.028 40.8039L132.3 41.1431L133.573 41.4824L134.845 41.8216C134.845 41.8216 136.371 42.3305 136.541 42.3305C136.032 45.214 135.099 48.352 133.573 51.6597C131.028 50.4723 128.399 49.2849 125.685 48.352C126.957 45.4685 127.805 42.6697 128.314 40.1254ZM126.448 37.5811C124.413 37.157 122.293 36.9026 120.172 36.6481C119.409 36.5633 118.731 36.4785 117.967 36.3937C118.052 35.0367 118.052 33.8494 117.798 32.662C117.713 32.1532 117.628 31.7291 117.459 31.2202C118.391 31.2202 119.24 31.1354 120.172 31.1354H120.512C122.293 31.1354 123.989 31.2202 125.77 31.3051C126.024 31.8987 126.194 32.5772 126.279 33.2557C126.448 34.6975 126.533 36.0545 126.448 37.5811ZM117.628 38.4292H117.967L119.24 38.5988L120.512 38.7684L121.784 38.938L123.056 39.1077L124.328 39.3621C124.328 39.3621 125.855 39.6165 126.024 39.7013C125.6 42.1608 124.752 44.79 123.48 47.5887C120.851 46.6558 118.137 45.8077 115.423 45.0444C116.78 42.1608 117.204 40.8887 117.628 38.4292ZM115.762 36.2241C114.49 36.1393 113.133 36.0545 111.861 36.0545C111.098 36.0545 110.334 36.0545 109.571 36.0545C108.808 36.0545 107.96 36.0545 107.196 36.0545C107.281 34.6975 107.112 33.5101 106.857 32.4076C109.656 31.8987 112.455 31.5595 115.253 31.3899C115.508 32.1532 115.677 33.0013 115.762 33.8494C115.847 34.6127 115.847 35.376 115.762 36.2241ZM106.009 30.457C105.5 29.524 105.076 28.9304 104.482 28.4215C106.772 27.8278 109.402 27.1493 111.607 26.7253C112.709 27.4038 113.642 28.2519 114.321 29.3544C111.522 29.6088 108.808 29.9481 106.009 30.457ZM104.737 32.8317C104.991 33.8494 105.161 34.9519 105.076 36.1393C102.193 36.3089 99.3938 36.5633 96.5951 36.9874C96.5951 36.3089 96.5103 35.6304 96.3406 35.0367C99.0546 34.1038 101.853 33.4253 104.737 32.8317ZM95.4925 33.1709C95.2381 32.8316 94.9837 32.4076 94.6444 32.1532C96.9343 31.1354 99.6483 30.0329 101.938 29.1848C102.701 29.6937 103.295 30.2873 103.719 30.9658C101.005 31.4747 98.2065 32.238 95.4925 33.1709ZM92.6938 49.2001L94.2204 49.709L96.5103 50.5571L97.1887 50.8115L97.952 51.066C96.5103 52.847 94.9837 54.628 93.2874 56.3242C92.6938 55.8154 92.0153 55.3065 91.4216 54.7977C90.3191 53.9495 89.3013 53.1014 88.1988 52.2533C89.0469 51.4052 89.895 50.4723 90.6583 49.5394C90.9127 49.285 91.1672 48.9457 91.3368 48.6913L91.676 48.7761L92.6938 49.2001ZM90.4887 46.4014C88.4532 45.8077 86.4178 45.2988 84.3823 44.8748C84.5519 44.6204 84.7215 44.2811 84.8912 43.9419C87.0114 43.8571 89.7254 43.7722 92.1849 43.6874C91.7608 44.5355 91.1672 45.4685 90.4887 46.4014ZM84.976 46.9951L86.4178 47.3343L87.4355 47.5887L89.2165 48.0976C88.3684 49.1153 87.5203 50.1331 86.5026 51.066C84.976 49.8786 83.4494 48.8609 82.0924 47.8432C82.5165 47.4191 82.8557 46.9951 83.195 46.571L84.0431 46.7406L84.976 46.9951ZM86.757 53.7799C87.6051 54.4584 88.6228 55.3065 89.6406 56.0698C90.3191 56.6635 91.0824 57.2572 91.7608 57.766C89.895 59.5471 87.8595 61.1585 85.7393 62.7699C85.2304 61.837 84.7215 60.9888 84.2127 60.1407C83.619 59.123 83.1101 58.1901 82.6013 57.2572C83.9583 56.1546 85.4 55.0521 86.757 53.7799ZM82.8557 61.9218C82.8557 61.9218 83.619 63.2787 84.0431 63.9572C81.9228 65.399 79.8025 66.6712 77.5974 67.7737C77.4278 67.0104 77.2582 66.2471 77.1734 65.4838C76.919 63.9572 76.6645 62.4306 76.4101 60.9888C77.8519 60.2255 79.3785 59.3774 80.8203 58.3597L81.7532 60.0559L82.5165 61.3281L82.8557 61.9218ZM76.1557 58.7838C75.9012 56.6635 75.7316 54.628 75.7316 52.7622C76.2405 52.5078 76.8341 52.1685 77.343 51.8293L78.4455 53.9495L79.8873 56.5787C78.6152 57.4268 77.343 58.1901 76.1557 58.7838ZM70.3037 55.1369L70.0493 56.3242L69.7948 57.5116L69.4556 59.123L69.2012 60.48C69.2012 60.48 69.0315 61.4977 69.0315 61.6673C68.1834 61.8369 67.4201 62.0066 66.6568 62.0066C67.6746 59.4622 68.7771 56.9179 70.0493 54.5432C70.2189 54.5432 70.3885 54.5432 70.5581 54.5432L70.3037 55.1369ZM67.3353 55.3065L66.7417 56.4939L66.148 57.6812L65.6391 58.8686L65.2999 59.8863C65.2999 59.8863 64.9606 60.7344 64.8758 60.9888C64.8758 60.9888 64.5366 61.7521 64.4518 62.0066C63.8581 61.9218 63.3492 61.8369 62.8404 61.6673C64.367 59.123 65.9784 56.6635 67.7594 54.2888H67.8442L67.3353 55.3065ZM65.1303 54.628L64.367 55.7306L63.6037 56.8331L62.7555 58.0205L61.9922 59.2078C61.8226 59.4622 61.1441 60.5648 61.1441 60.6496C60.8897 60.3952 60.6353 60.0559 60.3808 59.7167C62.0771 57.5964 63.8581 55.5609 65.7239 53.6951L65.1303 54.628ZM61.7378 63.5332C62.3315 63.7876 62.9252 63.9572 63.6037 64.042L63.1796 65.2294L62.7555 66.5015L62.3315 67.7737L61.9922 69.0459L61.7378 70.4028C61.7378 70.4028 61.3138 72.0142 61.229 72.1839C60.0416 72.0991 58.9391 71.8446 58.0061 71.4206C59.1087 68.7066 60.3808 66.0775 61.7378 63.5332ZM59.9568 74.2193C60.2112 74.2193 60.4657 74.3041 60.7201 74.3041L60.3808 75.7459L60.2112 77.0181L59.9568 78.3751L59.7024 79.732L59.5327 80.9194V81.089C59.5327 81.089 59.2783 82.7004 59.2783 82.87C58.7694 82.87 58.2606 82.7852 57.7517 82.7004C56.5644 82.5308 55.4618 82.1915 54.5289 81.7675C54.7833 80.7498 55.1226 79.6472 55.4618 78.6295C55.9707 76.9333 56.5644 75.2371 57.2428 73.5408C58.1758 73.8801 58.8542 74.0497 59.9568 74.2193ZM55.8859 84.3966C56.9036 84.6511 57.9213 84.8207 59.0239 84.9055V85.0751C59.0239 85.4144 58.9391 85.7536 58.9391 86.0928V86.1777C58.9391 86.1777 58.8543 87.1954 58.8543 87.6194C58.8543 87.6194 58.7694 88.5524 58.7694 88.8916L58.6846 90.2486L58.5998 91.5207V92.1144V93.3866C56.3099 93.2169 54.1897 92.7081 52.4934 91.86C52.6631 90.1638 53.0023 88.5524 53.2567 86.8561C53.4264 85.7536 53.6808 84.7359 53.9352 83.6333C54.6137 83.9726 55.2074 84.227 55.8859 84.3966ZM58.5998 95.5917V95.9309V97.2879L58.6846 98.6448L58.7694 100.002L58.8543 101.359L58.9391 102.716C58.9391 102.716 59.1087 104.158 59.1087 104.242C56.3099 104.073 53.9352 103.394 51.8998 102.377C51.815 99.6626 51.9846 96.9486 52.1542 94.2347C54.1048 94.998 56.2251 95.5068 58.5998 95.5917ZM53.1719 125.36C53.1719 125.275 53.0871 125.275 53.0871 125.191C52.9175 124.851 52.7479 124.597 52.5782 124.258C52.5782 124.088 52.4934 124.003 52.4934 123.834C52.3238 123.494 52.1542 123.24 51.9846 122.901C51.9846 122.901 51.7301 122.392 51.6453 122.222C52.3238 122.731 53.0023 123.24 53.7656 123.664L54.02 124.427L54.4441 125.615C54.5289 125.869 54.953 126.802 54.953 126.802C55.0378 127.056 55.4618 127.989 55.4618 127.989L55.8859 128.922C54.7833 127.82 53.9352 126.632 53.1719 125.36ZM56.3947 124.936C58.8542 125.954 61.7378 126.463 64.8758 126.632L65.1303 127.141C65.2151 127.396 65.6391 128.329 65.6391 128.329C65.7239 128.583 66.148 129.516 66.148 129.516L66.7417 130.703L67.3353 131.891L67.929 133.078C68.0138 133.332 68.1834 133.502 68.2682 133.757C64.8758 133.502 61.8226 132.654 59.3631 131.382C58.2606 129.346 57.2428 127.141 56.3947 124.936ZM61.1441 134.435C63.6037 135.368 66.4024 135.877 69.5404 136.046L69.8797 136.64L70.5581 137.743L71.2366 138.845L71.9151 139.948L72.6784 140.965C72.6784 140.965 73.6113 142.238 73.6961 142.322C70.3037 141.983 67.4201 141.135 64.9606 139.863C63.5188 138.082 62.3315 136.301 61.1441 134.435ZM71.7455 146.902C70.3885 145.715 69.1164 144.527 67.929 143.171C70.2189 143.849 72.6784 144.273 75.4772 144.443L75.986 145.036L76.8341 145.969C77.0038 146.139 77.6822 146.902 77.6822 146.902L78.0215 147.326L78.5304 147.835L79.3785 148.683L79.9721 149.277C78.2759 149.107 76.7493 148.768 75.3075 148.259C73.9506 147.92 72.7632 147.496 71.7455 146.902ZM82.1772 153.602C81.4987 153.348 80.7354 153.009 79.8025 152.585C79.2937 152.33 78.7848 151.991 78.2759 151.652C77.8519 151.397 77.4278 151.143 77.0038 150.803C78.3607 151.058 79.9721 151.228 82.262 151.482L82.8557 151.991L83.7886 152.754L84.7215 153.517L85.6545 154.196L86.2481 154.62C84.7215 154.366 83.4494 154.111 82.1772 153.602ZM90.5735 157.504C90.4887 157.504 90.4887 157.504 90.4039 157.504C89.895 157.334 89.3013 157.079 88.7925 156.91C89.1317 156.91 89.471 156.995 89.8102 156.995L90.4887 157.419L91.0824 157.758C90.9127 157.673 90.7431 157.588 90.5735 157.504ZM90.4039 154.959C88.7077 153.941 87.0963 152.754 85.5697 151.567C89.2165 151.397 93.2026 150.803 97.3584 149.786V149.871L97.6976 150.21L98.5457 150.973L99.3938 151.736L100.242 152.415L101.09 153.093L102.023 153.772C98.2065 154.62 94.5596 155.044 91.252 155.044C90.9127 154.959 90.6583 154.959 90.4039 154.959ZM98.1217 158.861C96.6799 158.352 95.2381 157.673 93.7963 156.995C97.2735 156.825 99.3938 156.401 104.143 155.383L105.415 156.231L106.264 156.74L107.112 157.249C107.281 157.334 107.451 157.419 107.62 157.504L108.214 157.843C104.907 158.521 101.769 158.945 98.8849 158.945C98.7153 158.861 98.3761 158.861 98.1217 158.861ZM107.027 160.981C106.772 160.981 106.433 160.981 106.179 160.981C105.415 160.811 104.652 160.726 103.804 160.557C106.179 160.302 108.638 159.793 111.183 159.2L111.691 159.369L112.539 159.709L113.388 160.048L114.066 160.302C111.691 160.811 109.232 160.981 107.027 160.981ZM114.49 158.267C118.391 157.079 122.547 155.468 126.703 153.433L127.212 153.772L127.297 153.602C127.297 153.602 127.381 153.602 127.381 153.687L127.297 153.857L127.551 154.026L128.229 154.45L128.908 154.79L129.756 155.214C125.77 156.995 121.869 158.436 118.222 159.454C117.034 159.115 115.762 158.691 114.49 158.267ZM125.007 160.133H124.922C124.243 160.133 123.65 160.133 122.971 160.048C126.024 159.03 129.162 157.758 132.385 156.231L132.64 156.316L133.318 156.571L133.997 156.825L134.336 156.91C131.028 158.267 127.975 159.369 125.007 160.133ZM137.304 155.468C136.541 155.383 135.778 155.214 135.014 154.959C139.085 152.839 143.156 150.379 147.227 147.581L147.821 148.005L148.754 148.768C144.937 151.312 141.121 153.517 137.304 155.468ZM150.874 150.04C147.821 152.076 144.683 153.941 141.63 155.468C141.63 155.468 141.63 155.468 141.545 155.468C144.513 153.857 147.566 151.991 150.45 149.871V149.955L150.704 150.125L150.789 149.955H150.874V150.04ZM152.825 148.683C152.74 148.598 152.57 148.598 152.485 148.514C155.793 146.054 159.016 143.425 162.069 140.626C162.069 140.796 162.069 140.881 162.069 141.05C159.101 143.764 156.047 146.393 152.825 148.683ZM163.935 139.184C163.935 139.1 163.935 138.93 163.85 138.845C165.885 136.895 167.751 134.859 169.532 132.739C167.836 134.944 165.97 137.064 163.935 139.184ZM171.398 127.396C169.023 130.534 166.225 133.672 163.256 136.725C163.087 136.131 162.832 135.538 162.493 134.859C165.716 131.721 168.684 128.413 171.398 125.021C171.398 125.869 171.398 126.632 171.398 127.396ZM178.437 114.929L178.268 115.777C178.183 116.031 178.183 116.285 178.098 116.455C176.826 119.084 175.299 121.713 173.518 124.427C173.518 123.749 173.434 123.155 173.349 122.477C175.299 119.848 176.996 117.218 178.522 114.674L178.437 114.929ZM172.84 119.678C172.586 118.575 172.246 117.388 171.907 116.201C174.451 112.723 176.741 109.246 178.522 105.769C178.692 107.041 178.777 108.398 178.862 109.585C177.25 112.893 175.299 116.285 172.84 119.678ZM182.593 96.5246C182.593 96.6094 182.593 97.2031 182.593 97.2031C182.593 97.5423 182.593 97.8815 182.593 98.2208C182.254 100.511 181.66 102.885 180.727 105.43C180.643 104.497 180.473 103.479 180.303 102.461C181.151 100.426 181.915 98.4752 182.593 96.5246ZM181.321 85.6688C181.321 85.8384 181.576 86.6865 181.576 86.6865L181.83 87.7042C181.915 87.9587 182 88.722 182 88.722C182.084 89.0612 182.084 89.3157 182.169 89.6549C181.745 92.6233 180.897 95.7613 179.54 99.0689C179.116 97.5423 178.607 96.0157 178.013 94.5739C179.455 91.3511 180.643 88.2979 181.321 85.3295V85.6688ZM178.522 68.8762C178.862 69.8092 179.201 70.6573 179.455 71.5902C179.879 73.1168 180.134 74.7282 180.219 76.4244C179.625 75.0674 178.946 73.7953 178.268 72.5231C178.522 71.2509 178.522 70.0636 178.522 68.8762ZM178.862 78.4599C179.286 79.3928 179.71 80.4105 180.049 81.2586C179.54 84.6511 178.522 88.2131 176.911 92.0296C176.063 90.2486 175.13 88.4675 174.112 86.6865C174.96 84.8207 175.724 82.9548 176.317 81.1738C176.911 79.3928 177.42 77.6966 177.759 76.0004C178.098 76.7637 178.522 77.6118 178.862 78.4599ZM175.13 61.3281C176.063 63.7028 176.572 66.4167 176.487 69.3851C175.384 67.6041 174.112 65.9079 172.84 64.2117C173.094 61.8369 173.094 59.5471 172.84 57.4268C173.688 58.6989 174.451 60.0559 175.13 61.3281ZM172.501 67.18L173.179 68.1978L173.858 69.2155L174.536 70.2332L175.13 71.2509C175.215 71.4206 175.639 72.0991 175.639 72.0991C175.639 72.0991 175.978 72.6927 176.148 72.9472C175.639 76.5092 174.451 80.4105 172.67 84.5662C171.398 82.6156 170.041 80.665 168.515 78.7143C170.38 74.6434 171.653 70.8269 172.416 67.18H172.501ZM169.617 53.1014C170.635 55.6458 171.059 58.6141 170.889 61.9218C169.278 60.1407 167.582 58.3597 165.801 56.6635C166.14 53.7799 166.055 51.066 165.546 48.6065C166.988 50.0482 168.345 51.5748 169.617 53.1014ZM165.461 59.2926C167.158 60.9888 169.108 63.1091 170.635 64.8053C170.126 68.537 168.854 72.5231 166.988 76.7637C165.292 74.813 163.511 72.7775 161.56 70.9117C163.426 66.8408 164.783 62.9395 165.461 59.2926ZM163.85 54.9673C161.899 53.3559 159.864 51.7445 157.659 50.3027C157.998 47.2495 157.828 44.4507 157.235 41.9064C159.101 43.1786 160.882 44.5355 162.578 45.9773C163.68 48.6065 164.104 51.6597 163.85 54.9673ZM158.846 40.4646C157.998 39.8709 157.15 39.2773 156.217 38.7684C156.132 38.514 155.963 38.2595 155.878 38.0051C156.811 38.8532 157.828 39.6165 158.846 40.4646ZM155.623 49.0305C153.333 47.5887 151.044 46.3166 148.584 45.0444C148.923 42.076 148.754 39.3621 148.075 36.9026C150.28 37.9203 152.485 39.0228 154.521 40.2102C155.539 42.7545 155.878 45.7229 155.623 49.0305ZM147.312 32.4924C147.99 32.8317 148.584 33.2557 149.178 33.5949C150.535 34.5279 151.637 35.5456 152.655 36.8178C150.874 35.8848 149.008 35.0367 147.142 34.2734C146.718 33.3405 146.209 32.4924 145.616 31.6443C146.209 31.8987 146.803 32.1532 147.312 32.4924ZM146.549 44.0267C144.089 42.8393 141.46 41.8216 138.831 40.8887C139.085 38.1747 138.916 35.7152 138.322 33.4253C140.782 34.1038 143.241 34.8671 145.531 35.8C146.464 38.2595 146.803 40.9735 146.549 44.0267ZM136.711 28.1671C137.728 28.4215 138.746 28.7607 139.679 29.0152C141.545 30.0329 142.987 31.4747 144.174 33.0861C141.969 32.3228 139.764 31.6443 137.474 31.1354C137.05 30.2025 136.541 29.3544 135.947 28.5911C135.693 28.3367 135.523 27.9974 135.269 27.743C135.693 27.9126 136.202 27.9974 136.711 28.1671ZM129.586 26.5557C129.926 26.5557 130.265 26.6405 130.604 26.6405C131.876 27.4038 133.064 28.3367 133.912 29.4392C134.166 29.7785 134.421 30.1177 134.675 30.457C133.997 30.2873 133.233 30.2025 132.555 30.0329C130.774 29.7785 128.993 29.524 127.212 29.3544C126.957 28.8455 126.703 28.4215 126.448 27.9974C125.94 27.2341 125.431 26.6405 124.837 25.962C126.448 26.2164 128.06 26.386 129.586 26.5557ZM124.583 29.1C124.667 29.1848 124.667 29.2696 124.752 29.2696C124.583 29.2696 124.413 29.2696 124.328 29.2696C123.056 29.1848 121.699 29.1848 120.427 29.1848C119.24 29.1848 117.967 29.1848 116.78 29.2696C116.271 28.1671 115.508 27.2341 114.66 26.4708C116.865 26.3012 119.24 26.1316 121.275 25.962C122.632 26.7253 123.735 27.743 124.583 29.1ZM111.267 24.0113C111.522 24.0113 112.285 23.9265 112.285 23.9265C112.624 23.9265 112.964 23.9265 113.218 23.8417C114.236 23.8417 115.169 23.9265 116.102 24.0961C114.745 24.1809 113.388 24.3506 112.031 24.605C111.522 24.3506 111.098 24.1809 110.674 24.0113H111.267ZM101.175 26.1316L102.193 25.7924L103.21 25.5379L104.228 25.2835C104.482 25.1987 104.822 25.1139 105.076 25.0291C106.179 25.1139 107.196 25.1987 108.129 25.4531C106.179 25.8772 104.228 26.386 102.362 26.9797C101.684 26.7253 101.175 26.4708 100.666 26.3012L101.175 26.1316ZM92.3545 30.1177C92.5241 30.0329 93.2874 29.6088 93.2874 29.6088L94.2204 29.1L95.1533 28.5911C95.3229 28.5063 95.9166 28.2519 95.9166 28.2519C95.9166 28.2519 96.5951 27.9126 96.8495 27.8278C97.6128 27.8278 98.3761 27.9974 99.0546 28.0822C96.8495 28.9304 94.7292 29.8633 92.609 30.881C92.2697 30.7114 92.0153 30.6266 91.5912 30.5418L92.3545 30.1177ZM88.2836 29.7785L88.9621 29.3544L89.6406 28.9304C89.8102 28.8455 90.0646 28.6759 90.2343 28.5911C90.7431 28.4215 91.252 28.3367 91.7608 28.2519C90.7431 28.8455 89.7254 29.4392 88.7925 30.1177H88.7077C88.4532 30.1177 88.114 30.1177 87.7747 30.1177L88.2836 29.7785ZM89.3013 32.1532C89.6406 32.1532 89.895 32.238 90.1494 32.238C88.7077 33.0013 87.3507 33.8494 85.9089 34.7823C87.0963 33.7646 88.2836 32.9165 89.3013 32.1532ZM85.9089 41.3975C88.2836 40.7191 91.3368 40.0406 93.9659 39.4469C93.7963 40.1254 93.5419 40.8887 93.2026 41.652C92.609 41.652 92.0153 41.652 91.5064 41.652C89.5558 41.652 87.6899 41.7368 85.8241 41.9064C85.8241 41.7368 85.9089 41.5672 85.9089 41.3975ZM82.4317 35.0367L83.0253 34.3582L83.619 33.6798C83.7886 33.5101 84.2127 33.0861 84.2127 33.0861C84.3823 32.9165 84.5519 32.8317 84.7215 32.662C84.976 32.5772 85.2304 32.4924 85.4848 32.4924C84.2975 33.4253 83.195 34.3582 82.0924 35.376L82.4317 35.0367ZM82.262 44.2811C82.262 44.3659 82.1772 44.3659 82.1772 44.4507C82.0076 44.4507 81.9228 44.3659 81.7532 44.3659C82.0076 44.2811 82.0924 44.2811 82.262 44.2811ZM83.2798 51.1508L85.0608 52.5078C83.9583 53.5255 82.7709 54.5432 81.4987 55.3913C80.5658 53.6951 79.7177 52.1685 78.9544 50.6419C79.6329 50.1331 79.9721 49.7938 80.5658 49.2849L80.8203 49.4546L83.2798 51.1508ZM80.3114 46.6558C79.9721 46.4014 79.6329 46.2318 79.2937 45.9773C79.8025 46.0621 80.3114 46.1469 80.8203 46.1469C80.6506 46.4014 80.481 46.4862 80.3114 46.6558ZM79.4633 34.5279C79.8873 34.3582 80.3114 34.1886 80.6506 34.019C79.9721 34.7823 79.3785 35.6304 78.7 36.4785C78.6152 36.4785 78.4455 36.5633 78.3607 36.5633C78.7848 35.8 79.124 35.1215 79.4633 34.5279ZM78.8696 48.0976C78.6152 48.352 78.3607 48.5217 78.1063 48.7761C77.8519 48.1824 77.5126 47.6735 77.2582 47.0799C77.7671 47.4191 78.2759 47.7584 78.8696 48.0976ZM75.6468 50.3875C75.6468 49.709 75.6468 49.1153 75.7316 48.4368C75.986 48.9457 76.1557 49.3698 76.4101 49.8786C76.1557 50.0482 75.9012 50.2179 75.6468 50.3875ZM76.2405 36.3089C76.0708 36.7329 75.8164 37.2418 75.6468 37.7507C75.1379 38.0051 74.6291 38.3444 74.1202 38.5988C74.0354 38.3444 74.0354 38.0051 73.9506 37.7507C74.7139 37.2418 75.4772 36.7329 76.2405 36.3089ZM73.781 55.1369L73.8658 56.1546L73.9506 57.5964C73.9506 57.5964 74.1202 59.5471 74.205 59.7167C73.1025 60.2255 72.0847 60.6496 71.067 60.9888C71.4911 58.6141 71.9999 56.2394 72.5936 54.0344C72.9328 53.9495 73.3569 53.7799 73.6961 53.6103L73.781 55.1369ZM73.6961 50.7267C73.6961 50.7267 73.6961 51.2356 73.6961 51.4052C73.6113 51.4052 73.5265 51.49 73.4417 51.49C73.5265 51.2356 73.6113 50.9812 73.6961 50.7267ZM72.9328 41.8216C73.0177 42.076 73.1025 42.2456 73.1873 42.5001L72.5088 42.1608C72.6784 42.076 72.7632 41.9912 72.9328 41.8216ZM72.1695 39.1077C72.2544 39.3621 72.2544 39.6165 72.3392 39.8709C71.6607 40.3798 71.067 40.8887 70.4733 41.4824L69.9645 41.3127V41.3975C69.8797 41.3975 69.8797 41.3975 69.7948 41.3975V41.3127H69.6252C70.3885 40.4646 71.2366 39.7013 72.1695 39.1077ZM67.8442 42.8393C68.1834 42.8393 68.4379 42.9241 68.8619 43.0089C68.5227 43.433 68.1834 43.7722 67.8442 44.1963L67.5898 44.2811L66.8265 44.4507L66.2328 44.6204C66.7417 43.9419 67.2505 43.3482 67.8442 42.8393ZM63.8581 47.4191C64.6214 47.0799 65.4695 46.7406 66.3176 46.4862C66.2328 46.571 66.2328 46.6558 66.148 46.7406L65.6391 46.9951L64.7062 47.5039L63.8581 48.0128L63.1796 48.4368C63.3492 48.0976 63.6037 47.7584 63.8581 47.4191ZM60.9745 52.0837C61.1441 51.9989 61.229 51.9141 61.3986 51.8293C62.1619 51.3204 63.01 50.8115 63.8581 50.3027L63.6037 50.4723L62.6707 51.2356L61.7378 51.9989C61.5682 52.1685 60.7201 52.847 60.6353 52.9318C60.8049 52.6774 60.8897 52.423 60.9745 52.0837ZM59.7872 56.4091C59.9568 56.2394 60.1264 56.1546 60.2112 55.985C61.3138 54.9673 62.6707 53.8647 63.8581 52.847L62.8404 53.9495L61.9074 54.9673L61.0593 55.9002L60.2112 56.9179L59.7872 57.4268C59.7024 57.0875 59.7872 56.7483 59.7872 56.4091ZM59.5327 50.6419C59.4479 50.7267 59.4479 50.8115 59.3631 50.8964L59.1935 50.9812C59.3631 50.8964 59.4479 50.7267 59.5327 50.6419ZM60.0416 62.6003L59.872 62.8547L59.1935 64.042L58.5998 65.3142L58.0061 66.5015L57.4125 67.7737L56.8188 68.9611C56.734 69.2155 56.2251 70.318 56.2251 70.4028C55.5466 69.8092 54.953 69.2155 54.6137 68.3674C55.9707 65.9927 57.4125 63.7876 59.0239 61.5825C59.2783 62.0066 59.6175 62.3458 60.0416 62.6003ZM55.7162 56.9179C56.3947 56.0698 57.158 55.3065 58.0061 54.5432C57.9213 54.7977 57.8365 55.1369 57.8365 55.561L57.3277 56.0698L56.5644 56.9179L55.8011 57.766L55.0378 58.5293C55.2922 58.0205 55.4618 57.5116 55.7162 56.9179ZM53.8504 63.2787C54.02 63.0243 54.1897 62.8547 54.3593 62.6003C55.377 61.3281 56.6492 59.8015 57.8365 58.5293C57.9213 58.8686 58.0061 59.2078 58.091 59.6319L57.6669 60.1407L56.8188 61.2433L56.0555 62.3458L55.2922 63.4484L54.6137 64.4661L53.7656 65.7382C53.7656 64.9749 53.7656 64.2117 53.8504 63.2787ZM55.377 72.4383L55.2074 72.8624L54.6985 74.1345L54.2745 75.4067L53.8504 76.6788L53.4264 77.951L53.0023 79.2232L52.6631 80.4953C51.6453 79.732 50.7972 78.7143 50.2035 77.4421C51.1365 75.0674 52.1542 72.7775 53.3415 70.4877C53.9352 71.3358 54.4441 71.7598 55.377 72.4383ZM49.4402 70.8269C49.5251 70.5725 49.6947 70.318 49.7795 70.1484C50.3732 68.9611 51.1365 67.6889 51.8998 66.4167C51.9846 67.0104 52.1542 67.6041 52.4086 68.3674L52.0694 69.0459L51.4757 70.1484L50.882 71.2509L50.3732 72.4383L49.8643 73.6257L49.5251 74.3889C49.2706 73.2864 49.2706 72.0991 49.4402 70.8269ZM49.3554 80.0713C49.9491 80.9194 50.5428 81.5979 51.5605 82.2764C51.7301 82.446 51.9846 82.5308 52.1542 82.7004L51.9846 83.2093L51.7301 84.4814L51.4757 85.7536L51.2213 87.0258L50.9668 88.2979L50.7972 89.4005V89.6549L50.6276 90.7574C50.458 90.5878 50.2035 90.4182 50.0339 90.2486C48.9314 89.3157 48.0833 88.2131 47.4896 86.8561C47.5744 86.6017 47.5744 86.4321 47.6592 86.1777C48.0833 84.1422 48.677 82.1067 49.3554 80.0713ZM46.5567 78.8839C46.8111 77.7814 47.1504 76.6788 47.4896 75.5763C47.6592 76.3396 47.8288 77.0181 48.0833 77.6966L47.8288 78.3751L47.4048 79.5624L47.0655 80.7498L46.7263 81.9371L46.4719 82.7852C46.3022 81.5979 46.3871 80.2409 46.5567 78.8839ZM46.4719 94.1499C46.5567 92.7929 46.7263 91.4359 46.9807 89.9941C47.4896 90.6726 47.9985 91.2663 48.5921 91.7752C49.101 92.284 49.6947 92.7081 50.3732 93.1321C50.3732 93.3018 50.3732 93.4714 50.2884 93.641C50.2884 93.9802 50.2035 94.4043 50.2035 94.7435L50.1187 96.3549C50.1187 96.6942 50.0339 97.5423 50.0339 97.5423C50.0339 97.9664 50.0339 98.3056 49.9491 98.7297C49.9491 98.7297 49.9491 99.5778 49.9491 99.917V100.85C48.3377 99.6626 47.1504 98.136 46.3022 96.2701C46.3871 95.6765 46.3871 94.9132 46.4719 94.1499ZM50.0339 103.649V104.242L50.1187 105.515L50.2035 106.787L50.2884 108.059L50.458 109.331C50.458 109.331 50.6276 110.858 50.6276 110.942C48.9314 109.585 47.5744 107.889 46.7263 105.854C46.4719 103.988 46.3022 102.122 46.3022 100.256C47.32 101.613 48.5073 102.716 50.0339 103.649ZM45.1149 87.4498C45.1997 87.2802 45.1997 87.1954 45.2845 87.0258V86.9409C45.2845 87.0258 45.3693 87.1954 45.3693 87.2802L45.1997 88.0435L45.0301 88.9764V88.722C45.0301 88.6372 45.0301 88.5524 45.0301 88.3827C45.1149 88.0435 45.1149 87.7891 45.1149 87.4498Z" fill="#FFD304"/>
<path d="M243.742 15.2751C228.052 -6.94529 183.781 -4.23134 134.591 18.922H134.676C139.086 20.1942 143.835 20.0245 148.076 18.2435C177.675 6.20039 201.337 4.33455 209.309 15.6144C217.281 26.8942 207.698 48.521 186.665 72.268C188.361 78.544 189.209 85.0744 189.209 91.7745C189.209 102.037 187.173 111.959 183.272 121.289C179.456 130.363 174.028 138.42 167.073 145.46C160.119 152.414 151.977 157.927 142.987 161.743C133.658 165.73 123.735 167.68 113.473 167.68C103.211 167.68 93.2879 165.645 83.9587 161.743C78.3612 159.369 73.0181 156.316 68.1839 152.669C43.7584 160.98 24.6759 161.15 17.7215 151.227C10.5125 140.965 17.7215 122.137 34.9381 101.019C36.8039 98.729 37.7368 95.8454 37.7368 92.9618C37.7368 92.6226 37.7368 92.1985 37.7368 91.8593C37.7368 91.3504 37.0583 91.096 36.7191 91.5201C4.83022 127.141 -8.6547 163.27 5.76313 183.709C26.3722 212.969 96.3411 198.975 162.069 152.499C227.713 105.938 264.351 44.5349 243.742 15.2751Z" fill="#FFD304"/>
</svg>
