 <svg
          width="205"
          height="148"
          viewBox="0 0 205 148"
          fill="none"
          xmlns="http://www.w3.org/2000/svg"
        >
          <line
            x1="26.9853"
            y1="146.484"
            x2="62.6976"
            y2="110.772"
            stroke="#0AFAE1"
            stroke-width="1.37355"
          />
          <line
            x1="136.124"
            y1="110.772"
            x2="171.836"
            y2="146.484"
            stroke="#0AFAE1"
            stroke-width="1.37355"
          />
          <path
            d="M126.195 73.6566C126.195 88.6301 113.981 100.784 98.8956 100.784C83.8099 100.784 71.5963 88.6301 71.5963 73.6566C71.5963 58.6831 83.8099 46.529 98.8956 46.529C113.981 46.529 126.195 58.6831 126.195 73.6566Z"
            stroke="#0AFAE1"
            stroke-width="3.09049"
          />
          <circle
            cx="99.0672"
            cy="74"
            r="17.8561"
            stroke="#30F4E2"
            stroke-width="3.09049"
          />
          <circle cx="132.376" cy="106.622" r="2.57541" fill="#30F4E2" />
          <circle cx="132.376" cy="40.6914" r="2.57541" fill="#30F4E2" />
          <circle cx="66.102" cy="40.348" r="2.57541" fill="#0AFAE1" />
          <circle cx="66.4455" cy="106.622" r="2.57541" fill="#30F4E2" />
          <line
            x1="98.8955"
            y1="0.341722"
            x2="99.2397"
            y2="147.998"
            stroke="#0AFAE1"
            stroke-width="1.37355"
          />
          <line
            x1="26.9265"
            y1="0.544467"
            x2="62.6389"
            y2="36.2568"
            stroke="#0AFAE1"
            stroke-width="1.37355"
          />
          <line
            x1="171.493"
            y1="0.485623"
            x2="135.78"
            y2="36.1979"
            stroke="#0AFAE1"
            stroke-width="1.37355"
          />
          <line
            x1="128.226"
            y1="44.4392"
            x2="70.1934"
            y2="102.472"
            stroke="#30F4E2"
            stroke-width="1.37355"
          />
          <line
            x1="128.479"
            y1="102.964"
            x2="70.2523"
            y2="44.7827"
            stroke="#0AFAE1"
            stroke-width="1.37355"
          />
          <line
            x1="149.706"
            y1="74.016"
            x2="147.31"
            y2="74"
            stroke="#30F4E2"
            stroke-width="1.03016"
          />
          <line
            x1="51.1538"
            y1="74.016"
            x2="48.7575"
            y2="74"
            stroke="#0AFAE1"
            stroke-width="1.03016"
          />
          <line
            x1="46.3475"
            y1="74.016"
            x2="42.921"
            y2="74"
            stroke="#30F4E2"
            stroke-width="1.03016"
          />
          <line
            x1="40.1665"
            y1="74.016"
            x2="36.7401"
            y2="74"
            stroke="#0AFAE1"
            stroke-width="1.03016"
          />
          <line
            x1="34.3389"
            y1="73.9999"
            x2="30.5616"
            y2="73.9999"
            stroke="#30F4E2"
            stroke-width="1.03016"
          />
          <line
            x1="28.1577"
            y1="73.9999"
            x2="24.3805"
            y2="73.9999"
            stroke="#0AFAE1"
            stroke-width="1.03016"
          />
          <line
            x1="22.3203"
            y1="73.9999"
            x2="18.543"
            y2="73.9999"
            stroke="#30F4E2"
            stroke-width="1.03016"
          />
          <line
            x1="15.7959"
            y1="73.9999"
            x2="12.362"
            y2="73.9999"
            stroke="#0AFAE1"
            stroke-width="1.03016"
          />
          <line
            x1="9.61475"
            y1="73.9999"
            x2="6.18087"
            y2="73.9999"
            stroke="#30F4E2"
            stroke-width="1.03016"
          />
          <line
            x1="3.43384"
            y1="73.9999"
            x2="-3.71933e-05"
            y2="73.9999"
            stroke="#0AFAE1"
            stroke-width="1.03016"
          />
          <line
            x1="155.555"
            y1="73.9999"
            x2="152.121"
            y2="73.9999"
            stroke="#0AFAE1"
            stroke-width="1.03016"
          />
          <line
            x1="161.735"
            y1="73.9999"
            x2="158.301"
            y2="73.9999"
            stroke="#30F4E2"
            stroke-width="1.03016"
          />
          <line
            x1="167.917"
            y1="73.9999"
            x2="164.139"
            y2="73.9999"
            stroke="#0AFAE1"
            stroke-width="1.03016"
          />
          <line
            x1="174.097"
            y1="73.9999"
            x2="170.32"
            y2="73.9999"
            stroke="#30F4E2"
            stroke-width="1.03016"
          />
          <line
            x1="179.935"
            y1="73.9999"
            x2="176.501"
            y2="73.9999"
            stroke="#0AFAE1"
            stroke-width="1.03016"
          />
          <line
            x1="186.116"
            y1="73.9999"
            x2="182.682"
            y2="73.9999"
            stroke="#30F4E2"
            stroke-width="1.03016"
          />
          <line
            x1="192.297"
            y1="73.9999"
            x2="188.863"
            y2="73.9999"
            stroke="#0AFAE1"
            stroke-width="1.03016"
          />
          <line
            x1="198.135"
            y1="73.9999"
            x2="195.044"
            y2="73.9999"
            stroke="#30F4E2"
            stroke-width="1.03016"
          />
          <line
            x1="204.316"
            y1="73.9999"
            x2="200.882"
            y2="73.9999"
            stroke="#0AFAE1"
            stroke-width="1.03016"
          />
          <path
            d="M18.1996 92.3712L22.0656 98.5522H14.3337L18.1996 92.3712Z"
            fill="#9C019F"
          />
          <path
            d="M18.1996 92.3712L22.0656 98.5522H14.3337L18.1996 92.3712Z"
            fill="#9C019F"
          />
          <path
            d="M18.1996 92.3712L22.0656 98.5522H14.3337L18.1996 92.3712Z"
            fill="#30F4E2"
          />
          <path
            d="M180.278 55.3111L176.448 49.1078L184.18 49.1526L180.278 55.3111Z"
            fill="#30F4E2"
          />
          <path
            d="M18.1994 55.3111L14.3693 49.1078L22.1011 49.1526L18.1994 55.3111Z"
            fill="#30F4E2"
          />
        </svg>