<svg width="241" height="175" viewBox="0 0 241 175" fill="none" xmlns="http://www.w3.org/2000/svg">
<line x1="31.7576" y1="172.389" x2="73.7855" y2="130.361" stroke="#FFD304" stroke-width="1.61646"/>
<line x1="160.197" y1="130.361" x2="202.224" y2="172.389" stroke="#FFD304" stroke-width="1.61646"/>
<path d="M148.512 86.6827C148.512 104.304 134.139 118.608 116.385 118.608C98.6315 118.608 84.258 104.304 84.258 86.6827C84.258 69.0612 98.6315 54.7577 116.385 54.7577C134.139 54.7577 148.512 69.0612 148.512 86.6827Z" stroke="#FFD304" stroke-width="3.63703"/>
<circle cx="116.587" cy="87.0861" r="21.0139" stroke="#FFD304" stroke-width="3.63703"/>
<circle cx="155.786" cy="125.477" r="3.03086" fill="#FFD304"/>
<circle cx="155.786" cy="47.8878" r="3.03086" fill="#FFD304"/>
<circle cx="77.7921" cy="47.4833" r="3.03086" fill="#FFD304"/>
<circle cx="78.1964" cy="125.477" r="3.03086" fill="#FFD304"/>
<line x1="116.385" y1="0.401955" x2="116.79" y2="174.171" stroke="#FFD304" stroke-width="1.61646"/>
<line x1="31.6882" y1="0.641265" x2="73.7161" y2="42.6691" stroke="#FFD304" stroke-width="1.61646"/>
<line x1="201.82" y1="0.571382" x2="159.792" y2="42.5992" stroke="#FFD304" stroke-width="1.61646"/>
<line x1="150.902" y1="52.2978" x2="82.6068" y2="120.593" stroke="#FFD304" stroke-width="1.61646"/>
<line x1="151.2" y1="121.172" x2="82.6762" y2="52.7023" stroke="#FFD304" stroke-width="1.61646"/>
<line x1="176.181" y1="87.1057" x2="173.361" y2="87.0869" stroke="#FFD304" stroke-width="1.21234"/>
<line x1="60.2001" y1="87.1057" x2="57.38" y2="87.0869" stroke="#FFD304" stroke-width="1.21234"/>
<line x1="54.544" y1="87.1057" x2="50.5116" y2="87.0869" stroke="#FFD304" stroke-width="1.21234"/>
<line x1="47.2696" y1="87.1057" x2="43.2372" y2="87.0869" stroke="#FFD304" stroke-width="1.21234"/>
<line x1="40.4116" y1="87.0864" x2="35.9664" y2="87.0864" stroke="#FFD304" stroke-width="1.21234"/>
<line x1="33.1372" y1="87.0864" x2="28.692" y2="87.0864" stroke="#FFD304" stroke-width="1.21234"/>
<line x1="26.2676" y1="87.0864" x2="21.8223" y2="87.0864" stroke="#FFD304" stroke-width="1.21234"/>
<line x1="18.5889" y1="87.0864" x2="14.5477" y2="87.0864" stroke="#FFD304" stroke-width="1.21234"/>
<line x1="11.3149" y1="87.0864" x2="7.2738" y2="87.0864" stroke="#FFD304" stroke-width="1.21234"/>
<line x1="4.04102" y1="87.0864" x2="-0.000124455" y2="87.0864" stroke="#FFD304" stroke-width="1.21234"/>
<line x1="183.064" y1="87.0864" x2="179.023" y2="87.0864" stroke="#FFD304" stroke-width="1.21234"/>
<line x1="190.337" y1="87.0864" x2="186.296" y2="87.0864" stroke="#FFD304" stroke-width="1.21234"/>
<line x1="197.612" y1="87.0864" x2="193.167" y2="87.0864" stroke="#FFD304" stroke-width="1.21234"/>
<line x1="204.886" y1="87.0864" x2="200.44" y2="87.0864" stroke="#FFD304" stroke-width="1.21234"/>
<line x1="211.756" y1="87.0864" x2="207.715" y2="87.0864" stroke="#FFD304" stroke-width="1.21234"/>
<line x1="219.03" y1="87.0864" x2="214.989" y2="87.0864" stroke="#FFD304" stroke-width="1.21234"/>
<line x1="226.304" y1="87.0864" x2="222.263" y2="87.0864" stroke="#FFD304" stroke-width="1.21234"/>
<line x1="233.174" y1="87.0864" x2="229.537" y2="87.0864" stroke="#FFD304" stroke-width="1.21234"/>
<line x1="240.448" y1="87.0864" x2="236.407" y2="87.0864" stroke="#FFD304" stroke-width="1.21234"/>
<path d="M21.418 108.707L25.9677 115.981H16.8684L21.418 108.707Z" fill="#9C019F"/>
<path d="M21.418 108.707L25.9677 115.981H16.8684L21.418 108.707Z" fill="#9C019F"/>
<path d="M21.418 108.707L25.9677 115.981H16.8684L21.418 108.707Z" fill="#FFD304"/>
<path d="M212.16 65.0924L207.652 57.7921L216.751 57.8449L212.16 65.0924Z" fill="#FFD304"/>
<path d="M21.418 65.0924L16.9106 57.7921L26.0098 57.8449L21.418 65.0924Z" fill="#FFD304"/>
</svg>
