<svg width="12" height="414" viewBox="0 0 12 414" fill="none" xmlns="http://www.w3.org/2000/svg">
<path d="M7 10L11.7735 0H0.226497L5 10H7ZM5 404L0.226497 414H11.7735L7 404H5ZM5 4.92857C5 5.48086 5.44772 5.92857 6 5.92857C6.55228 5.92857 7 5.48086 7 4.92857H5ZM7 14.7857C7 14.2334 6.55228 13.7857 6 13.7857C5.44772 13.7857 5 14.2334 5 14.7857H7ZM5 24.6429C5 25.1951 5.44772 25.6429 6 25.6429C6.55228 25.6429 7 25.1951 7 24.6429H5ZM7 34.5C7 33.9477 6.55228 33.5 6 33.5C5.44772 33.5 5 33.9477 5 34.5H7ZM5 44.3571C5 44.9094 5.44772 45.3571 6 45.3571C6.55228 45.3571 7 44.9094 7 44.3571H5ZM7 54.2143C7 53.662 6.55228 53.2143 6 53.2143C5.44772 53.2143 5 53.662 5 54.2143H7ZM5 64.0714C5 64.6237 5.44772 65.0714 6 65.0714C6.55228 65.0714 7 64.6237 7 64.0714H5ZM7 73.9286C7 73.3763 6.55228 72.9286 6 72.9286C5.44772 72.9286 5 73.3763 5 73.9286H7ZM5 83.7857C5 84.338 5.44772 84.7857 6 84.7857C6.55228 84.7857 7 84.338 7 83.7857H5ZM7 93.6428C7 93.0906 6.55228 92.6428 6 92.6428C5.44772 92.6428 5 93.0906 5 93.6428H7ZM5 103.5C5 104.052 5.44772 104.5 6 104.5C6.55228 104.5 7 104.052 7 103.5H5ZM7 113.357C7 112.805 6.55228 112.357 6 112.357C5.44772 112.357 5 112.805 5 113.357H7ZM5 123.214C5 123.767 5.44772 124.214 6 124.214C6.55228 124.214 7 123.767 7 123.214H5ZM7 133.071C7 132.519 6.55228 132.071 6 132.071C5.44772 132.071 5 132.519 5 133.071H7ZM5 142.929C5 143.481 5.44772 143.929 6 143.929C6.55228 143.929 7 143.481 7 142.929H5ZM7 152.786C7 152.233 6.55228 151.786 6 151.786C5.44772 151.786 5 152.233 5 152.786H7ZM5 162.643C5 163.195 5.44772 163.643 6 163.643C6.55228 163.643 7 163.195 7 162.643H5ZM7 172.5C7 171.948 6.55228 171.5 6 171.5C5.44772 171.5 5 171.948 5 172.5H7ZM5 182.357C5 182.909 5.44772 183.357 6 183.357C6.55228 183.357 7 182.909 7 182.357H5ZM7 192.214C7 191.662 6.55228 191.214 6 191.214C5.44772 191.214 5 191.662 5 192.214H7ZM5 202.071C5 202.624 5.44772 203.071 6 203.071C6.55228 203.071 7 202.624 7 202.071H5ZM7 211.929C7 211.376 6.55228 210.929 6 210.929C5.44772 210.929 5 211.376 5 211.929H7ZM5 221.786C5 222.338 5.44772 222.786 6 222.786C6.55228 222.786 7 222.338 7 221.786H5ZM7 231.643C7 231.091 6.55228 230.643 6 230.643C5.44772 230.643 5 231.091 5 231.643H7ZM5 241.5C5 242.052 5.44772 242.5 6 242.5C6.55228 242.5 7 242.052 7 241.5H5ZM7 251.357C7 250.805 6.55228 250.357 6 250.357C5.44772 250.357 5 250.805 5 251.357H7ZM5 261.214C5 261.767 5.44772 262.214 6 262.214C6.55228 262.214 7 261.767 7 261.214H5ZM7 271.071C7 270.519 6.55228 270.071 6 270.071C5.44772 270.071 5 270.519 5 271.071H7ZM5 280.929C5 281.481 5.44772 281.929 6 281.929C6.55228 281.929 7 281.481 7 280.929H5ZM7 290.786C7 290.233 6.55228 289.786 6 289.786C5.44772 289.786 5 290.233 5 290.786H7ZM5 300.643C5 301.195 5.44772 301.643 6 301.643C6.55228 301.643 7 301.195 7 300.643H5ZM7 310.5C7 309.948 6.55228 309.5 6 309.5C5.44772 309.5 5 309.948 5 310.5H7ZM5 320.357C5 320.909 5.44772 321.357 6 321.357C6.55228 321.357 7 320.909 7 320.357H5ZM7 330.214C7 329.662 6.55228 329.214 6 329.214C5.44772 329.214 5 329.662 5 330.214H7ZM5 340.072C5 340.624 5.44772 341.072 6 341.072C6.55228 341.072 7 340.624 7 340.072H5ZM7 349.929C7 349.376 6.55228 348.929 6 348.929C5.44772 348.929 5 349.376 5 349.929H7ZM5 359.786C5 360.338 5.44772 360.786 6 360.786C6.55228 360.786 7 360.338 7 359.786H5ZM7 369.643C7 369.091 6.55228 368.643 6 368.643C5.44772 368.643 5 369.091 5 369.643H7ZM5 379.5C5 380.052 5.44772 380.5 6 380.5C6.55228 380.5 7 380.052 7 379.5H5ZM7 389.357C7 388.805 6.55228 388.357 6 388.357C5.44772 388.357 5 388.805 5 389.357H7ZM5 399.214C5 399.767 5.44772 400.214 6 400.214C6.55228 400.214 7 399.767 7 399.214H5ZM7 409.072C7 408.519 6.55228 408.072 6 408.072C5.44772 408.072 5 408.519 5 409.072H7ZM5 14.7857V24.6429H7V14.7857H5ZM5 34.5V44.3571H7V34.5H5ZM5 54.2143V64.0714H7V54.2143H5ZM5 73.9286V83.7857H7V73.9286H5ZM5 93.6428V103.5H7V93.6428H5ZM5 113.357V123.214H7V113.357H5ZM5 133.071V142.929H7V133.071H5ZM5 152.786V162.643H7V152.786H5ZM5 172.5V182.357H7V172.5H5ZM5 192.214V202.071H7V192.214H5ZM5 211.929V221.786H7V211.929H5ZM5 231.643V241.5H7V231.643H5ZM5 251.357V261.214H7V251.357H5ZM5 271.071V280.929H7V271.071H5ZM5 290.786V300.643H7V290.786H5ZM5 310.5V320.357H7V310.5H5ZM5 330.214V340.072H7V330.214H5ZM5 349.929V359.786H7V349.929H5ZM5 369.643V379.5H7V369.643H5ZM5 389.357V399.214H7V389.357H5Z" fill="#30F4E2"/>
</svg>
